<?xml version="1.0" encoding="UTF-8" standalone="no"?><svg xmlns="http://www.w3.org/2000/svg" xmlns:xlink="http://www.w3.org/1999/xlink" contentScriptType="application/ecmascript" contentStyleType="text/css" height="227px" preserveAspectRatio="none" style="width:1363px;height:227px;" version="1.1" viewBox="0 0 1363 227" width="1363px" zoomAndPan="magnify"><defs><filter height="300%" id="fm5wcy0" width="300%" x="-1" y="-1"><feGaussianBlur result="blurOut" stdDeviation="2.0"/><feColorMatrix in="blurOut" result="blurOut2" type="matrix" values="0 0 0 0 0 0 0 0 0 0 0 0 0 0 0 0 0 0 .4 0"/><feOffset dx="4.0" dy="4.0" in="blurOut2" result="blurOut3"/><feBlend in="SourceGraphic" in2="blurOut3" mode="normal"/></filter></defs><g><!--cluster Libindy static API--><polygon fill="#FFFFFF" filter="url(#fm5wcy0)" points="22,91.5,149,91.5,156,113.5986,782,113.5986,782,197.5,22,197.5,22,91.5" style="stroke: #000000; stroke-width: 2.0;"/><line style="stroke: #000000; stroke-width: 2.0;" x1="22" x2="156" y1="113.5986" y2="113.5986"/><text fill="#000000" font-family="sans-serif" font-size="14" font-weight="bold" lengthAdjust="spacingAndGlyphs" textLength="121" x="26" y="106.6318">Libindy static API</text><!--cluster Expandable Libindy API--><polygon fill="#FFFFFF" filter="url(#fm5wcy0)" points="806,69,976,69,983,91.0986,1356,91.0986,1356,220,806,220,806,69" style="stroke: #000000; stroke-width: 2.0;"/><line style="stroke: #000000; stroke-width: 2.0;" x1="806" x2="983" y1="91.0986" y2="91.0986"/><text fill="#000000" font-family="sans-serif" font-size="14" font-weight="bold" lengthAdjust="spacingAndGlyphs" textLength="164" x="810" y="84.1318">Expandable Libindy API</text><!--entity i_libindy_api--><ellipse cx="730" cy="146" fill="#FEFECE" filter="url(#fm5wcy0)" rx="8" ry="8" style="stroke: #A80036; stroke-width: 2.0;"/><text fill="#000000" font-family="sans-serif" font-size="14" lengthAdjust="spacingAndGlyphs" textLength="71" x="694.5" y="168.1318">Libindy API</text><polygon fill="#FBFB77" filter="url(#fm5wcy0)" points="458.5,126.5,458.5,181.3462,659.5,181.3462,659.5,136.5,649.5,126.5,458.5,126.5" style="stroke: #A80036; stroke-width: 1.0;"/><polygon fill="#FBFB77" points="458.5,126.5,458.5,181.3462,659.5,181.3462,659.5,158,694.489,154,659.5,150,659.5,136.5,649.5,126.5,458.5,126.5" style="stroke: #A80036; stroke-width: 1.0;"/><line style="stroke: #A80036; stroke-width: 1.0;" x1="649.5" x2="649.5" y1="126.5" y2="136.5"/><line style="stroke: #A80036; stroke-width: 1.0;" x1="659.5" x2="649.5" y1="136.5" y2="136.5"/><text fill="#000000" font-family="sans-serif" font-size="13" lengthAdjust="spacingAndGlyphs" textLength="125" x="464.5" y="143.6938">Existing Libindy APIs</text><text fill="#000000" font-family="sans-serif" font-size="13" lengthAdjust="spacingAndGlyphs" textLength="140" x="464.5" y="158.6426">that cannot be replaced,</text><text fill="#000000" font-family="sans-serif" font-size="13" lengthAdjust="spacingAndGlyphs" textLength="180" x="464.5" y="173.5913">like Anoncred, Wallet and else.</text><!--entity i_state_machine--><ellipse cx="363" cy="146" fill="#FEFECE" filter="url(#fm5wcy0)" rx="8" ry="8" style="stroke: #A80036; stroke-width: 2.0;"/><text fill="#000000" font-family="sans-serif" font-size="14" lengthAdjust="spacingAndGlyphs" textLength="121" x="302.5" y="168.1318">A2A State Machine</text><polygon fill="#FBFB77" filter="url(#fm5wcy0)" points="38.5,126.5,38.5,181.3462,267.5,181.3462,267.5,136.5,257.5,126.5,38.5,126.5" style="stroke: #A80036; stroke-width: 1.0;"/><polygon fill="#FBFB77" points="38.5,126.5,38.5,181.3462,267.5,181.3462,267.5,158,302.412,154,267.5,150,267.5,136.5,257.5,126.5,38.5,126.5" style="stroke: #A80036; stroke-width: 1.0;"/><line style="stroke: #A80036; stroke-width: 1.0;" x1="257.5" x2="257.5" y1="126.5" y2="136.5"/><line style="stroke: #A80036; stroke-width: 1.0;" x1="267.5" x2="257.5" y1="136.5" y2="136.5"/><text fill="#000000" font-family="sans-serif" font-size="13" lengthAdjust="spacingAndGlyphs" textLength="189" x="44.5" y="143.6938">State Machine that defines a set</text><text fill="#000000" font-family="sans-serif" font-size="13" lengthAdjust="spacingAndGlyphs" textLength="164" x="44.5" y="158.6426">of messages and transitions</text><text fill="#000000" font-family="sans-serif" font-size="13" lengthAdjust="spacingAndGlyphs" textLength="208" x="44.5" y="173.5913">every message family must satisfy.</text><!--entity i_custom_api--><ellipse cx="914" cy="146" fill="#FEFECE" filter="url(#fm5wcy0)" rx="8" ry="8" style="stroke: #A80036; stroke-width: 2.0;"/><text fill="#000000" font-family="sans-serif" font-size="14" lengthAdjust="spacingAndGlyphs" textLength="183" x="822.5" y="168.1318">Message Family API Helpers</text><polygon fill="#FBFB77" filter="url(#fm5wcy0)" points="1040.5,104,1040.5,203.6924,1339.5,203.6924,1339.5,114,1329.5,104,1040.5,104" style="stroke: #A80036; stroke-width: 1.0;"/><polygon fill="#FBFB77" points="1040.5,104,1040.5,150,1005.641,154,1040.5,158,1040.5,203.6924,1339.5,203.6924,1339.5,114,1329.5,104,1040.5,104" style="stroke: #A80036; stroke-width: 1.0;"/><line style="stroke: #A80036; stroke-width: 1.0;" x1="1329.5" x2="1329.5" y1="104" y2="114"/><line style="stroke: #A80036; stroke-width: 1.0;" x1="1339.5" x2="1329.5" y1="114" y2="114"/><text fill="#000000" font-family="sans-serif" font-size="13" lengthAdjust="spacingAndGlyphs" textLength="241" x="1046.5" y="121.1938">An API that provides a set of functions to</text><text fill="#000000" font-family="sans-serif" font-size="13" lengthAdjust="spacingAndGlyphs" textLength="278" x="1046.5" y="136.1426">support a new custom message family protocol.</text><text fill="#000000" font-family="sans-serif" font-size="13" lengthAdjust="spacingAndGlyphs" textLength="206" x="1046.5" y="151.0913">This API provides functionality like:</text><text fill="#000000" font-family="sans-serif" font-size="13" lengthAdjust="spacingAndGlyphs" textLength="110" x="1046.5" y="166.04">- message builders</text><text fill="#000000" font-family="sans-serif" font-size="13" lengthAdjust="spacingAndGlyphs" textLength="108" x="1046.5" y="180.9888">- response parsers</text><text fill="#000000" font-family="sans-serif" font-size="13" lengthAdjust="spacingAndGlyphs" textLength="32" x="1046.5" y="195.9375">- else</text><!--entity application--><rect fill="#FEFECE" filter="url(#fm5wcy0)" height="36.0986" style="stroke: #A80036; stroke-width: 1.5;" width="89" x="685.5" y="8"/><rect fill="#FEFECE" height="5" style="stroke: #A80036; stroke-width: 1.5;" width="10" x="680.5" y="13"/><rect fill="#FEFECE" height="5" style="stroke: #A80036; stroke-width: 1.5;" width="10" x="680.5" y="34.0986"/><text fill="#000000" font-family="sans-serif" font-size="14" lengthAdjust="spacingAndGlyphs" textLength="69" x="695.5" y="31.1318">Application</text><path d="M730,44.256 C730,67.034 730,107.122 730,131.743 " fill="none" style="stroke: #A80036; stroke-width: 1.0; stroke-dasharray: 7.0,7.0;"/><polygon fill="#A80036" points="730,136.7505,734,127.7505,730,131.7505,726,127.7505,730,136.7505" style="stroke: #A80036; stroke-width: 1.0;"/><path d="M685.429,28.287 C615.126,30.97 482.236,38.881 441,61 C410.679,77.264 387.148,110.551 374.181,132.308 " fill="none" style="stroke: #A80036; stroke-width: 1.0; stroke-dasharray: 7.0,7.0;"/><polygon fill="#A80036" points="371.576,136.7658,379.5705,131.0135,374.0987,132.4489,372.6634,126.9772,371.576,136.7658" style="stroke: #A80036; stroke-width: 1.0;"/><path d="M756.554,44.146 C764.747,49.494 773.776,55.447 782,61 C818.698,85.778 860.561,115.146 887.121,133.918 " fill="none" style="stroke: #A80036; stroke-width: 1.0; stroke-dasharray: 7.0,7.0;"/><polygon fill="#A80036" points="891.249,136.838,886.2101,128.3758,887.1666,133.9512,881.5912,134.9076,891.249,136.838" style="stroke: #A80036; stroke-width: 1.0;"/></g></svg>