<?xml version="1.0" encoding="UTF-8" standalone="no"?><svg xmlns="http://www.w3.org/2000/svg" xmlns:xlink="http://www.w3.org/1999/xlink" contentScriptType="application/ecmascript" contentStyleType="text/css" height="232px" preserveAspectRatio="none" style="width:1381px;height:232px;" version="1.1" viewBox="0 0 1381 232" width="1381px" zoomAndPan="magnify"><defs><filter height="300%" id="fpfgkex" width="300%" x="-1" y="-1"><feGaussianBlur result="blurOut" stdDeviation="2.0"/><feColorMatrix in="blurOut" result="blurOut2" type="matrix" values="0 0 0 0 0 0 0 0 0 0 0 0 0 0 0 0 0 0 .4 0"/><feOffset dx="4.0" dy="4.0" in="blurOut2" result="blurOut3"/><feBlend in="SourceGraphic" in2="blurOut3" mode="normal"/></filter></defs><g><text fill="#000000" font-family="sans-serif" font-size="18" lengthAdjust="spacingAndGlyphs" textLength="102" x="653" y="16.8838">Components</text><!--cluster Libindy static API--><polygon fill="#FFFFFF" filter="url(#fpfgkex)" points="22,104.6982,149,104.6982,156,126.7969,800,126.7969,800,210.6982,22,210.6982,22,104.6982" style="stroke: #000000; stroke-width: 2.0;"/><line style="stroke: #000000; stroke-width: 2.0;" x1="22" x2="156" y1="126.7969" y2="126.7969"/><text fill="#000000" font-family="sans-serif" font-size="14" font-weight="bold" lengthAdjust="spacingAndGlyphs" textLength="121" x="26" y="119.8301">Libindy static API</text><!--cluster Expandable Libindy API--><polygon fill="#FFFFFF" filter="url(#fpfgkex)" points="824,89.6982,994,89.6982,1001,111.7969,1374,111.7969,1374,225.6982,824,225.6982,824,89.6982" style="stroke: #000000; stroke-width: 2.0;"/><line style="stroke: #000000; stroke-width: 2.0;" x1="824" x2="1001" y1="111.7969" y2="111.7969"/><text fill="#000000" font-family="sans-serif" font-size="14" font-weight="bold" lengthAdjust="spacingAndGlyphs" textLength="164" x="828" y="104.8301">Expandable Libindy API</text><!--entity i_libindy_api--><ellipse cx="748" cy="159.1982" fill="#FEFECE" filter="url(#fpfgkex)" rx="8" ry="8" style="stroke: #A80036; stroke-width: 2.0;"/><text fill="#000000" font-family="sans-serif" font-size="14" lengthAdjust="spacingAndGlyphs" textLength="71" x="712.5" y="181.3301">Libindy API</text><polygon fill="#FBFB77" filter="url(#fpfgkex)" points="476.5,139.6982,476.5,194.5444,677.5,194.5444,677.5,149.6982,667.5,139.6982,476.5,139.6982" style="stroke: #A80036; stroke-width: 1.0;"/><polygon fill="#FBFB77" points="476.5,139.6982,476.5,194.5444,677.5,194.5444,677.5,171.1982,712.489,167.1982,677.5,163.1982,677.5,149.6982,667.5,139.6982,476.5,139.6982" style="stroke: #A80036; stroke-width: 1.0;"/><line style="stroke: #A80036; stroke-width: 1.0;" x1="667.5" x2="667.5" y1="139.6982" y2="149.6982"/><line style="stroke: #A80036; stroke-width: 1.0;" x1="677.5" x2="667.5" y1="149.6982" y2="149.6982"/><text fill="#000000" font-family="sans-serif" font-size="13" lengthAdjust="spacingAndGlyphs" textLength="178" x="482.5" y="156.8921">Existing APIs Libindy provides</text><text fill="#000000" font-family="sans-serif" font-size="13" lengthAdjust="spacingAndGlyphs" textLength="143" x="482.5" y="171.8408">and  cannot be replaced,</text><text fill="#000000" font-family="sans-serif" font-size="13" lengthAdjust="spacingAndGlyphs" textLength="180" x="482.5" y="186.7896">like Anoncred, Wallet and else.</text><!--entity i_state_machine--><ellipse cx="381" cy="159.1982" fill="#FEFECE" filter="url(#fpfgkex)" rx="8" ry="8" style="stroke: #A80036; stroke-width: 2.0;"/><text fill="#000000" font-family="sans-serif" font-size="14" lengthAdjust="spacingAndGlyphs" textLength="121" x="320.5" y="181.3301">A2A State Machine</text><polygon fill="#FBFB77" filter="url(#fpfgkex)" points="38,139.6982,38,194.5444,286,194.5444,286,149.6982,276,139.6982,38,139.6982" style="stroke: #A80036; stroke-width: 1.0;"/><polygon fill="#FBFB77" points="38,139.6982,38,194.5444,286,194.5444,286,171.1982,320.168,167.1982,286,163.1982,286,149.6982,276,139.6982,38,139.6982" style="stroke: #A80036; stroke-width: 1.0;"/><line style="stroke: #A80036; stroke-width: 1.0;" x1="276" x2="276" y1="139.6982" y2="149.6982"/><line style="stroke: #A80036; stroke-width: 1.0;" x1="286" x2="276" y1="149.6982" y2="149.6982"/><text fill="#000000" font-family="sans-serif" font-size="13" lengthAdjust="spacingAndGlyphs" textLength="227" x="44" y="156.8921">State Machine that defines the minimal</text><text fill="#000000" font-family="sans-serif" font-size="13" lengthAdjust="spacingAndGlyphs" textLength="218" x="44" y="171.8408">set of base messages and transitions</text><text fill="#000000" font-family="sans-serif" font-size="13" lengthAdjust="spacingAndGlyphs" textLength="208" x="44" y="186.7896">every message family must satisfy.</text><!--entity i_custom_api--><ellipse cx="932" cy="159.1982" fill="#FEFECE" filter="url(#fpfgkex)" rx="8" ry="8" style="stroke: #A80036; stroke-width: 2.0;"/><text fill="#000000" font-family="sans-serif" font-size="14" lengthAdjust="spacingAndGlyphs" textLength="183" x="840.5" y="181.3301">Message Family API Helpers</text><polygon fill="#FBFB77" filter="url(#fpfgkex)" points="1058.5,124.6982,1058.5,209.4419,1357.5,209.4419,1357.5,134.6982,1347.5,124.6982,1058.5,124.6982" style="stroke: #A80036; stroke-width: 1.0;"/><polygon fill="#FBFB77" points="1058.5,124.6982,1058.5,163.1982,1023.64,167.1982,1058.5,171.1982,1058.5,209.4419,1357.5,209.4419,1357.5,134.6982,1347.5,124.6982,1058.5,124.6982" style="stroke: #A80036; stroke-width: 1.0;"/><line style="stroke: #A80036; stroke-width: 1.0;" x1="1347.5" x2="1347.5" y1="124.6982" y2="134.6982"/><line style="stroke: #A80036; stroke-width: 1.0;" x1="1357.5" x2="1347.5" y1="134.6982" y2="134.6982"/><text fill="#000000" font-family="sans-serif" font-size="13" lengthAdjust="spacingAndGlyphs" textLength="241" x="1064.5" y="141.8921">An API that provides a set of functions to</text><text fill="#000000" font-family="sans-serif" font-size="13" lengthAdjust="spacingAndGlyphs" textLength="278" x="1064.5" y="156.8408">support a new custom message family protocol.</text><text fill="#000000" font-family="sans-serif" font-size="13" lengthAdjust="spacingAndGlyphs" textLength="202" x="1064.5" y="171.7896">This API provides functionality like</text><text fill="#000000" font-family="sans-serif" font-size="13" lengthAdjust="spacingAndGlyphs" textLength="235" x="1064.5" y="186.7383">message preparation, parsing responses</text><text fill="#000000" font-family="sans-serif" font-size="13" lengthAdjust="spacingAndGlyphs" textLength="53" x="1064.5" y="201.687">and else.</text><!--entity application--><rect fill="#FEFECE" filter="url(#fpfgkex)" height="36.0986" style="stroke: #A80036; stroke-width: 1.5;" width="89" x="703.5" y="28.6982"/><rect fill="#FEFECE" height="5" style="stroke: #A80036; stroke-width: 1.5;" width="10" x="698.5" y="33.6982"/><rect fill="#FEFECE" height="5" style="stroke: #A80036; stroke-width: 1.5;" width="10" x="698.5" y="54.7969"/><text fill="#000000" font-family="sans-serif" font-size="14" lengthAdjust="spacingAndGlyphs" textLength="69" x="713.5" y="51.8301">Application</text><path d="M748,64.9292 C748,86.0852 748,121.9662 748,144.8491 " fill="none" style="stroke: #A80036; stroke-width: 1.0; stroke-dasharray: 7.0,7.0;"/><polygon fill="#A80036" points="748,150.0876,752,141.0876,748,145.0876,744,141.0876,748,150.0876" style="stroke: #A80036; stroke-width: 1.0;"/><path d="M703.249,49.1972 C633.021,52.1742 500.637,60.4832 459,81.6982 C430.555,96.1922 407.212,125.5482 393.696,145.5448 " fill="none" style="stroke: #A80036; stroke-width: 1.0; stroke-dasharray: 7.0,7.0;"/><polygon fill="#A80036" points="390.8,149.9108,399.1088,144.6228,393.5643,145.7445,392.4426,140.1999,390.8,149.9108" style="stroke: #A80036; stroke-width: 1.0;"/><path d="M774.755,64.9292 C808.714,86.7992 867.107,124.4052 902.378,147.1208 " fill="none" style="stroke: #A80036; stroke-width: 1.0; stroke-dasharray: 7.0,7.0;"/><polygon fill="#A80036" points="906.984,150.0876,901.5831,141.8517,902.7803,147.3804,897.2516,148.5776,906.984,150.0876" style="stroke: #A80036; stroke-width: 1.0;"/></g></svg>