<?xml version="1.0" encoding="UTF-8" standalone="no"?><svg xmlns="http://www.w3.org/2000/svg" xmlns:xlink="http://www.w3.org/1999/xlink" contentScriptType="application/ecmascript" contentStyleType="text/css" height="2277px" preserveAspectRatio="none" style="width:1549px;height:2277px;" version="1.1" viewBox="0 0 1549 2277" width="1549.8px" zoomAndPan="magnify"><defs><filter height="300%" id="fqs8d4g" width="300%" x="-1" y="-1"><feGaussianBlur result="blurOut" stdDeviation="1.8"/><feColorMatrix in="blurOut" result="blurOut2" type="matrix" values="0 0 0 0 0 0 0 0 0 0 0 0 0 0 0 0 0 0 .4 0"/><feOffset dx="3.6" dy="3.6" in="blurOut2" result="blurOut3"/><feBlend in="SourceGraphic" in2="blurOut3" mode="normal"/></filter></defs><g><text fill="#000000" font-family="sans-serif" font-size="12.6" font-weight="bold" lengthAdjust="spacingAndGlyphs" textLength="127.8" x="721.575" y="20.8187">Credential Exchange</text><rect fill="#ADD8E6" height="2246.186" style="stroke: #A80036; stroke-width: 0.9;" width="786.15" x="21.6" y="30.6888"/><text fill="#000000" font-family="sans-serif" font-size="11.7" font-weight="bold" lengthAdjust="spacingAndGlyphs" textLength="36.9" x="396.225" y="41.6632">Prover</text><rect fill="#ADD8E6" height="2246.186" style="stroke: #A80036; stroke-width: 0.9;" width="703.8" x="845.55" y="30.6888"/><text fill="#000000" font-family="sans-serif" font-size="11.7" font-weight="bold" lengthAdjust="spacingAndGlyphs" textLength="40.5" x="1177.2" y="41.6632">Verifier</text><line style="stroke: #A80036; stroke-width: 0.9; stroke-dasharray: 5.0,5.0;" x1="46.8" x2="46.8" y1="122.5314" y2="2199.386"/><line style="stroke: #A80036; stroke-width: 0.9; stroke-dasharray: 5.0,5.0;" x1="328.05" x2="328.05" y1="122.5314" y2="2199.386"/><line style="stroke: #A80036; stroke-width: 0.9; stroke-dasharray: 5.0,5.0;" x1="543.15" x2="543.15" y1="122.5314" y2="2199.386"/><line style="stroke: #A80036; stroke-width: 0.9; stroke-dasharray: 5.0,5.0;" x1="706.95" x2="706.95" y1="122.5314" y2="2199.386"/><line style="stroke: #A80036; stroke-width: 0.9; stroke-dasharray: 5.0,5.0;" x1="871.65" x2="871.65" y1="122.5314" y2="2199.386"/><line style="stroke: #A80036; stroke-width: 0.9; stroke-dasharray: 5.0,5.0;" x1="1077.75" x2="1077.75" y1="122.5314" y2="2199.386"/><line style="stroke: #A80036; stroke-width: 0.9; stroke-dasharray: 5.0,5.0;" x1="1284.75" x2="1284.75" y1="122.5314" y2="2199.386"/><line style="stroke: #A80036; stroke-width: 0.9; stroke-dasharray: 5.0,5.0;" x1="1448.55" x2="1448.55" y1="122.5314" y2="2199.386"/><text fill="#000000" font-family="sans-serif" font-size="12.6" lengthAdjust="spacingAndGlyphs" textLength="37.8" x="25.2" y="119.8613">Prover</text><ellipse cx="46.8" cy="56.7426" fill="#FEFECE" filter="url(#fqs8d4g)" rx="7.2" ry="7.2" style="stroke: #A80036; stroke-width: 1.8;"/><path d="M46.8,63.9426 L46.8,88.2426 M35.1,71.1426 L58.5,71.1426 M46.8,88.2426 L35.1,101.7426 M46.8,88.2426 L58.5,101.7426 " fill="#FEFECE" filter="url(#fqs8d4g)" style="stroke: #A80036; stroke-width: 1.8;"/><text fill="#000000" font-family="sans-serif" font-size="12.6" lengthAdjust="spacingAndGlyphs" textLength="37.8" x="25.2" y="2210.3046">Prover</text><ellipse cx="46.8" cy="2221.9748" fill="#FEFECE" filter="url(#fqs8d4g)" rx="7.2" ry="7.2" style="stroke: #A80036; stroke-width: 1.8;"/><path d="M46.8,2229.1748 L46.8,2253.4748 M35.1,2236.3748 L58.5,2236.3748 M46.8,2253.4748 L35.1,2266.9748 M46.8,2253.4748 L58.5,2266.9748 " fill="#FEFECE" filter="url(#fqs8d4g)" style="stroke: #A80036; stroke-width: 1.8;"/><rect fill="#FEFECE" filter="url(#fqs8d4g)" height="27.0888" style="stroke: #A80036; stroke-width: 1.35;" width="94.5" x="279.45" y="90.9426"/><text fill="#000000" font-family="sans-serif" font-size="12.6" lengthAdjust="spacingAndGlyphs" textLength="81.9" x="285.75" y="109.0613">State Machine</text><rect fill="#FEFECE" filter="url(#fqs8d4g)" height="27.0888" style="stroke: #A80036; stroke-width: 1.35;" width="94.5" x="279.45" y="2198.486"/><text fill="#000000" font-family="sans-serif" font-size="12.6" lengthAdjust="spacingAndGlyphs" textLength="81.9" x="285.75" y="2216.6046">State Machine</text><rect fill="#FEFECE" filter="url(#fqs8d4g)" height="27.0888" style="stroke: #A80036; stroke-width: 1.35;" width="76.5" x="503.55" y="90.9426"/><text fill="#000000" font-family="sans-serif" font-size="12.6" lengthAdjust="spacingAndGlyphs" textLength="63.9" x="509.85" y="109.0613">Libindy API</text><rect fill="#FEFECE" filter="url(#fqs8d4g)" height="27.0888" style="stroke: #A80036; stroke-width: 1.35;" width="76.5" x="503.55" y="2198.486"/><text fill="#000000" font-family="sans-serif" font-size="12.6" lengthAdjust="spacingAndGlyphs" textLength="63.9" x="509.85" y="2216.6046">Libindy API</text><rect fill="#FEFECE" filter="url(#fqs8d4g)" height="27.0888" style="stroke: #A80036; stroke-width: 1.35;" width="153.9" x="628.65" y="90.9426"/><text fill="#000000" font-family="sans-serif" font-size="12.6" lengthAdjust="spacingAndGlyphs" textLength="141.3" x="634.95" y="109.0613">Message Family Helpers</text><rect fill="#FEFECE" filter="url(#fqs8d4g)" height="27.0888" style="stroke: #A80036; stroke-width: 1.35;" width="153.9" x="628.65" y="2198.486"/><text fill="#000000" font-family="sans-serif" font-size="12.6" lengthAdjust="spacingAndGlyphs" textLength="141.3" x="634.95" y="2216.6046">Message Family Helpers</text><text fill="#000000" font-family="sans-serif" font-size="12.6" lengthAdjust="spacingAndGlyphs" textLength="40.5" x="849.15" y="119.8613">Verifier</text><ellipse cx="872.1" cy="56.7426" fill="#FEFECE" filter="url(#fqs8d4g)" rx="7.2" ry="7.2" style="stroke: #A80036; stroke-width: 1.8;"/><path d="M872.1,63.9426 L872.1,88.2426 M860.4,71.1426 L883.8,71.1426 M872.1,88.2426 L860.4,101.7426 M872.1,88.2426 L883.8,101.7426 " fill="#FEFECE" filter="url(#fqs8d4g)" style="stroke: #A80036; stroke-width: 1.8;"/><text fill="#000000" font-family="sans-serif" font-size="12.6" lengthAdjust="spacingAndGlyphs" textLength="40.5" x="849.15" y="2210.3046">Verifier</text><ellipse cx="872.1" cy="2221.9748" fill="#FEFECE" filter="url(#fqs8d4g)" rx="7.2" ry="7.2" style="stroke: #A80036; stroke-width: 1.8;"/><path d="M872.1,2229.1748 L872.1,2253.4748 M860.4,2236.3748 L883.8,2236.3748 M872.1,2253.4748 L860.4,2266.9748 M872.1,2253.4748 L883.8,2266.9748 " fill="#FEFECE" filter="url(#fqs8d4g)" style="stroke: #A80036; stroke-width: 1.8;"/><rect fill="#FEFECE" filter="url(#fqs8d4g)" height="27.0888" style="stroke: #A80036; stroke-width: 1.35;" width="94.5" x="1029.15" y="90.9426"/><text fill="#000000" font-family="sans-serif" font-size="12.6" lengthAdjust="spacingAndGlyphs" textLength="81.9" x="1035.45" y="109.0613">State Machine</text><rect fill="#FEFECE" filter="url(#fqs8d4g)" height="27.0888" style="stroke: #A80036; stroke-width: 1.35;" width="94.5" x="1029.15" y="2198.486"/><text fill="#000000" font-family="sans-serif" font-size="12.6" lengthAdjust="spacingAndGlyphs" textLength="81.9" x="1035.45" y="2216.6046">State Machine</text><rect fill="#FEFECE" filter="url(#fqs8d4g)" height="27.0888" style="stroke: #A80036; stroke-width: 1.35;" width="76.5" x="1245.15" y="90.9426"/><text fill="#000000" font-family="sans-serif" font-size="12.6" lengthAdjust="spacingAndGlyphs" textLength="63.9" x="1251.45" y="109.0613">Libindy API</text><rect fill="#FEFECE" filter="url(#fqs8d4g)" height="27.0888" style="stroke: #A80036; stroke-width: 1.35;" width="76.5" x="1245.15" y="2198.486"/><text fill="#000000" font-family="sans-serif" font-size="12.6" lengthAdjust="spacingAndGlyphs" textLength="63.9" x="1251.45" y="2216.6046">Libindy API</text><rect fill="#FEFECE" filter="url(#fqs8d4g)" height="27.0888" style="stroke: #A80036; stroke-width: 1.35;" width="153.9" x="1370.25" y="90.9426"/><text fill="#000000" font-family="sans-serif" font-size="12.6" lengthAdjust="spacingAndGlyphs" textLength="141.3" x="1376.55" y="109.0613">Message Family Helpers</text><rect fill="#FEFECE" filter="url(#fqs8d4g)" height="27.0888" style="stroke: #A80036; stroke-width: 1.35;" width="153.9" x="1370.25" y="2198.486"/><text fill="#000000" font-family="sans-serif" font-size="12.6" lengthAdjust="spacingAndGlyphs" textLength="141.3" x="1376.55" y="2216.6046">Message Family Helpers</text><polygon fill="#0000FF" points="1067.4,145.9314,1076.4,149.5314,1067.4,153.1314,1071,149.5314" style="stroke: #0000FF; stroke-width: 0.9;"/><line style="stroke: #0000FF; stroke-width: 0.9;" x1="872.1" x2="1072.8" y1="149.5314" y2="149.5314"/><text fill="#000000" font-family="sans-serif" font-size="11.7" font-weight="bold" lengthAdjust="spacingAndGlyphs" textLength="47.7" x="882" y="146.1059">initialize</text><line style="stroke: #0000FF; stroke-width: 0.9; stroke-dasharray: 2.0,2.0;" x1="1078.2" x2="1116" y1="176.4391" y2="176.4391"/><line style="stroke: #0000FF; stroke-width: 0.9; stroke-dasharray: 2.0,2.0;" x1="1116" x2="1116" y1="176.4391" y2="188.1391"/><line style="stroke: #0000FF; stroke-width: 0.9; stroke-dasharray: 2.0,2.0;" x1="1079.1" x2="1116" y1="188.1391" y2="188.1391"/><polygon fill="#0000FF" points="1088.1,184.5391,1079.1,188.1391,1088.1,191.7391,1084.5,188.1391" style="stroke: #0000FF; stroke-width: 0.9;"/><text fill="#000000" font-family="sans-serif" font-size="11.7" lengthAdjust="spacingAndGlyphs" textLength="29.7" x="1084.5" y="172.1597">state:</text><text fill="#000000" font-family="sans-serif" font-size="11.7" font-weight="bold" lengthAdjust="spacingAndGlyphs" textLength="54.9" x="1121.4" y="172.1597">Initialized</text><line style="stroke: #808080; stroke-width: 0.9; stroke-dasharray: 2.0,2.0;" x1="872.1" x2="909.9" y1="214.193" y2="214.193"/><line style="stroke: #808080; stroke-width: 0.9; stroke-dasharray: 2.0,2.0;" x1="909.9" x2="909.9" y1="214.193" y2="225.893"/><line style="stroke: #808080; stroke-width: 0.9; stroke-dasharray: 2.0,2.0;" x1="873" x2="909.9" y1="225.893" y2="225.893"/><polygon fill="#808080" points="882,222.293,873,225.893,882,229.493,878.4,225.893" style="stroke: #808080; stroke-width: 0.9;"/><text fill="#000000" font-family="sans-serif" font-size="11.7" lengthAdjust="spacingAndGlyphs" textLength="83.7" x="878.4" y="209.9136">application logic</text><line style="stroke: #808080; stroke-width: 0.9; stroke-dasharray: 2.0,2.0;" x1="872.1" x2="909.9" y1="251.9468" y2="251.9468"/><line style="stroke: #808080; stroke-width: 0.9; stroke-dasharray: 2.0,2.0;" x1="909.9" x2="909.9" y1="251.9468" y2="263.6468"/><line style="stroke: #808080; stroke-width: 0.9; stroke-dasharray: 2.0,2.0;" x1="873" x2="909.9" y1="263.6468" y2="263.6468"/><polygon fill="#808080" points="882,260.0468,873,263.6468,882,267.2468,878.4,263.6468" style="stroke: #808080; stroke-width: 0.9;"/><text fill="#000000" font-family="sans-serif" font-size="11.7" lengthAdjust="spacingAndGlyphs" textLength="142.2" x="878.4" y="247.6674">create presentation request</text><line style="stroke: #808080; stroke-width: 0.9; stroke-dasharray: 2.0,2.0;" x1="872.1" x2="909.9" y1="289.7007" y2="289.7007"/><line style="stroke: #808080; stroke-width: 0.9; stroke-dasharray: 2.0,2.0;" x1="909.9" x2="909.9" y1="289.7007" y2="301.4007"/><line style="stroke: #808080; stroke-width: 0.9; stroke-dasharray: 2.0,2.0;" x1="873" x2="909.9" y1="301.4007" y2="301.4007"/><polygon fill="#808080" points="882,297.8007,873,301.4007,882,305.0007,878.4,301.4007" style="stroke: #808080; stroke-width: 0.9;"/><text fill="#000000" font-family="sans-serif" font-size="11.7" lengthAdjust="spacingAndGlyphs" textLength="83.7" x="878.4" y="285.4213">application logic</text><polygon fill="#008000" points="1438.2,323.0007,1447.2,326.6007,1438.2,330.2007,1441.8,326.6007" style="stroke: #008000; stroke-width: 0.9;"/><line style="stroke: #008000; stroke-width: 0.9;" x1="872.1" x2="1443.6" y1="326.6007" y2="326.6007"/><text fill="#000000" font-family="sans-serif" font-size="11.7" font-weight="bold" lengthAdjust="spacingAndGlyphs" textLength="213.3" x="882" y="323.1751">prepare presentation request message</text><polygon fill="#0000FF" points="1088.1,349.0545,1079.1,352.6545,1088.1,356.2545,1084.5,352.6545" style="stroke: #0000FF; stroke-width: 0.9;"/><line style="stroke: #0000FF; stroke-width: 0.9;" x1="1082.7" x2="1448.1" y1="352.6545" y2="352.6545"/><text fill="#000000" font-family="sans-serif" font-size="11.7" font-weight="bold" lengthAdjust="spacingAndGlyphs" textLength="231.3" x="1097.1" y="349.229">do step for presentation request message</text><line style="stroke: #0000FF; stroke-width: 0.9; stroke-dasharray: 2.0,2.0;" x1="1078.2" x2="1116" y1="379.5623" y2="379.5623"/><line style="stroke: #0000FF; stroke-width: 0.9; stroke-dasharray: 2.0,2.0;" x1="1116" x2="1116" y1="379.5623" y2="391.2623"/><line style="stroke: #0000FF; stroke-width: 0.9; stroke-dasharray: 2.0,2.0;" x1="1079.1" x2="1116" y1="391.2623" y2="391.2623"/><polygon fill="#0000FF" points="1088.1,387.6623,1079.1,391.2623,1088.1,394.8623,1084.5,391.2623" style="stroke: #0000FF; stroke-width: 0.9;"/><text fill="#000000" font-family="sans-serif" font-size="11.7" lengthAdjust="spacingAndGlyphs" textLength="29.7" x="1084.5" y="375.2829">state:</text><text fill="#000000" font-family="sans-serif" font-size="11.7" font-weight="bold" lengthAdjust="spacingAndGlyphs" textLength="157.5" x="1121.4" y="375.2829">PresentationRequestCreated</text><polygon fill="#0000FF" points="882,412.8623,873,416.4623,882,420.0623,878.4,416.4623" style="stroke: #0000FF; stroke-width: 0.9;"/><line style="stroke: #0000FF; stroke-width: 0.9; stroke-dasharray: 2.0,2.0;" x1="876.6" x2="1077.3" y1="416.4623" y2="416.4623"/><text fill="#000000" font-family="sans-serif" font-size="11.7" lengthAdjust="spacingAndGlyphs" textLength="157.5" x="887.4" y="413.0367">presentation request message</text><line style="stroke: #808080; stroke-width: 0.9; stroke-dasharray: 2.0,2.0;" x1="872.1" x2="909.9" y1="443.37" y2="443.37"/><line style="stroke: #808080; stroke-width: 0.9; stroke-dasharray: 2.0,2.0;" x1="909.9" x2="909.9" y1="443.37" y2="455.07"/><line style="stroke: #808080; stroke-width: 0.9; stroke-dasharray: 2.0,2.0;" x1="873" x2="909.9" y1="455.07" y2="455.07"/><polygon fill="#808080" points="882,451.47,873,455.07,882,458.67,878.4,455.07" style="stroke: #808080; stroke-width: 0.9;"/><text fill="#000000" font-family="sans-serif" font-size="11.7" lengthAdjust="spacingAndGlyphs" textLength="83.7" x="878.4" y="439.0906">application logic</text><polygon fill="#008000" points="56.7,476.67,47.7,480.27,56.7,483.87,53.1,480.27" style="stroke: #008000; stroke-width: 0.9;"/><line style="stroke: #008000; stroke-width: 0.9;" x1="51.3" x2="871.2" y1="480.27" y2="480.27"/><text fill="#000000" font-family="sans-serif" font-size="11.7" font-weight="bold" lengthAdjust="spacingAndGlyphs" textLength="198" x="65.7" y="476.8444">send presentation request message</text><line style="stroke: #808080; stroke-width: 0.9; stroke-dasharray: 2.0,2.0;" x1="872.1" x2="909.9" y1="507.1777" y2="507.1777"/><line style="stroke: #808080; stroke-width: 0.9; stroke-dasharray: 2.0,2.0;" x1="909.9" x2="909.9" y1="507.1777" y2="518.8777"/><line style="stroke: #808080; stroke-width: 0.9; stroke-dasharray: 2.0,2.0;" x1="873" x2="909.9" y1="518.8777" y2="518.8777"/><polygon fill="#808080" points="882,515.2777,873,518.8777,882,522.4777,878.4,518.8777" style="stroke: #808080; stroke-width: 0.9;"/><text fill="#000000" font-family="sans-serif" font-size="11.7" lengthAdjust="spacingAndGlyphs" textLength="83.7" x="878.4" y="502.8983">application logic</text><polygon fill="#0000FF" points="317.7,540.4777,326.7,544.0777,317.7,547.6777,321.3,544.0777" style="stroke: #0000FF; stroke-width: 0.9;"/><line style="stroke: #0000FF; stroke-width: 0.9;" x1="46.8" x2="323.1" y1="544.0777" y2="544.0777"/><text fill="#000000" font-family="sans-serif" font-size="11.7" font-weight="bold" lengthAdjust="spacingAndGlyphs" textLength="47.7" x="56.7" y="540.6521">initialize</text><line style="stroke: #0000FF; stroke-width: 0.9; stroke-dasharray: 2.0,2.0;" x1="328.5" x2="366.3" y1="570.9854" y2="570.9854"/><line style="stroke: #0000FF; stroke-width: 0.9; stroke-dasharray: 2.0,2.0;" x1="366.3" x2="366.3" y1="570.9854" y2="582.6854"/><line style="stroke: #0000FF; stroke-width: 0.9; stroke-dasharray: 2.0,2.0;" x1="329.4" x2="366.3" y1="582.6854" y2="582.6854"/><polygon fill="#0000FF" points="338.4,579.0854,329.4,582.6854,338.4,586.2854,334.8,582.6854" style="stroke: #0000FF; stroke-width: 0.9;"/><text fill="#000000" font-family="sans-serif" font-size="11.7" lengthAdjust="spacingAndGlyphs" textLength="29.7" x="334.8" y="566.706">state:</text><text fill="#000000" font-family="sans-serif" font-size="11.7" font-weight="bold" lengthAdjust="spacingAndGlyphs" textLength="54.9" x="371.7" y="566.706">Initialized</text><polygon fill="#008000" points="696.6,604.2854,705.6,607.8854,696.6,611.4854,700.2,607.8854" style="stroke: #008000; stroke-width: 0.9;"/><line style="stroke: #008000; stroke-width: 0.9;" x1="46.8" x2="702" y1="607.8854" y2="607.8854"/><text fill="#000000" font-family="sans-serif" font-size="11.7" font-weight="bold" lengthAdjust="spacingAndGlyphs" textLength="83.7" x="56.7" y="604.4599">parse message</text><polygon fill="#008000" points="56.7,630.3393,47.7,633.9393,56.7,637.5393,53.1,633.9393" style="stroke: #008000; stroke-width: 0.9;"/><line style="stroke: #008000; stroke-width: 0.9; stroke-dasharray: 2.0,2.0;" x1="51.3" x2="706.5" y1="633.9393" y2="633.9393"/><text fill="#000000" font-family="sans-serif" font-size="11.7" lengthAdjust="spacingAndGlyphs" textLength="106.2" x="62.1" y="630.5137">presentation request</text><line style="stroke: #808080; stroke-width: 0.9; stroke-dasharray: 2.0,2.0;" x1="46.8" x2="84.6" y1="660.847" y2="660.847"/><line style="stroke: #808080; stroke-width: 0.9; stroke-dasharray: 2.0,2.0;" x1="84.6" x2="84.6" y1="660.847" y2="672.547"/><line style="stroke: #808080; stroke-width: 0.9; stroke-dasharray: 2.0,2.0;" x1="47.7" x2="84.6" y1="672.547" y2="672.547"/><polygon fill="#808080" points="56.7,668.947,47.7,672.547,56.7,676.147,53.1,672.547" style="stroke: #808080; stroke-width: 0.9;"/><text fill="#000000" font-family="sans-serif" font-size="11.7" lengthAdjust="spacingAndGlyphs" textLength="83.7" x="53.1" y="656.5676">application logic</text><polygon fill="#0000FF" points="317.7,694.147,326.7,697.747,317.7,701.347,321.3,697.747" style="stroke: #0000FF; stroke-width: 0.9;"/><line style="stroke: #0000FF; stroke-width: 0.9;" x1="46.8" x2="323.1" y1="697.747" y2="697.747"/><text fill="#000000" font-family="sans-serif" font-size="11.7" font-weight="bold" lengthAdjust="spacingAndGlyphs" textLength="225.9" x="56.7" y="694.3214">check transition for presentation request</text><polygon fill="#0000FF" points="56.7,720.2008,47.7,723.8008,56.7,727.4008,53.1,723.8008" style="stroke: #0000FF; stroke-width: 0.9;"/><line style="stroke: #0000FF; stroke-width: 0.9; stroke-dasharray: 2.0,2.0;" x1="51.3" x2="327.6" y1="723.8008" y2="723.8008"/><text fill="#000000" font-family="sans-serif" font-size="11.7" lengthAdjust="spacingAndGlyphs" textLength="126" x="62.1" y="720.3753">is_transition_acceptable</text><polygon fill="#0000FF" points="317.7,746.2547,326.7,749.8547,317.7,753.4547,321.3,749.8547" style="stroke: #0000FF; stroke-width: 0.9;"/><line style="stroke: #0000FF; stroke-width: 0.9;" x1="46.8" x2="323.1" y1="749.8547" y2="749.8547"/><text fill="#000000" font-family="sans-serif" font-size="11.7" font-weight="bold" lengthAdjust="spacingAndGlyphs" textLength="178.2" x="56.7" y="746.4292">do step for presentation request</text><line style="stroke: #0000FF; stroke-width: 0.9; stroke-dasharray: 2.0,2.0;" x1="328.5" x2="366.3" y1="776.7624" y2="776.7624"/><line style="stroke: #0000FF; stroke-width: 0.9; stroke-dasharray: 2.0,2.0;" x1="366.3" x2="366.3" y1="776.7624" y2="788.4624"/><line style="stroke: #0000FF; stroke-width: 0.9; stroke-dasharray: 2.0,2.0;" x1="329.4" x2="366.3" y1="788.4624" y2="788.4624"/><polygon fill="#0000FF" points="338.4,784.8624,329.4,788.4624,338.4,792.0624,334.8,788.4624" style="stroke: #0000FF; stroke-width: 0.9;"/><text fill="#000000" font-family="sans-serif" font-size="11.7" lengthAdjust="spacingAndGlyphs" textLength="29.7" x="334.8" y="772.483">state:</text><text fill="#000000" font-family="sans-serif" font-size="11.7" font-weight="bold" lengthAdjust="spacingAndGlyphs" textLength="165.6" x="371.7" y="772.483">PresentationRequestReceived</text><polygon fill="#A80036" points="532.8,810.0624,541.8,813.6624,532.8,817.2624,536.4,813.6624" style="stroke: #A80036; stroke-width: 0.9;"/><line style="stroke: #A80036; stroke-width: 0.9;" x1="46.8" x2="538.2" y1="813.6624" y2="813.6624"/><text fill="#000000" font-family="sans-serif" font-size="11.7" font-weight="bold" lengthAdjust="spacingAndGlyphs" textLength="259.2" x="56.7" y="810.2369">indy_prover_search_credentials_for_proof_req</text><polygon fill="#A80036" points="56.7,836.1163,47.7,839.7163,56.7,843.3163,53.1,839.7163" style="stroke: #A80036; stroke-width: 0.9;"/><line style="stroke: #A80036; stroke-width: 0.9; stroke-dasharray: 2.0,2.0;" x1="51.3" x2="542.7" y1="839.7163" y2="839.7163"/><text fill="#000000" font-family="sans-serif" font-size="11.7" lengthAdjust="spacingAndGlyphs" textLength="220.5" x="62.1" y="836.2907">libindy credentials for presentation request</text><line style="stroke: #808080; stroke-width: 0.9; stroke-dasharray: 2.0,2.0;" x1="46.8" x2="84.6" y1="866.624" y2="866.624"/><line style="stroke: #808080; stroke-width: 0.9; stroke-dasharray: 2.0,2.0;" x1="84.6" x2="84.6" y1="866.624" y2="878.324"/><line style="stroke: #808080; stroke-width: 0.9; stroke-dasharray: 2.0,2.0;" x1="47.7" x2="84.6" y1="878.324" y2="878.324"/><polygon fill="#808080" points="56.7,874.724,47.7,878.324,56.7,881.924,53.1,878.324" style="stroke: #808080; stroke-width: 0.9;"/><text fill="#000000" font-family="sans-serif" font-size="11.7" lengthAdjust="spacingAndGlyphs" textLength="83.7" x="53.1" y="862.3446">application logic</text><polygon fill="#A80036" points="532.8,899.924,541.8,903.524,532.8,907.124,536.4,903.524" style="stroke: #A80036; stroke-width: 0.9;"/><line style="stroke: #A80036; stroke-width: 0.9;" x1="46.8" x2="538.2" y1="903.524" y2="903.524"/><text fill="#000000" font-family="sans-serif" font-size="11.7" font-weight="bold" lengthAdjust="spacingAndGlyphs" textLength="142.2" x="56.7" y="900.0984">indy_prover_create_proof</text><polygon fill="#A80036" points="56.7,925.9778,47.7,929.5778,56.7,933.1778,53.1,929.5778" style="stroke: #A80036; stroke-width: 0.9;"/><line style="stroke: #A80036; stroke-width: 0.9; stroke-dasharray: 2.0,2.0;" x1="51.3" x2="542.7" y1="929.5778" y2="929.5778"/><text fill="#000000" font-family="sans-serif" font-size="11.7" lengthAdjust="spacingAndGlyphs" textLength="63" x="62.1" y="926.1523">libindy proof</text><line style="stroke: #808080; stroke-width: 0.9; stroke-dasharray: 2.0,2.0;" x1="46.8" x2="84.6" y1="956.4855" y2="956.4855"/><line style="stroke: #808080; stroke-width: 0.9; stroke-dasharray: 2.0,2.0;" x1="84.6" x2="84.6" y1="956.4855" y2="968.1855"/><line style="stroke: #808080; stroke-width: 0.9; stroke-dasharray: 2.0,2.0;" x1="47.7" x2="84.6" y1="968.1855" y2="968.1855"/><polygon fill="#808080" points="56.7,964.5855,47.7,968.1855,56.7,971.7855,53.1,968.1855" style="stroke: #808080; stroke-width: 0.9;"/><text fill="#000000" font-family="sans-serif" font-size="11.7" lengthAdjust="spacingAndGlyphs" textLength="83.7" x="53.1" y="952.2062">application logic</text><polygon fill="#008000" points="696.6,989.7855,705.6,993.3855,696.6,996.9855,700.2,993.3855" style="stroke: #008000; stroke-width: 0.9;"/><line style="stroke: #008000; stroke-width: 0.9;" x1="46.8" x2="702" y1="993.3855" y2="993.3855"/><text fill="#000000" font-family="sans-serif" font-size="11.7" font-weight="bold" lengthAdjust="spacingAndGlyphs" textLength="168.3" x="56.7" y="989.96">prepare presentation message</text><polygon fill="#0000FF" points="338.4,1015.8394,329.4,1019.4394,338.4,1023.0394,334.8,1019.4394" style="stroke: #0000FF; stroke-width: 0.9;"/><line style="stroke: #0000FF; stroke-width: 0.9;" x1="333" x2="706.5" y1="1019.4394" y2="1019.4394"/><text fill="#000000" font-family="sans-serif" font-size="11.7" font-weight="bold" lengthAdjust="spacingAndGlyphs" textLength="186.3" x="347.4" y="1016.0139">do step for presentation message</text><line style="stroke: #0000FF; stroke-width: 0.9; stroke-dasharray: 2.0,2.0;" x1="328.5" x2="366.3" y1="1046.3471" y2="1046.3471"/><line style="stroke: #0000FF; stroke-width: 0.9; stroke-dasharray: 2.0,2.0;" x1="366.3" x2="366.3" y1="1046.3471" y2="1058.0471"/><line style="stroke: #0000FF; stroke-width: 0.9; stroke-dasharray: 2.0,2.0;" x1="329.4" x2="366.3" y1="1058.0471" y2="1058.0471"/><polygon fill="#0000FF" points="338.4,1054.4471,329.4,1058.0471,338.4,1061.6471,334.8,1058.0471" style="stroke: #0000FF; stroke-width: 0.9;"/><text fill="#000000" font-family="sans-serif" font-size="11.7" lengthAdjust="spacingAndGlyphs" textLength="29.7" x="334.8" y="1042.0677">state:</text><text fill="#000000" font-family="sans-serif" font-size="11.7" font-weight="bold" lengthAdjust="spacingAndGlyphs" textLength="112.5" x="371.7" y="1042.0677">PresentationCreated</text><polygon fill="#0000FF" points="56.7,1079.6471,47.7,1083.2471,56.7,1086.8471,53.1,1083.2471" style="stroke: #0000FF; stroke-width: 0.9;"/><line style="stroke: #0000FF; stroke-width: 0.9; stroke-dasharray: 2.0,2.0;" x1="51.3" x2="327.6" y1="1083.2471" y2="1083.2471"/><text fill="#000000" font-family="sans-serif" font-size="11.7" lengthAdjust="spacingAndGlyphs" textLength="115.2" x="62.1" y="1079.8216">presentation message</text><line style="stroke: #808080; stroke-width: 0.9; stroke-dasharray: 2.0,2.0;" x1="46.8" x2="84.6" y1="1110.1548" y2="1110.1548"/><line style="stroke: #808080; stroke-width: 0.9; stroke-dasharray: 2.0,2.0;" x1="84.6" x2="84.6" y1="1110.1548" y2="1121.8548"/><line style="stroke: #808080; stroke-width: 0.9; stroke-dasharray: 2.0,2.0;" x1="47.7" x2="84.6" y1="1121.8548" y2="1121.8548"/><polygon fill="#808080" points="56.7,1118.2548,47.7,1121.8548,56.7,1125.4548,53.1,1121.8548" style="stroke: #808080; stroke-width: 0.9;"/><text fill="#000000" font-family="sans-serif" font-size="11.7" lengthAdjust="spacingAndGlyphs" textLength="83.7" x="53.1" y="1105.8754">application logic</text><polygon fill="#008000" points="861.3,1143.4548,870.3,1147.0548,861.3,1150.6548,864.9,1147.0548" style="stroke: #008000; stroke-width: 0.9;"/><line style="stroke: #008000; stroke-width: 0.9;" x1="46.8" x2="866.7" y1="1147.0548" y2="1147.0548"/><text fill="#000000" font-family="sans-serif" font-size="11.7" font-weight="bold" lengthAdjust="spacingAndGlyphs" textLength="153" x="56.7" y="1143.6293">send presentation message</text><line style="stroke: #808080; stroke-width: 0.9; stroke-dasharray: 2.0,2.0;" x1="46.8" x2="84.6" y1="1173.9625" y2="1173.9625"/><line style="stroke: #808080; stroke-width: 0.9; stroke-dasharray: 2.0,2.0;" x1="84.6" x2="84.6" y1="1173.9625" y2="1185.6625"/><line style="stroke: #808080; stroke-width: 0.9; stroke-dasharray: 2.0,2.0;" x1="47.7" x2="84.6" y1="1185.6625" y2="1185.6625"/><polygon fill="#808080" points="56.7,1182.0625,47.7,1185.6625,56.7,1189.2625,53.1,1185.6625" style="stroke: #808080; stroke-width: 0.9;"/><text fill="#000000" font-family="sans-serif" font-size="11.7" lengthAdjust="spacingAndGlyphs" textLength="83.7" x="53.1" y="1169.6832">application logic</text><polygon fill="#008000" points="1438.2,1207.2625,1447.2,1210.8625,1438.2,1214.4625,1441.8,1210.8625" style="stroke: #008000; stroke-width: 0.9;"/><line style="stroke: #008000; stroke-width: 0.9;" x1="872.1" x2="1443.6" y1="1210.8625" y2="1210.8625"/><text fill="#000000" font-family="sans-serif" font-size="11.7" font-weight="bold" lengthAdjust="spacingAndGlyphs" textLength="83.7" x="882" y="1207.437">parse message</text><polygon fill="#008000" points="882,1233.3164,873,1236.9164,882,1240.5164,878.4,1236.9164" style="stroke: #008000; stroke-width: 0.9;"/><line style="stroke: #008000; stroke-width: 0.9; stroke-dasharray: 2.0,2.0;" x1="876.6" x2="1448.1" y1="1236.9164" y2="1236.9164"/><text fill="#000000" font-family="sans-serif" font-size="11.7" lengthAdjust="spacingAndGlyphs" textLength="63.9" x="887.4" y="1233.4909">presentation</text><line style="stroke: #808080; stroke-width: 0.9; stroke-dasharray: 2.0,2.0;" x1="872.1" x2="909.9" y1="1263.8241" y2="1263.8241"/><line style="stroke: #808080; stroke-width: 0.9; stroke-dasharray: 2.0,2.0;" x1="909.9" x2="909.9" y1="1263.8241" y2="1275.5241"/><line style="stroke: #808080; stroke-width: 0.9; stroke-dasharray: 2.0,2.0;" x1="873" x2="909.9" y1="1275.5241" y2="1275.5241"/><polygon fill="#808080" points="882,1271.9241,873,1275.5241,882,1279.1241,878.4,1275.5241" style="stroke: #808080; stroke-width: 0.9;"/><text fill="#000000" font-family="sans-serif" font-size="11.7" lengthAdjust="spacingAndGlyphs" textLength="83.7" x="878.4" y="1259.5447">application logic</text><polygon fill="#0000FF" points="1067.4,1297.1241,1076.4,1300.7241,1067.4,1304.3241,1071,1300.7241" style="stroke: #0000FF; stroke-width: 0.9;"/><line style="stroke: #0000FF; stroke-width: 0.9;" x1="872.1" x2="1072.8" y1="1300.7241" y2="1300.7241"/><text fill="#000000" font-family="sans-serif" font-size="11.7" font-weight="bold" lengthAdjust="spacingAndGlyphs" textLength="180.9" x="882" y="1297.2986">check transition for presentation</text><polygon fill="#0000FF" points="882,1323.178,873,1326.778,882,1330.378,878.4,1326.778" style="stroke: #0000FF; stroke-width: 0.9;"/><line style="stroke: #0000FF; stroke-width: 0.9; stroke-dasharray: 2.0,2.0;" x1="876.6" x2="1077.3" y1="1326.778" y2="1326.778"/><text fill="#000000" font-family="sans-serif" font-size="11.7" lengthAdjust="spacingAndGlyphs" textLength="126" x="887.4" y="1323.3524">is_transition_acceptable</text><polygon fill="#0000FF" points="1067.4,1349.2318,1076.4,1352.8318,1067.4,1356.4318,1071,1352.8318" style="stroke: #0000FF; stroke-width: 0.9;"/><line style="stroke: #0000FF; stroke-width: 0.9;" x1="872.1" x2="1072.8" y1="1352.8318" y2="1352.8318"/><text fill="#000000" font-family="sans-serif" font-size="11.7" font-weight="bold" lengthAdjust="spacingAndGlyphs" textLength="133.2" x="882" y="1349.4063">do step for presentation</text><line style="stroke: #0000FF; stroke-width: 0.9; stroke-dasharray: 2.0,2.0;" x1="1078.2" x2="1116" y1="1379.7396" y2="1379.7396"/><line style="stroke: #0000FF; stroke-width: 0.9; stroke-dasharray: 2.0,2.0;" x1="1116" x2="1116" y1="1379.7396" y2="1391.4396"/><line style="stroke: #0000FF; stroke-width: 0.9; stroke-dasharray: 2.0,2.0;" x1="1079.1" x2="1116" y1="1391.4396" y2="1391.4396"/><polygon fill="#0000FF" points="1088.1,1387.8396,1079.1,1391.4396,1088.1,1395.0396,1084.5,1391.4396" style="stroke: #0000FF; stroke-width: 0.9;"/><text fill="#000000" font-family="sans-serif" font-size="11.7" lengthAdjust="spacingAndGlyphs" textLength="29.7" x="1084.5" y="1375.4602">state:</text><text fill="#000000" font-family="sans-serif" font-size="11.7" font-weight="bold" lengthAdjust="spacingAndGlyphs" textLength="120.6" x="1121.4" y="1375.4602">PresentationReceived</text><line style="stroke: #808080; stroke-width: 0.9; stroke-dasharray: 2.0,2.0;" x1="872.1" x2="909.9" y1="1417.4934" y2="1417.4934"/><line style="stroke: #808080; stroke-width: 0.9; stroke-dasharray: 2.0,2.0;" x1="909.9" x2="909.9" y1="1417.4934" y2="1429.1934"/><line style="stroke: #808080; stroke-width: 0.9; stroke-dasharray: 2.0,2.0;" x1="873" x2="909.9" y1="1429.1934" y2="1429.1934"/><polygon fill="#808080" points="882,1425.5934,873,1429.1934,882,1432.7934,878.4,1429.1934" style="stroke: #808080; stroke-width: 0.9;"/><text fill="#000000" font-family="sans-serif" font-size="11.7" lengthAdjust="spacingAndGlyphs" textLength="83.7" x="878.4" y="1413.214">application logic</text><polygon fill="#A80036" points="1274.4,1450.7934,1283.4,1454.3934,1274.4,1457.9934,1278,1454.3934" style="stroke: #A80036; stroke-width: 0.9;"/><line style="stroke: #A80036; stroke-width: 0.9;" x1="872.1" x2="1279.8" y1="1454.3934" y2="1454.3934"/><text fill="#000000" font-family="sans-serif" font-size="11.7" font-weight="bold" lengthAdjust="spacingAndGlyphs" textLength="142.2" x="882" y="1450.9679">indy_verifier_verify_proof</text><polygon fill="#A80036" points="882,1476.8473,873,1480.4473,882,1484.0473,878.4,1480.4473" style="stroke: #A80036; stroke-width: 0.9;"/><line style="stroke: #A80036; stroke-width: 0.9; stroke-dasharray: 2.0,2.0;" x1="876.6" x2="1284.3" y1="1480.4473" y2="1480.4473"/><text fill="#000000" font-family="sans-serif" font-size="11.7" lengthAdjust="spacingAndGlyphs" textLength="73.8" x="887.4" y="1477.0217">libindy validity</text><line style="stroke: #808080; stroke-width: 0.9; stroke-dasharray: 2.0,2.0;" x1="872.1" x2="909.9" y1="1507.355" y2="1507.355"/><line style="stroke: #808080; stroke-width: 0.9; stroke-dasharray: 2.0,2.0;" x1="909.9" x2="909.9" y1="1507.355" y2="1519.055"/><line style="stroke: #808080; stroke-width: 0.9; stroke-dasharray: 2.0,2.0;" x1="873" x2="909.9" y1="1519.055" y2="1519.055"/><polygon fill="#808080" points="882,1515.455,873,1519.055,882,1522.655,878.4,1519.055" style="stroke: #808080; stroke-width: 0.9;"/><text fill="#000000" font-family="sans-serif" font-size="11.7" lengthAdjust="spacingAndGlyphs" textLength="83.7" x="878.4" y="1503.0756">application logic</text><polygon fill="#008000" points="1438.2,1540.655,1447.2,1544.255,1438.2,1547.855,1441.8,1544.255" style="stroke: #008000; stroke-width: 0.9;"/><line style="stroke: #008000; stroke-width: 0.9;" x1="872.1" x2="1443.6" y1="1544.255" y2="1544.255"/><text fill="#000000" font-family="sans-serif" font-size="11.7" font-weight="bold" lengthAdjust="spacingAndGlyphs" textLength="190.8" x="882" y="1540.8294">prepare presentation ack message</text><polygon fill="#0000FF" points="1088.1,1566.7088,1079.1,1570.3088,1088.1,1573.9088,1084.5,1570.3088" style="stroke: #0000FF; stroke-width: 0.9;"/><line style="stroke: #0000FF; stroke-width: 0.9;" x1="1082.7" x2="1448.1" y1="1570.3088" y2="1570.3088"/><text fill="#000000" font-family="sans-serif" font-size="11.7" font-weight="bold" lengthAdjust="spacingAndGlyphs" textLength="208.8" x="1097.1" y="1566.8833">do step for presentation ack message</text><line style="stroke: #0000FF; stroke-width: 0.9; stroke-dasharray: 2.0,2.0;" x1="1078.2" x2="1116" y1="1597.2166" y2="1597.2166"/><line style="stroke: #0000FF; stroke-width: 0.9; stroke-dasharray: 2.0,2.0;" x1="1116" x2="1116" y1="1597.2166" y2="1608.9166"/><line style="stroke: #0000FF; stroke-width: 0.9; stroke-dasharray: 2.0,2.0;" x1="1079.1" x2="1116" y1="1608.9166" y2="1608.9166"/><polygon fill="#0000FF" points="1088.1,1605.3166,1079.1,1608.9166,1088.1,1612.5166,1084.5,1608.9166" style="stroke: #0000FF; stroke-width: 0.9;"/><text fill="#000000" font-family="sans-serif" font-size="11.7" lengthAdjust="spacingAndGlyphs" textLength="29.7" x="1084.5" y="1592.9372">state:</text><text fill="#000000" font-family="sans-serif" font-size="11.7" font-weight="bold" lengthAdjust="spacingAndGlyphs" textLength="133.2" x="1121.4" y="1592.9372">PresentationAckCreated</text><polygon fill="#0000FF" points="882,1630.5166,873,1634.1166,882,1637.7166,878.4,1634.1166" style="stroke: #0000FF; stroke-width: 0.9;"/><line style="stroke: #0000FF; stroke-width: 0.9; stroke-dasharray: 2.0,2.0;" x1="876.6" x2="1077.3" y1="1634.1166" y2="1634.1166"/><text fill="#000000" font-family="sans-serif" font-size="11.7" lengthAdjust="spacingAndGlyphs" textLength="137.7" x="887.4" y="1630.691">presentation ack message</text><line style="stroke: #808080; stroke-width: 0.9; stroke-dasharray: 2.0,2.0;" x1="872.1" x2="909.9" y1="1661.0243" y2="1661.0243"/><line style="stroke: #808080; stroke-width: 0.9; stroke-dasharray: 2.0,2.0;" x1="909.9" x2="909.9" y1="1661.0243" y2="1672.7243"/><line style="stroke: #808080; stroke-width: 0.9; stroke-dasharray: 2.0,2.0;" x1="873" x2="909.9" y1="1672.7243" y2="1672.7243"/><polygon fill="#808080" points="882,1669.1243,873,1672.7243,882,1676.3243,878.4,1672.7243" style="stroke: #808080; stroke-width: 0.9;"/><text fill="#000000" font-family="sans-serif" font-size="11.7" lengthAdjust="spacingAndGlyphs" textLength="83.7" x="878.4" y="1656.7449">application logic</text><polygon fill="#008000" points="56.7,1694.3243,47.7,1697.9243,56.7,1701.5243,53.1,1697.9243" style="stroke: #008000; stroke-width: 0.9;"/><line style="stroke: #008000; stroke-width: 0.9;" x1="51.3" x2="871.2" y1="1697.9243" y2="1697.9243"/><text fill="#000000" font-family="sans-serif" font-size="11.7" font-weight="bold" lengthAdjust="spacingAndGlyphs" textLength="175.5" x="65.7" y="1694.4987">send presentation ack message</text><line style="stroke: #808080; stroke-width: 0.9; stroke-dasharray: 2.0,2.0;" x1="872.1" x2="909.9" y1="1724.832" y2="1724.832"/><line style="stroke: #808080; stroke-width: 0.9; stroke-dasharray: 2.0,2.0;" x1="909.9" x2="909.9" y1="1724.832" y2="1736.532"/><line style="stroke: #808080; stroke-width: 0.9; stroke-dasharray: 2.0,2.0;" x1="873" x2="909.9" y1="1736.532" y2="1736.532"/><polygon fill="#808080" points="882,1732.932,873,1736.532,882,1740.132,878.4,1736.532" style="stroke: #808080; stroke-width: 0.9;"/><text fill="#000000" font-family="sans-serif" font-size="11.7" lengthAdjust="spacingAndGlyphs" textLength="83.7" x="878.4" y="1720.5526">application logic</text><polygon fill="#0000FF" points="1067.4,1758.132,1076.4,1761.732,1067.4,1765.332,1071,1761.732" style="stroke: #0000FF; stroke-width: 0.9;"/><line style="stroke: #0000FF; stroke-width: 0.9;" x1="872.1" x2="1072.8" y1="1761.732" y2="1761.732"/><text fill="#000000" font-family="sans-serif" font-size="11.7" font-weight="bold" lengthAdjust="spacingAndGlyphs" textLength="41.4" x="882" y="1758.3064">do step</text><line style="stroke: #0000FF; stroke-width: 0.9; stroke-dasharray: 2.0,2.0;" x1="1078.2" x2="1116" y1="1788.6397" y2="1788.6397"/><line style="stroke: #0000FF; stroke-width: 0.9; stroke-dasharray: 2.0,2.0;" x1="1116" x2="1116" y1="1788.6397" y2="1800.3397"/><line style="stroke: #0000FF; stroke-width: 0.9; stroke-dasharray: 2.0,2.0;" x1="1079.1" x2="1116" y1="1800.3397" y2="1800.3397"/><polygon fill="#0000FF" points="1088.1,1796.7397,1079.1,1800.3397,1088.1,1803.9397,1084.5,1800.3397" style="stroke: #0000FF; stroke-width: 0.9;"/><text fill="#000000" font-family="sans-serif" font-size="11.7" lengthAdjust="spacingAndGlyphs" textLength="29.7" x="1084.5" y="1784.3603">state:</text><text fill="#000000" font-family="sans-serif" font-size="11.7" font-weight="bold" lengthAdjust="spacingAndGlyphs" textLength="48.6" x="1121.4" y="1784.3603">Finished</text><line style="stroke: #808080; stroke-width: 0.9; stroke-dasharray: 2.0,2.0;" x1="872.1" x2="909.9" y1="1826.3936" y2="1826.3936"/><line style="stroke: #808080; stroke-width: 0.9; stroke-dasharray: 2.0,2.0;" x1="909.9" x2="909.9" y1="1826.3936" y2="1838.0936"/><line style="stroke: #808080; stroke-width: 0.9; stroke-dasharray: 2.0,2.0;" x1="873" x2="909.9" y1="1838.0936" y2="1838.0936"/><polygon fill="#808080" points="882,1834.4936,873,1838.0936,882,1841.6936,878.4,1838.0936" style="stroke: #808080; stroke-width: 0.9;"/><text fill="#000000" font-family="sans-serif" font-size="11.7" lengthAdjust="spacingAndGlyphs" textLength="83.7" x="878.4" y="1822.1142">application logic</text><polygon fill="#008000" points="696.6,1859.6936,705.6,1863.2936,696.6,1866.8936,700.2,1863.2936" style="stroke: #008000; stroke-width: 0.9;"/><line style="stroke: #008000; stroke-width: 0.9;" x1="46.8" x2="702" y1="1863.2936" y2="1863.2936"/><text fill="#000000" font-family="sans-serif" font-size="11.7" font-weight="bold" lengthAdjust="spacingAndGlyphs" textLength="83.7" x="56.7" y="1859.868">parse message</text><polygon fill="#008000" points="56.7,1885.7474,47.7,1889.3474,56.7,1892.9474,53.1,1889.3474" style="stroke: #008000; stroke-width: 0.9;"/><line style="stroke: #008000; stroke-width: 0.9; stroke-dasharray: 2.0,2.0;" x1="51.3" x2="706.5" y1="1889.3474" y2="1889.3474"/><text fill="#000000" font-family="sans-serif" font-size="11.7" lengthAdjust="spacingAndGlyphs" textLength="137.7" x="62.1" y="1885.9219">presentation ack message</text><line style="stroke: #808080; stroke-width: 0.9; stroke-dasharray: 2.0,2.0;" x1="46.8" x2="84.6" y1="1916.2551" y2="1916.2551"/><line style="stroke: #808080; stroke-width: 0.9; stroke-dasharray: 2.0,2.0;" x1="84.6" x2="84.6" y1="1916.2551" y2="1927.9551"/><line style="stroke: #808080; stroke-width: 0.9; stroke-dasharray: 2.0,2.0;" x1="47.7" x2="84.6" y1="1927.9551" y2="1927.9551"/><polygon fill="#808080" points="56.7,1924.3551,47.7,1927.9551,56.7,1931.5551,53.1,1927.9551" style="stroke: #808080; stroke-width: 0.9;"/><text fill="#000000" font-family="sans-serif" font-size="11.7" lengthAdjust="spacingAndGlyphs" textLength="83.7" x="53.1" y="1911.9757">application logic</text><polygon fill="#0000FF" points="317.7,1949.5551,326.7,1953.1551,317.7,1956.7551,321.3,1953.1551" style="stroke: #0000FF; stroke-width: 0.9;"/><line style="stroke: #0000FF; stroke-width: 0.9;" x1="46.8" x2="323.1" y1="1953.1551" y2="1953.1551"/><text fill="#000000" font-family="sans-serif" font-size="11.7" font-weight="bold" lengthAdjust="spacingAndGlyphs" textLength="256.5" x="56.7" y="1949.7296">check transition for presentation ack message</text><polygon fill="#0000FF" points="56.7,1975.609,47.7,1979.209,56.7,1982.809,53.1,1979.209" style="stroke: #0000FF; stroke-width: 0.9;"/><line style="stroke: #0000FF; stroke-width: 0.9; stroke-dasharray: 2.0,2.0;" x1="51.3" x2="327.6" y1="1979.209" y2="1979.209"/><text fill="#000000" font-family="sans-serif" font-size="11.7" lengthAdjust="spacingAndGlyphs" textLength="126" x="62.1" y="1975.7834">is_transition_acceptable</text><polygon fill="#0000FF" points="317.7,2001.6628,326.7,2005.2628,317.7,2008.8628,321.3,2005.2628" style="stroke: #0000FF; stroke-width: 0.9;"/><line style="stroke: #0000FF; stroke-width: 0.9;" x1="46.8" x2="323.1" y1="2005.2628" y2="2005.2628"/><text fill="#000000" font-family="sans-serif" font-size="11.7" font-weight="bold" lengthAdjust="spacingAndGlyphs" textLength="208.8" x="56.7" y="2001.8373">do step for presentation ack message</text><line style="stroke: #0000FF; stroke-width: 0.9; stroke-dasharray: 2.0,2.0;" x1="328.5" x2="366.3" y1="2032.1706" y2="2032.1706"/><line style="stroke: #0000FF; stroke-width: 0.9; stroke-dasharray: 2.0,2.0;" x1="366.3" x2="366.3" y1="2032.1706" y2="2043.8706"/><line style="stroke: #0000FF; stroke-width: 0.9; stroke-dasharray: 2.0,2.0;" x1="329.4" x2="366.3" y1="2043.8706" y2="2043.8706"/><polygon fill="#0000FF" points="338.4,2040.2706,329.4,2043.8706,338.4,2047.4706,334.8,2043.8706" style="stroke: #0000FF; stroke-width: 0.9;"/><text fill="#000000" font-family="sans-serif" font-size="11.7" lengthAdjust="spacingAndGlyphs" textLength="29.7" x="334.8" y="2027.8912">state:</text><text fill="#000000" font-family="sans-serif" font-size="11.7" font-weight="bold" lengthAdjust="spacingAndGlyphs" textLength="141.3" x="371.7" y="2027.8912">PresentationAckReceived</text><line style="stroke: #808080; stroke-width: 0.9; stroke-dasharray: 2.0,2.0;" x1="46.8" x2="84.6" y1="2069.9244" y2="2069.9244"/><line style="stroke: #808080; stroke-width: 0.9; stroke-dasharray: 2.0,2.0;" x1="84.6" x2="84.6" y1="2069.9244" y2="2081.6244"/><line style="stroke: #808080; stroke-width: 0.9; stroke-dasharray: 2.0,2.0;" x1="47.7" x2="84.6" y1="2081.6244" y2="2081.6244"/><polygon fill="#808080" points="56.7,2078.0244,47.7,2081.6244,56.7,2085.2244,53.1,2081.6244" style="stroke: #808080; stroke-width: 0.9;"/><text fill="#000000" font-family="sans-serif" font-size="11.7" lengthAdjust="spacingAndGlyphs" textLength="83.7" x="53.1" y="2065.645">application logic</text><polygon fill="#0000FF" points="317.7,2103.2244,326.7,2106.8244,317.7,2110.4244,321.3,2106.8244" style="stroke: #0000FF; stroke-width: 0.9;"/><line style="stroke: #0000FF; stroke-width: 0.9;" x1="46.8" x2="323.1" y1="2106.8244" y2="2106.8244"/><text fill="#000000" font-family="sans-serif" font-size="11.7" font-weight="bold" lengthAdjust="spacingAndGlyphs" textLength="41.4" x="56.7" y="2103.3989">do step</text><line style="stroke: #0000FF; stroke-width: 0.9; stroke-dasharray: 2.0,2.0;" x1="328.5" x2="366.3" y1="2133.7321" y2="2133.7321"/><line style="stroke: #0000FF; stroke-width: 0.9; stroke-dasharray: 2.0,2.0;" x1="366.3" x2="366.3" y1="2133.7321" y2="2145.4321"/><line style="stroke: #0000FF; stroke-width: 0.9; stroke-dasharray: 2.0,2.0;" x1="329.4" x2="366.3" y1="2145.4321" y2="2145.4321"/><polygon fill="#0000FF" points="338.4,2141.8321,329.4,2145.4321,338.4,2149.0321,334.8,2145.4321" style="stroke: #0000FF; stroke-width: 0.9;"/><text fill="#000000" font-family="sans-serif" font-size="11.7" lengthAdjust="spacingAndGlyphs" textLength="29.7" x="334.8" y="2129.4527">state:</text><text fill="#000000" font-family="sans-serif" font-size="11.7" font-weight="bold" lengthAdjust="spacingAndGlyphs" textLength="48.6" x="371.7" y="2129.4527">Finished</text><line style="stroke: #808080; stroke-width: 0.9; stroke-dasharray: 2.0,2.0;" x1="46.8" x2="84.6" y1="2171.486" y2="2171.486"/><line style="stroke: #808080; stroke-width: 0.9; stroke-dasharray: 2.0,2.0;" x1="84.6" x2="84.6" y1="2171.486" y2="2183.186"/><line style="stroke: #808080; stroke-width: 0.9; stroke-dasharray: 2.0,2.0;" x1="47.7" x2="84.6" y1="2183.186" y2="2183.186"/><polygon fill="#808080" points="56.7,2179.586,47.7,2183.186,56.7,2186.786,53.1,2183.186" style="stroke: #808080; stroke-width: 0.9;"/><text fill="#000000" font-family="sans-serif" font-size="11.7" lengthAdjust="spacingAndGlyphs" textLength="83.7" x="53.1" y="2167.2066">application logic</text></g></svg>