<?xml version="1.0" encoding="UTF-8" standalone="no"?><svg xmlns="http://www.w3.org/2000/svg" xmlns:xlink="http://www.w3.org/1999/xlink" contentScriptType="application/ecmascript" contentStyleType="text/css" height="571px" preserveAspectRatio="none" style="width:580px;height:571px;" version="1.1" viewBox="0 0 580 571" width="580px" zoomAndPan="magnify"><defs><filter height="300%" id="fm7znp26golv9" width="300%" x="-1" y="-1"><feGaussianBlur result="blurOut" stdDeviation="2.0"/><feColorMatrix in="blurOut" result="blurOut2" type="matrix" values="0 0 0 0 0 0 0 0 0 0 0 0 0 0 0 0 0 0 .4 0"/><feOffset dx="4.0" dy="4.0" in="blurOut2" result="blurOut3"/><feBlend in="SourceGraphic" in2="blurOut3" mode="normal"/></filter></defs><g><!--class ParamMetadata--><rect fill="#FEFECE" filter="url(#fm7znp26golv9)" height="89.5078" id="ParamMetadata" style="stroke: #A80036; stroke-width: 1.5;" width="121" x="107" y="8"/><ellipse cx="122.9" cy="24" fill="#ADD1B2" rx="11" ry="11" style="stroke: #A80036; stroke-width: 1.0;"/><path d="M125.6656,19.875 Q125.8219,19.6563 126.0094,19.5469 Q126.1969,19.4375 126.4156,19.4375 Q126.7906,19.4375 127.025,19.6953 Q127.2594,19.9531 127.2594,20.5625 L127.2594,22.0156 Q127.2594,22.625 127.025,22.8906 Q126.7906,23.1563 126.4156,23.1563 Q126.0719,23.1563 125.8688,22.9531 Q125.6656,22.7656 125.5563,22.25 Q125.5094,21.8906 125.3219,21.7031 Q124.9938,21.3281 124.3844,21.1094 Q123.775,20.8906 123.15,20.8906 Q122.3844,20.8906 121.7516,21.2188 Q121.1188,21.5469 120.6266,22.2969 Q120.1344,23.0469 120.1344,24.0781 L120.1344,25.1719 Q120.1344,26.4063 121.025,27.2266 Q121.9156,28.0469 123.5094,28.0469 Q124.4469,28.0469 125.1031,27.7969 Q125.4938,27.6406 125.9156,27.2031 Q126.1813,26.9375 126.3297,26.8594 Q126.4781,26.7813 126.6813,26.7813 Q127.0094,26.7813 127.2672,27.0391 Q127.525,27.2969 127.525,27.6406 Q127.525,27.9844 127.1813,28.3906 Q126.6813,28.9688 125.8844,29.2969 Q124.8063,29.75 123.5094,29.75 Q121.9938,29.75 120.7906,29.125 Q119.8063,28.625 119.1188,27.5547 Q118.4313,26.4844 118.4313,25.2031 L118.4313,24.0469 Q118.4313,22.7188 119.0484,21.5703 Q119.6656,20.4219 120.7594,19.8047 Q121.8531,19.1875 123.0875,19.1875 Q123.8219,19.1875 124.4703,19.3516 Q125.1188,19.5156 125.6656,19.875 Z "/><text fill="#000000" font-family="sans-serif" font-size="12" lengthAdjust="spacingAndGlyphs" textLength="87" x="137.1" y="28.9102">ParamMetadata</text><line style="stroke: #A80036; stroke-width: 1.5;" x1="108" x2="227" y1="40" y2="40"/><line style="stroke: #A80036; stroke-width: 1.5;" x1="108" x2="227" y1="48" y2="48"/><ellipse cx="118" cy="60.418" fill="#84BE84" rx="3" ry="3" style="stroke: #038048; stroke-width: 1.0;"/><text fill="#000000" font-family="sans-serif" font-size="11" lengthAdjust="spacingAndGlyphs" textLength="95" x="127" y="63.4189">is_optional() -&gt; bool</text><ellipse cx="118" cy="74.2539" fill="#84BE84" rx="3" ry="3" style="stroke: #038048; stroke-width: 1.0;"/><text fill="#000000" font-family="sans-serif" font-size="11" lengthAdjust="spacingAndGlyphs" textLength="70" x="127" y="77.2549">name() -&gt; &amp;str</text><ellipse cx="118" cy="88.0898" fill="#84BE84" rx="3" ry="3" style="stroke: #038048; stroke-width: 1.0;"/><text fill="#000000" font-family="sans-serif" font-size="11" lengthAdjust="spacingAndGlyphs" textLength="64" x="127" y="91.0908">help() -&gt; &amp;str</text><!--class CommandMetadata--><rect fill="#FEFECE" filter="url(#fm7znp26golv9)" height="103.3438" id="CommandMetadata" style="stroke: #A80036; stroke-width: 1.5;" width="229" x="53" y="158"/><ellipse cx="108.75" cy="174" fill="#ADD1B2" rx="11" ry="11" style="stroke: #A80036; stroke-width: 1.0;"/><path d="M111.5156,169.875 Q111.6719,169.6563 111.8594,169.5469 Q112.0469,169.4375 112.2656,169.4375 Q112.6406,169.4375 112.875,169.6953 Q113.1094,169.9531 113.1094,170.5625 L113.1094,172.0156 Q113.1094,172.625 112.875,172.8906 Q112.6406,173.1563 112.2656,173.1563 Q111.9219,173.1563 111.7188,172.9531 Q111.5156,172.7656 111.4063,172.25 Q111.3594,171.8906 111.1719,171.7031 Q110.8438,171.3281 110.2344,171.1094 Q109.625,170.8906 109,170.8906 Q108.2344,170.8906 107.6016,171.2188 Q106.9688,171.5469 106.4766,172.2969 Q105.9844,173.0469 105.9844,174.0781 L105.9844,175.1719 Q105.9844,176.4063 106.875,177.2266 Q107.7656,178.0469 109.3594,178.0469 Q110.2969,178.0469 110.9531,177.7969 Q111.3438,177.6406 111.7656,177.2031 Q112.0313,176.9375 112.1797,176.8594 Q112.3281,176.7813 112.5313,176.7813 Q112.8594,176.7813 113.1172,177.0391 Q113.375,177.2969 113.375,177.6406 Q113.375,177.9844 113.0313,178.3906 Q112.5313,178.9688 111.7344,179.2969 Q110.6563,179.75 109.3594,179.75 Q107.8438,179.75 106.6406,179.125 Q105.6563,178.625 104.9688,177.5547 Q104.2813,176.4844 104.2813,175.2031 L104.2813,174.0469 Q104.2813,172.7188 104.8984,171.5703 Q105.5156,170.4219 106.6094,169.8047 Q107.7031,169.1875 108.9375,169.1875 Q109.6719,169.1875 110.3203,169.3516 Q110.9688,169.5156 111.5156,169.875 Z "/><text fill="#000000" font-family="sans-serif" font-size="12" lengthAdjust="spacingAndGlyphs" textLength="109" x="129.25" y="178.9102">CommandMetadata</text><line style="stroke: #A80036; stroke-width: 1.5;" x1="54" x2="281" y1="190" y2="190"/><line style="stroke: #A80036; stroke-width: 1.5;" x1="54" x2="281" y1="198" y2="198"/><ellipse cx="64" cy="210.418" fill="#84BE84" rx="3" ry="3" style="stroke: #038048; stroke-width: 1.0;"/><text fill="#000000" font-family="sans-serif" font-size="11" lengthAdjust="spacingAndGlyphs" textLength="70" x="73" y="213.4189">name() -&gt; &amp;str</text><ellipse cx="64" cy="224.2539" fill="#84BE84" rx="3" ry="3" style="stroke: #038048; stroke-width: 1.0;"/><text fill="#000000" font-family="sans-serif" font-size="11" lengthAdjust="spacingAndGlyphs" textLength="64" x="73" y="227.2549">help() -&gt; &amp;str</text><ellipse cx="64" cy="238.0898" fill="#84BE84" rx="3" ry="3" style="stroke: #038048; stroke-width: 1.0;"/><text fill="#000000" font-family="sans-serif" font-size="11" lengthAdjust="spacingAndGlyphs" textLength="203" x="73" y="241.0908">main_param()-&gt; Option«&amp;ParamMetadata»</text><ellipse cx="64" cy="251.9258" fill="#84BE84" rx="3" ry="3" style="stroke: #038048; stroke-width: 1.0;"/><text fill="#000000" font-family="sans-serif" font-size="11" lengthAdjust="spacingAndGlyphs" textLength="147" x="73" y="254.9268">params() -&gt; &amp;[ParamMetadata]</text><!--class Command--><rect fill="#FEFECE" filter="url(#fm7znp26golv9)" height="89.5078" id="Command" style="stroke: #A80036; stroke-width: 1.5;" width="323" x="6" y="321"/><ellipse cx="133.75" cy="337" fill="#ADD1B2" rx="11" ry="11" style="stroke: #A80036; stroke-width: 1.0;"/><path d="M136.5156,332.875 Q136.6719,332.6563 136.8594,332.5469 Q137.0469,332.4375 137.2656,332.4375 Q137.6406,332.4375 137.875,332.6953 Q138.1094,332.9531 138.1094,333.5625 L138.1094,335.0156 Q138.1094,335.625 137.875,335.8906 Q137.6406,336.1563 137.2656,336.1563 Q136.9219,336.1563 136.7188,335.9531 Q136.5156,335.7656 136.4063,335.25 Q136.3594,334.8906 136.1719,334.7031 Q135.8438,334.3281 135.2344,334.1094 Q134.625,333.8906 134,333.8906 Q133.2344,333.8906 132.6016,334.2188 Q131.9688,334.5469 131.4766,335.2969 Q130.9844,336.0469 130.9844,337.0781 L130.9844,338.1719 Q130.9844,339.4063 131.875,340.2266 Q132.7656,341.0469 134.3594,341.0469 Q135.2969,341.0469 135.9531,340.7969 Q136.3438,340.6406 136.7656,340.2031 Q137.0313,339.9375 137.1797,339.8594 Q137.3281,339.7813 137.5313,339.7813 Q137.8594,339.7813 138.1172,340.0391 Q138.375,340.2969 138.375,340.6406 Q138.375,340.9844 138.0313,341.3906 Q137.5313,341.9688 136.7344,342.2969 Q135.6563,342.75 134.3594,342.75 Q132.8438,342.75 131.6406,342.125 Q130.6563,341.625 129.9688,340.5547 Q129.2813,339.4844 129.2813,338.2031 L129.2813,337.0469 Q129.2813,335.7188 129.8984,334.5703 Q130.5156,333.4219 131.6094,332.8047 Q132.7031,332.1875 133.9375,332.1875 Q134.6719,332.1875 135.3203,332.3516 Q135.9688,332.5156 136.5156,332.875 Z "/><text fill="#000000" font-family="sans-serif" font-size="12" lengthAdjust="spacingAndGlyphs" textLength="59" x="154.25" y="341.9102">Command</text><line style="stroke: #A80036; stroke-width: 1.5;" x1="7" x2="328" y1="353" y2="353"/><line style="stroke: #A80036; stroke-width: 1.5;" x1="7" x2="328" y1="361" y2="361"/><ellipse cx="17" cy="373.418" fill="#84BE84" rx="3" ry="3" style="stroke: #038048; stroke-width: 1.0;"/><text fill="#000000" font-family="sans-serif" font-size="11" lengthAdjust="spacingAndGlyphs" textLength="166" x="26" y="376.4189">metadata() -&gt; &amp;CommandMetadata</text><ellipse cx="17" cy="387.2539" fill="#84BE84" rx="3" ry="3" style="stroke: #038048; stroke-width: 1.0;"/><text fill="#000000" font-family="sans-serif" font-size="11" lengthAdjust="spacingAndGlyphs" textLength="297" x="26" y="390.2549">execute(ctx: &amp;CommandContext, params: &amp;CommandParams)</text><ellipse cx="17" cy="401.0898" fill="#84BE84" rx="3" ry="3" style="stroke: #038048; stroke-width: 1.0;"/><text fill="#000000" font-family="sans-serif" font-size="11" lengthAdjust="spacingAndGlyphs" textLength="158" x="26" y="404.0908">cleanup(ctx: &amp;CommandContext)</text><!--class EntryPoint--><rect fill="#FEFECE" filter="url(#fm7znp26golv9)" height="89.5078" id="EntryPoint" style="stroke: #A80036; stroke-width: 1.5;" width="99" x="367" y="164.5"/><ellipse cx="387.4" cy="180.5" fill="#ADD1B2" rx="11" ry="11" style="stroke: #A80036; stroke-width: 1.0;"/><path d="M390.1656,176.375 Q390.3219,176.1563 390.5094,176.0469 Q390.6969,175.9375 390.9156,175.9375 Q391.2906,175.9375 391.525,176.1953 Q391.7594,176.4531 391.7594,177.0625 L391.7594,178.5156 Q391.7594,179.125 391.525,179.3906 Q391.2906,179.6563 390.9156,179.6563 Q390.5719,179.6563 390.3688,179.4531 Q390.1656,179.2656 390.0563,178.75 Q390.0094,178.3906 389.8219,178.2031 Q389.4938,177.8281 388.8844,177.6094 Q388.275,177.3906 387.65,177.3906 Q386.8844,177.3906 386.2516,177.7188 Q385.6188,178.0469 385.1266,178.7969 Q384.6344,179.5469 384.6344,180.5781 L384.6344,181.6719 Q384.6344,182.9063 385.525,183.7266 Q386.4156,184.5469 388.0094,184.5469 Q388.9469,184.5469 389.6031,184.2969 Q389.9938,184.1406 390.4156,183.7031 Q390.6813,183.4375 390.8297,183.3594 Q390.9781,183.2813 391.1813,183.2813 Q391.5094,183.2813 391.7672,183.5391 Q392.025,183.7969 392.025,184.1406 Q392.025,184.4844 391.6813,184.8906 Q391.1813,185.4688 390.3844,185.7969 Q389.3063,186.25 388.0094,186.25 Q386.4938,186.25 385.2906,185.625 Q384.3063,185.125 383.6188,184.0547 Q382.9313,182.9844 382.9313,181.7031 L382.9313,180.5469 Q382.9313,179.2188 383.5484,178.0703 Q384.1656,176.9219 385.2594,176.3047 Q386.3531,175.6875 387.5875,175.6875 Q388.3219,175.6875 388.9703,175.8516 Q389.6188,176.0156 390.1656,176.375 Z "/><text fill="#000000" font-family="sans-serif" font-size="12" lengthAdjust="spacingAndGlyphs" textLength="55" x="402.6" y="185.4102">EntryPoint</text><line style="stroke: #A80036; stroke-width: 1.5;" x1="368" x2="465" y1="196.5" y2="196.5"/><line style="stroke: #A80036; stroke-width: 1.5;" x1="368" x2="465" y1="204.5" y2="204.5"/><ellipse cx="378" cy="216.918" fill="#84BE84" rx="3" ry="3" style="stroke: #038048; stroke-width: 1.0;"/><text fill="#000000" font-family="sans-serif" font-size="11" lengthAdjust="spacingAndGlyphs" textLength="30" x="387" y="219.9189">main()</text><rect fill="#F24D5C" height="6" style="stroke: #C82930; stroke-width: 1.0;" width="6" x="375" y="227.7539"/><text fill="#000000" font-family="sans-serif" font-size="11" lengthAdjust="spacingAndGlyphs" textLength="73" x="387" y="233.7549">execReadline()</text><rect fill="#F24D5C" height="6" style="stroke: #C82930; stroke-width: 1.0;" width="6" x="375" y="241.5898"/><text fill="#000000" font-family="sans-serif" font-size="11" lengthAdjust="spacingAndGlyphs" textLength="60" x="387" y="247.5908">execBatch()</text><!--class CommandExecutor--><rect fill="#FEFECE" filter="url(#fm7znp26golv9)" height="89.5078" id="CommandExecutor" style="stroke: #A80036; stroke-width: 1.5;" width="205" x="364" y="321"/><ellipse cx="409.25" cy="337" fill="#ADD1B2" rx="11" ry="11" style="stroke: #A80036; stroke-width: 1.0;"/><path d="M412.0156,332.875 Q412.1719,332.6563 412.3594,332.5469 Q412.5469,332.4375 412.7656,332.4375 Q413.1406,332.4375 413.375,332.6953 Q413.6094,332.9531 413.6094,333.5625 L413.6094,335.0156 Q413.6094,335.625 413.375,335.8906 Q413.1406,336.1563 412.7656,336.1563 Q412.4219,336.1563 412.2188,335.9531 Q412.0156,335.7656 411.9063,335.25 Q411.8594,334.8906 411.6719,334.7031 Q411.3438,334.3281 410.7344,334.1094 Q410.125,333.8906 409.5,333.8906 Q408.7344,333.8906 408.1016,334.2188 Q407.4688,334.5469 406.9766,335.2969 Q406.4844,336.0469 406.4844,337.0781 L406.4844,338.1719 Q406.4844,339.4063 407.375,340.2266 Q408.2656,341.0469 409.8594,341.0469 Q410.7969,341.0469 411.4531,340.7969 Q411.8438,340.6406 412.2656,340.2031 Q412.5313,339.9375 412.6797,339.8594 Q412.8281,339.7813 413.0313,339.7813 Q413.3594,339.7813 413.6172,340.0391 Q413.875,340.2969 413.875,340.6406 Q413.875,340.9844 413.5313,341.3906 Q413.0313,341.9688 412.2344,342.2969 Q411.1563,342.75 409.8594,342.75 Q408.3438,342.75 407.1406,342.125 Q406.1563,341.625 405.4688,340.5547 Q404.7813,339.4844 404.7813,338.2031 L404.7813,337.0469 Q404.7813,335.7188 405.3984,334.5703 Q406.0156,333.4219 407.1094,332.8047 Q408.2031,332.1875 409.4375,332.1875 Q410.1719,332.1875 410.8203,332.3516 Q411.4688,332.5156 412.0156,332.875 Z "/><text fill="#000000" font-family="sans-serif" font-size="12" lengthAdjust="spacingAndGlyphs" textLength="106" x="429.75" y="341.9102">CommandExecutor</text><line style="stroke: #A80036; stroke-width: 1.5;" x1="365" x2="568" y1="353" y2="353"/><line style="stroke: #A80036; stroke-width: 1.5;" x1="365" x2="568" y1="361" y2="361"/><ellipse cx="375" cy="373.418" fill="#84BE84" rx="3" ry="3" style="stroke: #038048; stroke-width: 1.0;"/><text fill="#000000" font-family="sans-serif" font-size="11" lengthAdjust="spacingAndGlyphs" textLength="179" x="384" y="376.4189">addCommand(command: &amp;Command)</text><ellipse cx="375" cy="387.2539" fill="#84BE84" rx="3" ry="3" style="stroke: #038048; stroke-width: 1.0;"/><text fill="#000000" font-family="sans-serif" font-size="11" lengthAdjust="spacingAndGlyphs" textLength="89" x="384" y="390.2549">execute(line: &amp;str)</text><ellipse cx="375" cy="401.0898" fill="#84BE84" rx="3" ry="3" style="stroke: #038048; stroke-width: 1.0;"/><text fill="#000000" font-family="sans-serif" font-size="11" lengthAdjust="spacingAndGlyphs" textLength="168" x="384" y="404.0908">complete(line: &amp;str, position: usize)</text><!--class CommandContext--><rect fill="#FEFECE" filter="url(#fm7znp26golv9)" height="89.5078" id="CommandContext" style="stroke: #A80036; stroke-width: 1.5;" width="132" x="250.5" y="471"/><ellipse cx="265.5" cy="487" fill="#ADD1B2" rx="11" ry="11" style="stroke: #A80036; stroke-width: 1.0;"/><path d="M268.2656,482.875 Q268.4219,482.6563 268.6094,482.5469 Q268.7969,482.4375 269.0156,482.4375 Q269.3906,482.4375 269.625,482.6953 Q269.8594,482.9531 269.8594,483.5625 L269.8594,485.0156 Q269.8594,485.625 269.625,485.8906 Q269.3906,486.1563 269.0156,486.1563 Q268.6719,486.1563 268.4688,485.9531 Q268.2656,485.7656 268.1563,485.25 Q268.1094,484.8906 267.9219,484.7031 Q267.5938,484.3281 266.9844,484.1094 Q266.375,483.8906 265.75,483.8906 Q264.9844,483.8906 264.3516,484.2188 Q263.7188,484.5469 263.2266,485.2969 Q262.7344,486.0469 262.7344,487.0781 L262.7344,488.1719 Q262.7344,489.4063 263.625,490.2266 Q264.5156,491.0469 266.1094,491.0469 Q267.0469,491.0469 267.7031,490.7969 Q268.0938,490.6406 268.5156,490.2031 Q268.7813,489.9375 268.9297,489.8594 Q269.0781,489.7813 269.2813,489.7813 Q269.6094,489.7813 269.8672,490.0391 Q270.125,490.2969 270.125,490.6406 Q270.125,490.9844 269.7813,491.3906 Q269.2813,491.9688 268.4844,492.2969 Q267.4063,492.75 266.1094,492.75 Q264.5938,492.75 263.3906,492.125 Q262.4063,491.625 261.7188,490.5547 Q261.0313,489.4844 261.0313,488.2031 L261.0313,487.0469 Q261.0313,485.7188 261.6484,484.5703 Q262.2656,483.4219 263.3594,482.8047 Q264.4531,482.1875 265.6875,482.1875 Q266.4219,482.1875 267.0703,482.3516 Q267.7188,482.5156 268.2656,482.875 Z "/><text fill="#000000" font-family="sans-serif" font-size="12" lengthAdjust="spacingAndGlyphs" textLength="100" x="279.5" y="491.9102">CommandContext</text><line style="stroke: #A80036; stroke-width: 1.5;" x1="251.5" x2="381.5" y1="503" y2="503"/><line style="stroke: #A80036; stroke-width: 1.5;" x1="251.5" x2="381.5" y1="511" y2="511"/><ellipse cx="261.5" cy="523.418" fill="#84BE84" rx="3" ry="3" style="stroke: #038048; stroke-width: 1.0;"/><text fill="#000000" font-family="sans-serif" font-size="11" lengthAdjust="spacingAndGlyphs" textLength="88" x="270.5" y="526.4189">set_cmd_prompt()</text><ellipse cx="261.5" cy="537.2539" fill="#84BE84" rx="3" ry="3" style="stroke: #038048; stroke-width: 1.0;"/><text fill="#000000" font-family="sans-serif" font-size="11" lengthAdjust="spacingAndGlyphs" textLength="73" x="270.5" y="540.2549">set_progress()</text><ellipse cx="261.5" cy="551.0898" fill="#84BE84" rx="3" ry="3" style="stroke: #038048; stroke-width: 1.0;"/><text fill="#000000" font-family="sans-serif" font-size="11" lengthAdjust="spacingAndGlyphs" textLength="25" x="270.5" y="554.0908">exit()</text><!--link ParamMetadata to CommandMetadata--><path d="M167.5,98.273 C167.5,112.688 167.5,128.987 167.5,144.545 " fill="none" id="ParamMetadata-CommandMetadata" style="stroke: #A80036; stroke-width: 1.0;"/><polygon fill="#A80036" points="167.5,157.96,171.5,151.96,167.5,145.96,163.5,151.96,167.5,157.96" style="stroke: #A80036; stroke-width: 1.0;"/><!--link CommandMetadata to Command--><path d="M167.5,261.089 C167.5,275.996 167.5,292.412 167.5,307.707 " fill="none" id="CommandMetadata-Command" style="stroke: #A80036; stroke-width: 1.0;"/><polygon fill="#A80036" points="167.5,320.794,171.5,314.794,167.5,308.794,163.5,314.794,167.5,320.794" style="stroke: #A80036; stroke-width: 1.0;"/><!--link EntryPoint to CommandExecutor--><path d="M430.828,254.773 C436.238,271.492 442.47,290.747 448.196,308.44 " fill="none" id="EntryPoint-CommandExecutor" style="stroke: #A80036; stroke-width: 1.0;"/><polygon fill="#A80036" points="452.256,320.987,454.2142,314.0469,448.5611,309.57,446.6029,316.5101,452.256,320.987" style="stroke: #A80036; stroke-width: 1.0;"/><!--link EntryPoint to Command--><path d="M366.71,241.394 C333.254,262.153 288.377,289.998 249.687,314.004 " fill="none" id="EntryPoint-Command" style="stroke: #A80036; stroke-width: 1.0;"/><polygon fill="#A80036" points="238.428,320.991,245.6353,321.2266,248.6247,314.6644,241.4175,314.4288,238.428,320.991" style="stroke: #A80036; stroke-width: 1.0;"/><!--link CommandExecutor to CommandContext--><path d="M421.901,411.004 C405.875,426.817 387.619,444.829 370.856,461.3692 " fill="none" id="CommandExecutor-CommandContext" style="stroke: #A80036; stroke-width: 1.0;"/><polygon fill="#A80036" points="361.186,470.9098,368.2664,469.543,369.7279,462.4815,362.6475,463.8484,361.186,470.9098" style="stroke: #A80036; stroke-width: 1.0;"/><!--link Command to CommandContext--><path d="M211.801,411.004 C229.655,428.738 250.294,449.238 268.504,467.326 " fill="none" id="Command-CommandContext" style="stroke: #A80036; stroke-width: 1.0; stroke-dasharray: 7.0,7.0;"/><polygon fill="#A80036" points="272.112,470.9098,268.5464,461.729,268.5649,467.3859,262.9081,467.4044,272.112,470.9098" style="stroke: #A80036; stroke-width: 1.0;"/><!--
@startuml CLI components

class ParamMetadata {
    +is_optional() -> bool
    +name() -> &str
    +help() -> &str
}

class CommandMetadata {
    +name() -> &str
    +help() -> &str
    +main_param()-> Option<<&ParamMetadata>>
    +params() -> &[ParamMetadata]
}
ParamMetadata - -* CommandMetadata

class Command {    
    +metadata() -> &CommandMetadata
    +execute(ctx: &CommandContext, params: &CommandParams)
    +cleanup(ctx: &CommandContext)
}
CommandMetadata - -* Command

class EntryPoint {
    +main()
    -execReadline()
    -execBatch()
}

class CommandExecutor {    
    +addCommand(command: &Command)
    +execute(line: &str)
    +complete(line: &str, position: usize)
}
EntryPoint - -* CommandExecutor
EntryPoint - -* Command

class CommandContext {
    +set_cmd_prompt()
    +set_progress()
    +exit()
}
CommandExecutor - -* CommandContext

Command ..> CommandContext

@enduml

PlantUML version 1.2017.15(Mon Jul 03 19:45:34 MSK 2017)
(GPL source distribution)
Java Runtime: Java(TM) SE Runtime Environment
JVM: Java HotSpot(TM) 64-Bit Server VM
Java Version: 1.8.0_151-b12
Operating System: Windows 10
OS Version: 10.0
Default Encoding: Cp1252
Language: en
Country: US
--></g></svg>