<?xml version="1.0" encoding="UTF-8" standalone="no"?><svg xmlns="http://www.w3.org/2000/svg" xmlns:xlink="http://www.w3.org/1999/xlink" contentScriptType="application/ecmascript" contentStyleType="text/css" height="292px" preserveAspectRatio="none" style="width:812px;height:292px;" version="1.1" viewBox="0 0 812 292" width="812px" zoomAndPan="magnify"><defs><filter height="300%" id="f11wzia82zlxgm" width="300%" x="-1" y="-1"><feGaussianBlur result="blurOut" stdDeviation="2.0"/><feColorMatrix in="blurOut" result="blurOut2" type="matrix" values="0 0 0 0 0 0 0 0 0 0 0 0 0 0 0 0 0 0 .4 0"/><feOffset dx="4.0" dy="4.0" in="blurOut2" result="blurOut3"/><feBlend in="SourceGraphic" in2="blurOut3" mode="normal"/></filter></defs><g><!--cluster Programming lanugages wrappers--><polygon fill="#FFFFFF" filter="url(#f11wzia82zlxgm)" points="95.5,190,341.5,190,348.5,213.6094,790.5,213.6094,790.5,280,95.5,280,95.5,190" style="stroke: #000000; stroke-width: 1.5;"/><line style="stroke: #000000; stroke-width: 1.5;" x1="95.5" x2="348.5" y1="213.6094" y2="213.6094"/><text fill="#000000" font-family="sans-serif" font-size="14" font-weight="bold" lengthAdjust="spacingAndGlyphs" textLength="240" x="99.5" y="206.5332">Programming lanugages wrappers</text><!--entity java_wrapper--><rect fill="#FEFECE" filter="url(#f11wzia82zlxgm)" height="37.6094" style="stroke: #A80036; stroke-width: 1.5;" width="108" x="666.5" y="226"/><rect fill="#FEFECE" height="5" style="stroke: #A80036; stroke-width: 1.5;" width="10" x="661.5" y="231"/><rect fill="#FEFECE" height="5" style="stroke: #A80036; stroke-width: 1.5;" width="10" x="661.5" y="253.6094"/><text fill="#000000" font-family="sans-serif" font-size="14" lengthAdjust="spacingAndGlyphs" textLength="88" x="676.5" y="250.5332">Java Wrapper</text><!--entity python_wrapper--><rect fill="#FEFECE" filter="url(#f11wzia82zlxgm)" height="37.6094" style="stroke: #A80036; stroke-width: 1.5;" width="123" x="508" y="226"/><rect fill="#FEFECE" height="5" style="stroke: #A80036; stroke-width: 1.5;" width="10" x="503" y="231"/><rect fill="#FEFECE" height="5" style="stroke: #A80036; stroke-width: 1.5;" width="10" x="503" y="253.6094"/><text fill="#000000" font-family="sans-serif" font-size="14" lengthAdjust="spacingAndGlyphs" textLength="103" x="518" y="250.5332">Python Wrapper</text><!--entity objc_wrapper--><rect fill="#FEFECE" filter="url(#f11wzia82zlxgm)" height="37.6094" style="stroke: #A80036; stroke-width: 1.5;" width="185" x="288" y="226"/><rect fill="#FEFECE" height="5" style="stroke: #A80036; stroke-width: 1.5;" width="10" x="283" y="231"/><rect fill="#FEFECE" height="5" style="stroke: #A80036; stroke-width: 1.5;" width="10" x="283" y="253.6094"/><text fill="#000000" font-family="sans-serif" font-size="14" lengthAdjust="spacingAndGlyphs" textLength="165" x="298" y="250.5332">ObjectiveC Wrapper (iOS)</text><!--entity dnet_wrapper--><rect fill="#FEFECE" filter="url(#f11wzia82zlxgm)" height="37.6094" style="stroke: #A80036; stroke-width: 1.5;" width="141" x="112" y="226"/><rect fill="#FEFECE" height="5" style="stroke: #A80036; stroke-width: 1.5;" width="10" x="107" y="231"/><rect fill="#FEFECE" height="5" style="stroke: #A80036; stroke-width: 1.5;" width="10" x="107" y="253.6094"/><text fill="#000000" font-family="sans-serif" font-size="14" lengthAdjust="spacingAndGlyphs" textLength="121" x="122" y="250.5332">.Net Wrapper (iOS)</text><!--entity cinterface--><ellipse cx="380.5" cy="136" fill="#FEFECE" filter="url(#f11wzia82zlxgm)" rx="8" ry="8" style="stroke: #A80036; stroke-width: 2.0;"/><text fill="#000000" font-family="sans-serif" font-size="14" lengthAdjust="spacingAndGlyphs" textLength="69" x="346" y="167.5332">C Interface</text><!--entity libindy--><rect fill="#FEFECE" filter="url(#f11wzia82zlxgm)" height="37.6094" style="stroke: #A80036; stroke-width: 1.5;" width="60" x="350.5" y="8"/><rect fill="#FEFECE" height="5" style="stroke: #A80036; stroke-width: 1.5;" width="10" x="345.5" y="13"/><rect fill="#FEFECE" height="5" style="stroke: #A80036; stroke-width: 1.5;" width="10" x="345.5" y="35.6094"/><text fill="#000000" font-family="sans-serif" font-size="14" lengthAdjust="spacingAndGlyphs" textLength="40" x="360.5" y="32.5332">libindy</text><!--entity cli--><rect fill="#FEFECE" filter="url(#f11wzia82zlxgm)" height="37.6094" style="stroke: #A80036; stroke-width: 1.5;" width="71" x="6" y="226"/><rect fill="#FEFECE" height="5" style="stroke: #A80036; stroke-width: 1.5;" width="10" x="1" y="231"/><rect fill="#FEFECE" height="5" style="stroke: #A80036; stroke-width: 1.5;" width="10" x="1" y="253.6094"/><text fill="#000000" font-family="sans-serif" font-size="14" lengthAdjust="spacingAndGlyphs" textLength="51" x="16" y="250.5332">Indy CLI</text><!--link libindy to cinterface--><path d="M380.5,46.151 C380.5,69.643 380.5,109.594 380.5,126.761 " fill="none" id="libindy-cinterface" style="stroke: #A80036; stroke-width: 1.0;"/><!--link cinterface to cli--><path d="M366.386,137.954 C315.674,141.575 143.18,155.615 95.5,182 C76.8907,192.298 61.6508,211.6115 52.1621,225.9575 " fill="none" id="cinterface-cli" style="stroke: #A80036; stroke-width: 1.0; stroke-dasharray: 7.0,7.0;"/><polygon fill="#A80036" points="371.432,137.6,362.1741,134.2397,366.4443,137.9499,362.734,142.2201,371.432,137.6" style="stroke: #A80036; stroke-width: 1.0;"/><!--link cinterface to java_wrapper--><path d="M394.904,136.76 C436.404,136.61 558.978,140.004 648.5,182 C670.603,192.369 691.214,211.4707 704.67,225.7427 " fill="none" id="cinterface-java_wrapper" style="stroke: #A80036; stroke-width: 1.0; stroke-dasharray: 7.0,7.0;"/><polygon fill="#A80036" points="389.815,136.798,398.8456,140.7284,394.8149,136.7594,398.7839,132.7287,389.815,136.798" style="stroke: #A80036; stroke-width: 1.0;"/><!--link cinterface to python_wrapper--><path d="M394.762,141.418 C416.316,148.403 458.109,163.158 490.5,182 C512.051,194.536 534.175,212.4129 549.508,225.752 " fill="none" id="cinterface-python_wrapper" style="stroke: #A80036; stroke-width: 1.0; stroke-dasharray: 7.0,7.0;"/><polygon fill="#A80036" points="389.736,139.812,397.0903,146.3629,394.4985,141.3347,399.5267,138.7429,389.736,139.812" style="stroke: #A80036; stroke-width: 1.0;"/><!--link cinterface to objc_wrapper--><path d="M380.5,150.4 C380.5,169.408 380.5,204.263 380.5,225.6574 " fill="none" id="cinterface-objc_wrapper" style="stroke: #A80036; stroke-width: 1.0; stroke-dasharray: 7.0,7.0;"/><polygon fill="#A80036" points="380.5,145.042,376.5,154.042,380.5,150.042,384.5,154.042,380.5,145.042" style="stroke: #A80036; stroke-width: 1.0;"/><!--link cinterface to dnet_wrapper--><path d="M366.358,141.631 C344.96,148.892 303.366,164.001 270.5,182 C247.06,194.837 222.348,212.6785 205.1,225.9278 " fill="none" id="cinterface-dnet_wrapper" style="stroke: #A80036; stroke-width: 1.0; stroke-dasharray: 7.0,7.0;"/><polygon fill="#A80036" points="371.346,139.958,361.5409,139.0306,366.606,141.5494,364.0872,146.6145,371.346,139.958" style="stroke: #A80036; stroke-width: 1.0;"/><!--
@startuml

() "C Interface" as cinterface
[libindy] - - cinterface

[Indy CLI] as cli
cinterface <.. cli

package "Programming languages wrappers" {
    [Java Wrapper] as java_wrapper
    cinterface <.. java_wrapper
    
    [Python Wrapper] as python_wrapper
    cinterface <.. python_wrapper
    
    [ObjectiveC Wrapper (iOS)] as objc_wrapper
    cinterface <.. objc_wrapper

    [.Net Wrapper (iOS)] as dnet_wrapper
    cinterface <.. dnet_wrapper
}

@enduml

PlantUML version 1.2017.20(Mon Dec 11 19:57:05 MSK 2017)
(GPL source distribution)
Java Runtime: Java(TM) SE Runtime Environment
JVM: Java HotSpot(TM) 64-Bit Server VM
Java Version: 1.8.0_151-b12
Operating System: Windows 10
OS Version: 10.0
Default Encoding: Cp1252
Language: en
Country: US
--></g></svg>