<?xml version="1.0" encoding="UTF-8" standalone="no"?><svg xmlns="http://www.w3.org/2000/svg" xmlns:xlink="http://www.w3.org/1999/xlink" contentScriptType="application/ecmascript" contentStyleType="text/css" height="588px" preserveAspectRatio="none" style="width:1577px;height:588px;" version="1.1" viewBox="0 0 1577 588" width="1577px" zoomAndPan="magnify"><defs><filter height="300%" id="fdkj1cdnbt9g9" width="300%" x="-1" y="-1"><feGaussianBlur result="blurOut" stdDeviation="2.0"/><feColorMatrix in="blurOut" result="blurOut2" type="matrix" values="0 0 0 0 0 0 0 0 0 0 0 0 0 0 0 0 0 0 .4 0"/><feOffset dx="4.0" dy="4.0" in="blurOut2" result="blurOut3"/><feBlend in="SourceGraphic" in2="blurOut3" mode="normal"/></filter></defs><g><!--cluster Libindy language bindings--><polygon fill="#FFFFFF" filter="url(#fdkj1cdnbt9g9)" points="14,195,232,195,239,217.2969,1004,217.2969,1004,266,14,266,14,195" style="stroke: #000000; stroke-width: 1.5;"/><line style="stroke: #000000; stroke-width: 1.5;" x1="14" x2="239" y1="217.2969" y2="217.2969"/><text fill="#000000" font-family="sans-serif" font-size="14" font-weight="bold" lengthAdjust="spacingAndGlyphs" textLength="212" x="18" y="209.9951">Libindy language bindings</text><!--cluster payments--><polygon fill="#FFFFFF" filter="url(#fdkj1cdnbt9g9)" points="1012,200,1022,190,1255,190,1255,256,1245,266,1012,266,1012,200" style="stroke: #000000; stroke-width: 1.5;"/><line style="stroke: #000000; stroke-width: 1.5;" x1="1245" x2="1254" y1="200" y2="191"/><line style="stroke: #000000; stroke-width: 1.5;" x1="1012" x2="1245" y1="200" y2="200"/><line style="stroke: #000000; stroke-width: 1.5;" x1="1245" x2="1245" y1="200" y2="266"/><text fill="#000000" font-family="sans-serif" font-size="14" font-weight="bold" lengthAdjust="spacingAndGlyphs" textLength="167" x="1046" y="215.9951">Pluggable payments</text><!--cluster wallets--><polygon fill="#FFFFFF" filter="url(#fdkj1cdnbt9g9)" points="1263,200,1273,190,1555,190,1555,256,1545,266,1263,266,1263,200" style="stroke: #000000; stroke-width: 1.5;"/><line style="stroke: #000000; stroke-width: 1.5;" x1="1545" x2="1554" y1="200" y2="191"/><line style="stroke: #000000; stroke-width: 1.5;" x1="1263" x2="1545" y1="200" y2="200"/><line style="stroke: #000000; stroke-width: 1.5;" x1="1545" x2="1545" y1="200" y2="266"/><text fill="#000000" font-family="sans-serif" font-size="14" font-weight="bold" lengthAdjust="spacingAndGlyphs" textLength="216" x="1297" y="215.9951">Pluggable wallet storages</text><!--cluster LibVCX language bindings--><polygon fill="#FFFFFF" filter="url(#fdkj1cdnbt9g9)" points="360,505,576,505,583,527.2969,1053,527.2969,1053,576,360,576,360,505" style="stroke: #000000; stroke-width: 1.5;"/><line style="stroke: #000000; stroke-width: 1.5;" x1="360" x2="583" y1="527.2969" y2="527.2969"/><text fill="#000000" font-family="sans-serif" font-size="14" font-weight="bold" lengthAdjust="spacingAndGlyphs" textLength="210" x="364" y="519.9951">LibVCX language bindings</text><!--entity java_wrapper--><rect fill="#FEFECE" filter="url(#fdkj1cdnbt9g9)" height="36.2969" style="stroke: #A80036; stroke-width: 1.5;" width="110" x="886" y="222"/><rect fill="#FEFECE" height="5" style="stroke: #A80036; stroke-width: 1.5;" width="10" x="881" y="227"/><rect fill="#FEFECE" height="5" style="stroke: #A80036; stroke-width: 1.5;" width="10" x="881" y="248.2969"/><text fill="#000000" font-family="sans-serif" font-size="14" lengthAdjust="spacingAndGlyphs" textLength="90" x="896" y="244.9951">Java Wrapper</text><!--entity nodejs_wrapper--><rect fill="#FEFECE" filter="url(#fdkj1cdnbt9g9)" height="36.2969" style="stroke: #A80036; stroke-width: 1.5;" width="132" x="719" y="222"/><rect fill="#FEFECE" height="5" style="stroke: #A80036; stroke-width: 1.5;" width="10" x="714" y="227"/><rect fill="#FEFECE" height="5" style="stroke: #A80036; stroke-width: 1.5;" width="10" x="714" y="248.2969"/><text fill="#000000" font-family="sans-serif" font-size="14" lengthAdjust="spacingAndGlyphs" textLength="112" x="729" y="244.9951">NodeJS Wrapper</text><!--entity rust_wrapper--><rect fill="#FEFECE" filter="url(#fdkj1cdnbt9g9)" height="36.2969" style="stroke: #A80036; stroke-width: 1.5;" width="115" x="568.5" y="222"/><rect fill="#FEFECE" height="5" style="stroke: #A80036; stroke-width: 1.5;" width="10" x="563.5" y="227"/><rect fill="#FEFECE" height="5" style="stroke: #A80036; stroke-width: 1.5;" width="10" x="563.5" y="248.2969"/><text fill="#000000" font-family="sans-serif" font-size="14" lengthAdjust="spacingAndGlyphs" textLength="95" x="578.5" y="244.9951">Rust Wrapper</text><!--entity python_wrapper--><rect fill="#FEFECE" filter="url(#fdkj1cdnbt9g9)" height="36.2969" style="stroke: #A80036; stroke-width: 1.5;" width="131" x="402.5" y="222"/><rect fill="#FEFECE" height="5" style="stroke: #A80036; stroke-width: 1.5;" width="10" x="397.5" y="227"/><rect fill="#FEFECE" height="5" style="stroke: #A80036; stroke-width: 1.5;" width="10" x="397.5" y="248.2969"/><text fill="#000000" font-family="sans-serif" font-size="14" lengthAdjust="spacingAndGlyphs" textLength="111" x="412.5" y="244.9951">Python Wrapper</text><!--entity objc_wrapper--><rect fill="#FEFECE" filter="url(#fdkj1cdnbt9g9)" height="36.2969" style="stroke: #A80036; stroke-width: 1.5;" width="197" x="170.5" y="222"/><rect fill="#FEFECE" height="5" style="stroke: #A80036; stroke-width: 1.5;" width="10" x="165.5" y="227"/><rect fill="#FEFECE" height="5" style="stroke: #A80036; stroke-width: 1.5;" width="10" x="165.5" y="248.2969"/><text fill="#000000" font-family="sans-serif" font-size="14" lengthAdjust="spacingAndGlyphs" textLength="177" x="180.5" y="244.9951">ObjectiveC Wrapper (iOS)</text><!--entity dnet_wrapper--><rect fill="#FEFECE" filter="url(#fdkj1cdnbt9g9)" height="36.2969" style="stroke: #A80036; stroke-width: 1.5;" width="113" x="22.5" y="222"/><rect fill="#FEFECE" height="5" style="stroke: #A80036; stroke-width: 1.5;" width="10" x="17.5" y="227"/><rect fill="#FEFECE" height="5" style="stroke: #A80036; stroke-width: 1.5;" width="10" x="17.5" y="248.2969"/><text fill="#000000" font-family="sans-serif" font-size="14" lengthAdjust="spacingAndGlyphs" textLength="93" x="32.5" y="244.9951">.Net Wrapper</text><!--entity libnullpay--><rect fill="#FEFECE" filter="url(#fdkj1cdnbt9g9)" height="36.2969" style="stroke: #A80036; stroke-width: 1.5;" width="82" x="1031" y="222"/><rect fill="#FEFECE" height="5" style="stroke: #A80036; stroke-width: 1.5;" width="10" x="1026" y="227"/><rect fill="#FEFECE" height="5" style="stroke: #A80036; stroke-width: 1.5;" width="10" x="1026" y="248.2969"/><text fill="#000000" font-family="sans-serif" font-size="14" lengthAdjust="spacingAndGlyphs" textLength="62" x="1041" y="244.9951">libnullpay</text><!--entity Postgres--><rect fill="#FEFECE" filter="url(#fdkj1cdnbt9g9)" height="36.2969" style="stroke: #A80036; stroke-width: 1.5;" width="83" x="1271.5" y="222"/><rect fill="#FEFECE" height="5" style="stroke: #A80036; stroke-width: 1.5;" width="10" x="1266.5" y="227"/><rect fill="#FEFECE" height="5" style="stroke: #A80036; stroke-width: 1.5;" width="10" x="1266.5" y="248.2969"/><text fill="#000000" font-family="sans-serif" font-size="14" lengthAdjust="spacingAndGlyphs" textLength="63" x="1281.5" y="244.9951">Postgres</text><!--entity objc_wrapper_libvcx--><rect fill="#FEFECE" filter="url(#fdkj1cdnbt9g9)" height="36.2969" style="stroke: #A80036; stroke-width: 1.5;" width="197" x="847.5" y="532"/><rect fill="#FEFECE" height="5" style="stroke: #A80036; stroke-width: 1.5;" width="10" x="842.5" y="537"/><rect fill="#FEFECE" height="5" style="stroke: #A80036; stroke-width: 1.5;" width="10" x="842.5" y="558.2969"/><text fill="#000000" font-family="sans-serif" font-size="14" lengthAdjust="spacingAndGlyphs" textLength="177" x="857.5" y="554.9951">ObjectiveC Wrapper (iOS)</text><!--entity java_wrapper_libvcx--><rect fill="#FEFECE" filter="url(#fdkj1cdnbt9g9)" height="36.2969" style="stroke: #A80036; stroke-width: 1.5;" width="110" x="702" y="532"/><rect fill="#FEFECE" height="5" style="stroke: #A80036; stroke-width: 1.5;" width="10" x="697" y="537"/><rect fill="#FEFECE" height="5" style="stroke: #A80036; stroke-width: 1.5;" width="10" x="697" y="558.2969"/><text fill="#000000" font-family="sans-serif" font-size="14" lengthAdjust="spacingAndGlyphs" textLength="90" x="712" y="554.9951">Java Wrapper</text><!--entity nodejs_wrapper_libvcx--><rect fill="#FEFECE" filter="url(#fdkj1cdnbt9g9)" height="36.2969" style="stroke: #A80036; stroke-width: 1.5;" width="132" x="535" y="532"/><rect fill="#FEFECE" height="5" style="stroke: #A80036; stroke-width: 1.5;" width="10" x="530" y="537"/><rect fill="#FEFECE" height="5" style="stroke: #A80036; stroke-width: 1.5;" width="10" x="530" y="558.2969"/><text fill="#000000" font-family="sans-serif" font-size="14" lengthAdjust="spacingAndGlyphs" textLength="112" x="545" y="554.9951">NodeJS Wrapper</text><!--entity python_wrapper_libvcx--><rect fill="#FEFECE" filter="url(#fdkj1cdnbt9g9)" height="36.2969" style="stroke: #A80036; stroke-width: 1.5;" width="131" x="368.5" y="532"/><rect fill="#FEFECE" height="5" style="stroke: #A80036; stroke-width: 1.5;" width="10" x="363.5" y="537"/><rect fill="#FEFECE" height="5" style="stroke: #A80036; stroke-width: 1.5;" width="10" x="363.5" y="558.2969"/><text fill="#000000" font-family="sans-serif" font-size="14" lengthAdjust="spacingAndGlyphs" textLength="111" x="378.5" y="554.9951">Python Wrapper</text><!--entity cinterface--><ellipse cx="705" cy="133" fill="#FEFECE" filter="url(#fdkj1cdnbt9g9)" rx="8" ry="8" style="stroke: #A80036; stroke-width: 2.0;"/><text fill="#000000" font-family="sans-serif" font-size="14" lengthAdjust="spacingAndGlyphs" textLength="77" x="666.5" y="162.9951">C Interface</text><!--entity libindy--><rect fill="#FEFECE" filter="url(#fdkj1cdnbt9g9)" height="36.2969" style="stroke: #A80036; stroke-width: 1.5;" width="63" x="673.5" y="8"/><rect fill="#FEFECE" height="5" style="stroke: #A80036; stroke-width: 1.5;" width="10" x="668.5" y="13"/><rect fill="#FEFECE" height="5" style="stroke: #A80036; stroke-width: 1.5;" width="10" x="668.5" y="34.2969"/><text fill="#000000" font-family="sans-serif" font-size="14" lengthAdjust="spacingAndGlyphs" textLength="43" x="683.5" y="30.9951">libindy</text><!--entity cli--><rect fill="#FEFECE" filter="url(#fdkj1cdnbt9g9)" height="36.2969" style="stroke: #A80036; stroke-width: 1.5;" width="72" x="537" y="318"/><rect fill="#FEFECE" height="5" style="stroke: #A80036; stroke-width: 1.5;" width="10" x="532" y="323"/><rect fill="#FEFECE" height="5" style="stroke: #A80036; stroke-width: 1.5;" width="10" x="532" y="344.2969"/><text fill="#000000" font-family="sans-serif" font-size="14" lengthAdjust="spacingAndGlyphs" textLength="52" x="547" y="340.9951">Indy CLI</text><!--entity LibVCX--><rect fill="#FEFECE" filter="url(#fdkj1cdnbt9g9)" height="36.2969" style="stroke: #A80036; stroke-width: 1.5;" width="69" x="644.5" y="318"/><rect fill="#FEFECE" height="5" style="stroke: #A80036; stroke-width: 1.5;" width="10" x="639.5" y="323"/><rect fill="#FEFECE" height="5" style="stroke: #A80036; stroke-width: 1.5;" width="10" x="639.5" y="344.2969"/><text fill="#000000" font-family="sans-serif" font-size="14" lengthAdjust="spacingAndGlyphs" textLength="49" x="654.5" y="340.9951">LibVCX</text><!--entity cinterface_libvcx--><ellipse cx="679" cy="443" fill="#FEFECE" filter="url(#fdkj1cdnbt9g9)" rx="8" ry="8" style="stroke: #A80036; stroke-width: 2.0;"/><text fill="#000000" font-family="sans-serif" font-size="14" lengthAdjust="spacingAndGlyphs" textLength="130" x="614" y="472.9951">C Interface LibVCX</text><!--link libindy to cinterface--><path d="M705,44.1511 C705,67.2853 705,106.3808 705,123.9608 " fill="none" id="libindy-cinterface" style="stroke: #A80036; stroke-width: 1.0;"/><!--link cinterface to java_wrapper--><path d="M719.2099,136.5314 C748.315,144.0638 816.3963,163.2299 869,190 C886.4965,198.904 904.6422,211.5305 918.34,221.867 " fill="none" id="cinterface-java_wrapper" style="stroke: #A80036; stroke-width: 1.0; stroke-dasharray: 7.0,7.0;"/><polygon fill="#A80036" points="714.2414,135.2611,721.9701,141.3658,719.0856,136.4996,723.9517,133.6151,714.2414,135.2611" style="stroke: #A80036; stroke-width: 1.0;"/><!--link cinterface to nodejs_wrapper--><path d="M714.8211,146.1357 C729.0014,165.1019 755.2667,200.2317 771.3327,221.72 " fill="none" id="cinterface-nodejs_wrapper" style="stroke: #A80036; stroke-width: 1.0; stroke-dasharray: 7.0,7.0;"/><polygon fill="#A80036" points="711.8208,142.1228,714.0065,151.7261,714.8149,146.1273,720.4137,146.9356,711.8208,142.1228" style="stroke: #A80036; stroke-width: 1.0;"/><!--link cinterface to rust_wrapper--><path d="M694.9461,146.6173 C680.8634,165.6913 655.2284,200.4122 639.4964,221.72 " fill="none" id="cinterface-rust_wrapper" style="stroke: #A80036; stroke-width: 1.0; stroke-dasharray: 7.0,7.0;"/><polygon fill="#A80036" points="698.2645,142.1228,689.7008,146.9873,695.2946,146.1452,696.1367,151.7391,698.2645,142.1228" style="stroke: #A80036; stroke-width: 1.0;"/><!--link cinterface to python_wrapper--><path d="M690.6732,137.3072 C663.015,145.8375 600.616,166.1341 551,190 C531.7471,199.2609 511.1696,211.6387 495.3201,221.7616 " fill="none" id="cinterface-python_wrapper" style="stroke: #A80036; stroke-width: 1.0; stroke-dasharray: 7.0,7.0;"/><polygon fill="#A80036" points="695.7275,135.7605,685.951,134.5692,690.9464,137.2236,688.292,142.2191,695.7275,135.7605" style="stroke: #A80036; stroke-width: 1.0;"/><!--link cinterface to objc_wrapper--><path d="M690.9014,134.3383 C645.6489,138.8804 500.2984,155.3895 385,190 C357.3796,198.2911 327.5272,211.2574 305.0238,221.9081 " fill="none" id="cinterface-objc_wrapper" style="stroke: #A80036; stroke-width: 1.0; stroke-dasharray: 7.0,7.0;"/><polygon fill="#A80036" points="695.9151,133.8433,686.5656,130.747,690.9393,134.3346,687.3517,138.7082,695.9151,133.8433" style="stroke: #A80036; stroke-width: 1.0;"/><!--link cinterface to dnet_wrapper--><path d="M690.3979,133.5479 C613.6179,136.573 256.253,152.4787 153,190 C133.327,197.149 113.8241,210.6626 99.7828,221.8401 " fill="none" id="cinterface-dnet_wrapper" style="stroke: #A80036; stroke-width: 1.0; stroke-dasharray: 7.0,7.0;"/><polygon fill="#A80036" points="695.8179,133.3376,686.6695,129.6898,690.8217,133.5316,686.9799,137.6838,695.8179,133.3376" style="stroke: #A80036; stroke-width: 1.0;"/><!--link cinterface to payments--><path d="M719.2762,134.0208 C754.5067,136.5983 849.2743,143.8825 939.3159,153.8776 C984.3367,158.8752 1028.1761,164.5505 1062.801,170.654 C1080.1135,173.7058 1095.1224,176.8646 1106.8236,180.0994 C1112.6742,181.7167 1117.6979,183.3531 1121.7691,185.0045 C1123.8047,185.8302 1125.6023,186.6596 1127.146,187.4924 C1127.9178,187.9088 1128.6262,188.326 1129.2692,188.7439 C1129.5907,188.9529 1129.8959,189.1621 1130.1844,189.3714 C1130.3287,189.4761 1130.4688,189.5808 1130.6047,189.6856 " fill="none" id="cinterface-payments" style="stroke: #A80036; stroke-width: 1.0; stroke-dasharray: 7.0,7.0;"/><polygon fill="#A80036" points="714.2632,133.6565,722.9496,138.2983,719.25,134.0189,723.5295,130.3194,714.2632,133.6565" style="stroke: #A80036; stroke-width: 1.0;"/><!--link cinterface to wallets--><path d="M719.3217,133.3086 C765.3802,134.3604 915.1517,138.2366 1060.1075,146.9981 C1132.5854,151.3789 1203.8595,156.981 1260.3636,164.0621 C1288.6156,167.6027 1313.1752,171.513 1332.3465,175.8252 C1341.9322,177.9813 1350.1708,180.2379 1356.8503,182.5991 C1360.1901,183.7796 1363.1402,184.9863 1365.6739,186.2196 C1366.9408,186.8363 1368.1036,187.4596 1369.1591,188.0897 C1369.6868,188.4047 1370.1877,188.7214 1370.6613,189.0398 C1370.8981,189.199 1371.1281,189.3586 1371.3513,189.5186 " fill="none" id="cinterface-wallets" style="stroke: #A80036; stroke-width: 1.0; stroke-dasharray: 7.0,7.0;"/><polygon fill="#A80036" points="714.0892,133.1912,722.9972,137.3921,719.0879,133.3033,723.1767,129.3941,714.0892,133.1912" style="stroke: #A80036; stroke-width: 1.0;"/><!--link rust_wrapper to cli--><path d="M613.5068,262.6292 C604.2343,279.4246 591.7512,302.0356 583.1044,317.6977 " fill="none" id="rust_wrapper-cli" style="stroke: #A80036; stroke-width: 1.0; stroke-dasharray: 7.0,7.0;"/><polygon fill="#A80036" points="616.0311,258.0569,608.1795,264.0027,613.6146,262.4341,615.1831,267.8692,616.0311,258.0569" style="stroke: #A80036; stroke-width: 1.0;"/><!--link rust_wrapper to LibVCX--><path d="M638.4932,262.6292 C647.7657,279.4246 660.2488,302.0356 668.8956,317.6977 " fill="none" id="rust_wrapper-LibVCX" style="stroke: #A80036; stroke-width: 1.0; stroke-dasharray: 7.0,7.0;"/><polygon fill="#A80036" points="635.9689,258.0569,636.8169,267.8692,638.3854,262.4341,643.8205,264.0027,635.9689,258.0569" style="stroke: #A80036; stroke-width: 1.0;"/><!--link LibVCX to cinterface_libvcx--><path d="M679,354.1511 C679,377.2853 679,416.3808 679,433.9608 " fill="none" id="LibVCX-cinterface_libvcx" style="stroke: #A80036; stroke-width: 1.0;"/><!--link cinterface_libvcx to objc_wrapper_libvcx--><path d="M692.906,448.5728 C731.1176,463.8861 838.9783,507.1112 900.8611,531.9106 " fill="none" id="cinterface_libvcx-objc_wrapper_libvcx" style="stroke: #A80036; stroke-width: 1.0; stroke-dasharray: 7.0,7.0;"/><polygon fill="#A80036" points="688.1907,446.6832,695.0568,453.7441,692.8319,448.5432,698.0328,446.3183,688.1907,446.6832" style="stroke: #A80036; stroke-width: 1.0;"/><!--link cinterface_libvcx to java_wrapper_libvcx--><path d="M688.9266,456.6173 C702.831,475.6913 728.1416,510.4122 743.6744,531.72 " fill="none" id="cinterface_libvcx-java_wrapper_libvcx" style="stroke: #A80036; stroke-width: 1.0; stroke-dasharray: 7.0,7.0;"/><polygon fill="#A80036" points="685.6502,452.1228,687.7196,461.7518,688.5956,456.1632,694.1842,457.0392,685.6502,452.1228" style="stroke: #A80036; stroke-width: 1.0;"/><!--link cinterface_libvcx to nodejs_wrapper_libvcx--><path d="M669.0734,456.6173 C655.169,475.6913 629.8584,510.4122 614.3256,531.72 " fill="none" id="cinterface_libvcx-nodejs_wrapper_libvcx" style="stroke: #A80036; stroke-width: 1.0; stroke-dasharray: 7.0,7.0;"/><polygon fill="#A80036" points="672.3498,452.1228,663.8158,457.0392,669.4044,456.1632,670.2804,461.7518,672.3498,452.1228" style="stroke: #A80036; stroke-width: 1.0;"/><!--link cinterface_libvcx to python_wrapper_libvcx--><path d="M664.9208,447.7577 C636.6321,457.4615 571.0622,480.6839 518,505 C500.2526,513.1329 481.0192,523.3291 465.4403,531.9586 " fill="none" id="cinterface_libvcx-python_wrapper_libvcx" style="stroke: #A80036; stroke-width: 1.0; stroke-dasharray: 7.0,7.0;"/><polygon fill="#A80036" points="669.7576,446.1059,659.9479,445.2291,665.0259,447.7218,662.5332,452.7998,669.7576,446.1059" style="stroke: #A80036; stroke-width: 1.0;"/><!--
@startuml

() "C Interface" as cinterface
[libindy] - - cinterface

package "Libindy language bindings" {
    [Java Wrapper] as java_wrapper
    cinterface <.. java_wrapper
    
    [NodeJS Wrapper] as nodejs_wrapper
    cinterface <.. nodejs_wrapper
    
    [Rust Wrapper] as rust_wrapper
    cinterface <.. rust_wrapper
    
    [Python Wrapper] as python_wrapper
    cinterface <.. python_wrapper
    
    [ObjectiveC Wrapper (iOS)] as objc_wrapper
    cinterface <.. objc_wrapper

    [.Net Wrapper] as dnet_wrapper
    cinterface <.. dnet_wrapper
}

node "Pluggable payments" as payments {
    [libnullpay]
}

cinterface <.. payments

node "Pluggable wallet storages" as wallets {
    [Postgres]
}

cinterface <.. wallets

[Indy CLI] as cli
rust_wrapper <.. cli

rust_wrapper <.. [LibVCX]
() "C Interface LibVCX" as cinterface_libvcx
[LibVCX] - - cinterface_libvcx

package "LibVCX language bindings" {
    [ObjectiveC Wrapper (iOS)] as objc_wrapper_libvcx
    cinterface_libvcx <.. objc_wrapper_libvcx

    [Java Wrapper] as java_wrapper_libvcx
    cinterface_libvcx <.. java_wrapper_libvcx

    [NodeJS Wrapper] as nodejs_wrapper_libvcx
    cinterface_libvcx <.. nodejs_wrapper_libvcx

    [Python Wrapper] as python_wrapper_libvcx
    cinterface_libvcx <.. python_wrapper_libvcx
}

@enduml

PlantUML version 1.2019.08(Sat Jul 13 22:25:14 MSK 2019)
(GPL source distribution)
Java Runtime: OpenJDK Runtime Environment
JVM: OpenJDK 64-Bit Server VM
Java Version: 1.8.0_152-release-1343-b26
Operating System: Linux
OS Version: 5.0.4-arch1-1-ARCH
Default Encoding: UTF-8
Language: en
Country: US
--></g></svg>