<?xml version="1.0" encoding="UTF-8" standalone="no"?><svg xmlns="http://www.w3.org/2000/svg" xmlns:xlink="http://www.w3.org/1999/xlink" contentScriptType="application/ecmascript" contentStyleType="text/css" height="278px" preserveAspectRatio="none" style="width:1143px;height:278px;" version="1.1" viewBox="0 0 1143 278" width="1143px" zoomAndPan="magnify"><defs><filter height="300%" id="f10zjwmqk80s31" width="300%" x="-1" y="-1"><feGaussianBlur result="blurOut" stdDeviation="2.0"/><feColorMatrix in="blurOut" result="blurOut2" type="matrix" values="0 0 0 0 0 0 0 0 0 0 0 0 0 0 0 0 0 0 .4 0"/><feOffset dx="4.0" dy="4.0" in="blurOut2" result="blurOut3"/><feBlend in="SourceGraphic" in2="blurOut3" mode="normal"/></filter></defs><g><!--cluster Programming lanugages wrappers--><polygon fill="#FFFFFF" filter="url(#f10zjwmqk80s31)" points="105,195,383,195,390,217.2969,1121,217.2969,1121,266,105,266,105,195" style="stroke: #000000; stroke-width: 1.5;"/><line style="stroke: #000000; stroke-width: 1.5;" x1="105" x2="390" y1="217.2969" y2="217.2969"/><text fill="#000000" font-family="sans-serif" font-size="14" font-weight="bold" lengthAdjust="spacingAndGlyphs" textLength="272" x="109" y="209.9951">Programming lanugages wrappers</text><!--entity java_wrapper--><rect fill="#FEFECE" filter="url(#f10zjwmqk80s31)" height="36.2969" style="stroke: #A80036; stroke-width: 1.5;" width="108" x="1005" y="222"/><rect fill="#FEFECE" height="5" style="stroke: #A80036; stroke-width: 1.5;" width="10" x="1000" y="227"/><rect fill="#FEFECE" height="5" style="stroke: #A80036; stroke-width: 1.5;" width="10" x="1000" y="248.2969"/><text fill="#000000" font-family="sans-serif" font-size="14" lengthAdjust="spacingAndGlyphs" textLength="88" x="1015" y="244.9951">Java Wrapper</text><!--entity nodejs_wrapper--><rect fill="#FEFECE" filter="url(#f10zjwmqk80s31)" height="36.2969" style="stroke: #A80036; stroke-width: 1.5;" width="131" x="838.5" y="222"/><rect fill="#FEFECE" height="5" style="stroke: #A80036; stroke-width: 1.5;" width="10" x="833.5" y="227"/><rect fill="#FEFECE" height="5" style="stroke: #A80036; stroke-width: 1.5;" width="10" x="833.5" y="248.2969"/><text fill="#000000" font-family="sans-serif" font-size="14" lengthAdjust="spacingAndGlyphs" textLength="111" x="848.5" y="244.9951">NodeJS Wrapper</text><!--entity rust_wrapper--><rect fill="#FEFECE" filter="url(#f10zjwmqk80s31)" height="36.2969" style="stroke: #A80036; stroke-width: 1.5;" width="114" x="689" y="222"/><rect fill="#FEFECE" height="5" style="stroke: #A80036; stroke-width: 1.5;" width="10" x="684" y="227"/><rect fill="#FEFECE" height="5" style="stroke: #A80036; stroke-width: 1.5;" width="10" x="684" y="248.2969"/><text fill="#000000" font-family="sans-serif" font-size="14" lengthAdjust="spacingAndGlyphs" textLength="94" x="699" y="244.9951">Rust Wrapper</text><!--entity python_wrapper--><rect fill="#FEFECE" filter="url(#f10zjwmqk80s31)" height="36.2969" style="stroke: #A80036; stroke-width: 1.5;" width="130" x="524" y="222"/><rect fill="#FEFECE" height="5" style="stroke: #A80036; stroke-width: 1.5;" width="10" x="519" y="227"/><rect fill="#FEFECE" height="5" style="stroke: #A80036; stroke-width: 1.5;" width="10" x="519" y="248.2969"/><text fill="#000000" font-family="sans-serif" font-size="14" lengthAdjust="spacingAndGlyphs" textLength="110" x="534" y="244.9951">Python Wrapper</text><!--entity objc_wrapper--><rect fill="#FEFECE" filter="url(#f10zjwmqk80s31)" height="36.2969" style="stroke: #A80036; stroke-width: 1.5;" width="193" x="295.5" y="222"/><rect fill="#FEFECE" height="5" style="stroke: #A80036; stroke-width: 1.5;" width="10" x="290.5" y="227"/><rect fill="#FEFECE" height="5" style="stroke: #A80036; stroke-width: 1.5;" width="10" x="290.5" y="248.2969"/><text fill="#000000" font-family="sans-serif" font-size="14" lengthAdjust="spacingAndGlyphs" textLength="173" x="305.5" y="244.9951">ObjectiveC Wrapper (iOS)</text><!--entity dnet_wrapper--><rect fill="#FEFECE" filter="url(#f10zjwmqk80s31)" height="36.2969" style="stroke: #A80036; stroke-width: 1.5;" width="147" x="113.5" y="222"/><rect fill="#FEFECE" height="5" style="stroke: #A80036; stroke-width: 1.5;" width="10" x="108.5" y="227"/><rect fill="#FEFECE" height="5" style="stroke: #A80036; stroke-width: 1.5;" width="10" x="108.5" y="248.2969"/><text fill="#000000" font-family="sans-serif" font-size="14" lengthAdjust="spacingAndGlyphs" textLength="127" x="123.5" y="244.9951">.Net Wrapper (iOS)</text><!--entity cinterface--><ellipse cx="589" cy="133" fill="#FEFECE" filter="url(#f10zjwmqk80s31)" rx="8" ry="8" style="stroke: #A80036; stroke-width: 2.0;"/><text fill="#000000" font-family="sans-serif" font-size="14" lengthAdjust="spacingAndGlyphs" textLength="74" x="552" y="162.9951">C Interface</text><!--entity libindy--><rect fill="#FEFECE" filter="url(#f10zjwmqk80s31)" height="36.2969" style="stroke: #A80036; stroke-width: 1.5;" width="63" x="557.5" y="8"/><rect fill="#FEFECE" height="5" style="stroke: #A80036; stroke-width: 1.5;" width="10" x="552.5" y="13"/><rect fill="#FEFECE" height="5" style="stroke: #A80036; stroke-width: 1.5;" width="10" x="552.5" y="34.2969"/><text fill="#000000" font-family="sans-serif" font-size="14" lengthAdjust="spacingAndGlyphs" textLength="43" x="567.5" y="30.9951">libindy</text><!--entity cli--><rect fill="#FEFECE" filter="url(#f10zjwmqk80s31)" height="36.2969" style="stroke: #A80036; stroke-width: 1.5;" width="72" x="6" y="222"/><rect fill="#FEFECE" height="5" style="stroke: #A80036; stroke-width: 1.5;" width="10" x="1" y="227"/><rect fill="#FEFECE" height="5" style="stroke: #A80036; stroke-width: 1.5;" width="10" x="1" y="248.2969"/><text fill="#000000" font-family="sans-serif" font-size="14" lengthAdjust="spacingAndGlyphs" textLength="52" x="16" y="244.9951">Indy CLI</text><!--link libindy to cinterface--><path d="M589,44.1511 C589,67.2853 589,106.3808 589,123.9608 " fill="none" id="libindy-cinterface" style="stroke: #A80036; stroke-width: 1.0;"/><!--link cinterface to cli--><path d="M574.5667,133.7429 C503.0605,137.5846 186.6293,156.5184 97,195 C82.7158,201.1328 69.1689,212.1298 59.0939,221.7172 " fill="none" id="cinterface-cli" style="stroke: #A80036; stroke-width: 1.0; stroke-dasharray: 7.0,7.0;"/><polygon fill="#A80036" points="579.6483,133.4733,570.449,129.9559,574.6553,133.7383,570.8729,137.9447,579.6483,133.4733" style="stroke: #A80036; stroke-width: 1.0;"/><!--link cinterface to java_wrapper--><path d="M603.2731,134.4456 C665.5762,140.8742 913.8461,167.7509 987,195 C1004.4049,201.4831 1022.1188,212.4856 1035.6211,221.9882 " fill="none" id="cinterface-java_wrapper" style="stroke: #A80036; stroke-width: 1.0; stroke-dasharray: 7.0,7.0;"/><polygon fill="#A80036" points="598.1501,133.92,606.6947,138.8179,603.124,134.4304,607.5114,130.8597,598.1501,133.92" style="stroke: #A80036; stroke-width: 1.0;"/><!--link cinterface to nodejs_wrapper--><path d="M603.0288,135.5478 C639.7302,142.467 741.2584,163.2449 821,195 C839.4262,202.3378 858.9764,212.7922 874.4716,221.7778 " fill="none" id="cinterface-nodejs_wrapper" style="stroke: #A80036; stroke-width: 1.0; stroke-dasharray: 7.0,7.0;"/><polygon fill="#A80036" points="598.0945,134.6278,606.2087,140.2098,603.0098,135.5444,607.6752,132.3454,598.0945,134.6278" style="stroke: #A80036; stroke-width: 1.0;"/><!--link cinterface to rust_wrapper--><path d="M602.5304,142.2214 C628.4801,159.9068 685.6612,198.8774 719.4753,221.9227 " fill="none" id="cinterface-rust_wrapper" style="stroke: #A80036; stroke-width: 1.0; stroke-dasharray: 7.0,7.0;"/><polygon fill="#A80036" points="598.3509,139.3729,603.5351,147.7469,602.4825,142.1888,608.0406,141.1363,598.3509,139.3729" style="stroke: #A80036; stroke-width: 1.0;"/><!--link cinterface to python_wrapper--><path d="M589,147.6005 C589,166.8644 589,200.7734 589,221.72 " fill="none" id="cinterface-python_wrapper" style="stroke: #A80036; stroke-width: 1.0; stroke-dasharray: 7.0,7.0;"/><polygon fill="#A80036" points="589,142.1228,585,151.1228,589,147.1228,593,151.1228,589,142.1228" style="stroke: #A80036; stroke-width: 1.0;"/><!--link cinterface to objc_wrapper--><path d="M575.2098,140.4901 C544.3979,157.2255 469.2341,198.0505 425.3504,221.8858 " fill="none" id="cinterface-objc_wrapper" style="stroke: #A80036; stroke-width: 1.0; stroke-dasharray: 7.0,7.0;"/><polygon fill="#A80036" points="579.7625,138.0173,569.9446,138.7979,575.3688,140.4037,573.7629,145.8279,579.7625,138.0173" style="stroke: #A80036; stroke-width: 1.0;"/><!--link cinterface to dnet_wrapper--><path d="M574.6527,134.5033 C529.8149,139.4856 388.7113,157.3247 278,195 C257.4774,201.9839 235.6683,212.645 218.5467,221.8375 " fill="none" id="cinterface-dnet_wrapper" style="stroke: #A80036; stroke-width: 1.0; stroke-dasharray: 7.0,7.0;"/><polygon fill="#A80036" points="579.8676,133.934,570.4866,130.9345,574.8971,134.4767,571.3549,138.8872,579.8676,133.934" style="stroke: #A80036; stroke-width: 1.0;"/><!--
@startuml

() "C Interface" as cinterface
[libindy] - - cinterface

[Indy CLI] as cli
cinterface <.. cli

package "Programming lanugages wrappers" {
    [Java Wrapper] as java_wrapper
    cinterface <.. java_wrapper
    
    [NodeJS Wrapper] as nodejs_wrapper
    cinterface <.. nodejs_wrapper
    
    [Rust Wrapper] as rust_wrapper
    cinterface <.. rust_wrapper
    
    [Python Wrapper] as python_wrapper
    cinterface <.. python_wrapper
    
    [ObjectiveC Wrapper (iOS)] as objc_wrapper
    cinterface <.. objc_wrapper

    [.Net Wrapper (iOS)] as dnet_wrapper
    cinterface <.. dnet_wrapper
}

@enduml

PlantUML version 1.2018.11(Sat Sep 22 19:43:53 MSK 2018)
(GPL source distribution)
Java Runtime: OpenJDK Runtime Environment
JVM: OpenJDK 64-Bit Server VM
Java Version: 1.8.0_152-release-1136-b39
Operating System: Linux
OS Version: 5.0.8-arch1-1-ARCH
Default Encoding: UTF-8
Language: en
Country: US
--></g></svg>