<?xml version="1.0" encoding="UTF-8" standalone="no"?><svg xmlns="http://www.w3.org/2000/svg" xmlns:xlink="http://www.w3.org/1999/xlink" contentScriptType="application/ecmascript" contentStyleType="text/css" height="278px" preserveAspectRatio="none" style="width:1026px;height:278px;" version="1.1" viewBox="0 0 1026 278" width="1026px" zoomAndPan="magnify"><defs><filter height="300%" id="f18f5tojc48wl6" width="300%" x="-1" y="-1"><feGaussianBlur result="blurOut" stdDeviation="2.0"/><feColorMatrix in="blurOut" result="blurOut2" type="matrix" values="0 0 0 0 0 0 0 0 0 0 0 0 0 0 0 0 0 0 .4 0"/><feOffset dx="4.0" dy="4.0" in="blurOut2" result="blurOut3"/><feBlend in="SourceGraphic" in2="blurOut3" mode="normal"/></filter></defs><g><!--cluster Programming lanugages wrappers--><polygon fill="#FFFFFF" filter="url(#f18f5tojc48wl6)" points="14,195,301,195,308,217.2969,1004,217.2969,1004,266,14,266,14,195" style="stroke: #000000; stroke-width: 1.5;"/><line style="stroke: #000000; stroke-width: 1.5;" x1="14" x2="308" y1="217.2969" y2="217.2969"/><text fill="#000000" font-family="sans-serif" font-size="14" font-weight="bold" lengthAdjust="spacingAndGlyphs" textLength="281" x="18" y="209.9951">Programming lanugages wrappers</text><!--entity java_wrapper--><rect fill="#FEFECE" filter="url(#f18f5tojc48wl6)" height="36.2969" style="stroke: #A80036; stroke-width: 1.5;" width="110" x="886" y="222"/><rect fill="#FEFECE" height="5" style="stroke: #A80036; stroke-width: 1.5;" width="10" x="881" y="227"/><rect fill="#FEFECE" height="5" style="stroke: #A80036; stroke-width: 1.5;" width="10" x="881" y="248.2969"/><text fill="#000000" font-family="sans-serif" font-size="14" lengthAdjust="spacingAndGlyphs" textLength="90" x="896" y="244.9951">Java Wrapper</text><!--entity nodejs_wrapper--><rect fill="#FEFECE" filter="url(#f18f5tojc48wl6)" height="36.2969" style="stroke: #A80036; stroke-width: 1.5;" width="132" x="719" y="222"/><rect fill="#FEFECE" height="5" style="stroke: #A80036; stroke-width: 1.5;" width="10" x="714" y="227"/><rect fill="#FEFECE" height="5" style="stroke: #A80036; stroke-width: 1.5;" width="10" x="714" y="248.2969"/><text fill="#000000" font-family="sans-serif" font-size="14" lengthAdjust="spacingAndGlyphs" textLength="112" x="729" y="244.9951">NodeJS Wrapper</text><!--entity rust_wrapper--><rect fill="#FEFECE" filter="url(#f18f5tojc48wl6)" height="36.2969" style="stroke: #A80036; stroke-width: 1.5;" width="115" x="568.5" y="222"/><rect fill="#FEFECE" height="5" style="stroke: #A80036; stroke-width: 1.5;" width="10" x="563.5" y="227"/><rect fill="#FEFECE" height="5" style="stroke: #A80036; stroke-width: 1.5;" width="10" x="563.5" y="248.2969"/><text fill="#000000" font-family="sans-serif" font-size="14" lengthAdjust="spacingAndGlyphs" textLength="95" x="578.5" y="244.9951">Rust Wrapper</text><!--entity python_wrapper--><rect fill="#FEFECE" filter="url(#f18f5tojc48wl6)" height="36.2969" style="stroke: #A80036; stroke-width: 1.5;" width="131" x="402.5" y="222"/><rect fill="#FEFECE" height="5" style="stroke: #A80036; stroke-width: 1.5;" width="10" x="397.5" y="227"/><rect fill="#FEFECE" height="5" style="stroke: #A80036; stroke-width: 1.5;" width="10" x="397.5" y="248.2969"/><text fill="#000000" font-family="sans-serif" font-size="14" lengthAdjust="spacingAndGlyphs" textLength="111" x="412.5" y="244.9951">Python Wrapper</text><!--entity objc_wrapper--><rect fill="#FEFECE" filter="url(#f18f5tojc48wl6)" height="36.2969" style="stroke: #A80036; stroke-width: 1.5;" width="197" x="170.5" y="222"/><rect fill="#FEFECE" height="5" style="stroke: #A80036; stroke-width: 1.5;" width="10" x="165.5" y="227"/><rect fill="#FEFECE" height="5" style="stroke: #A80036; stroke-width: 1.5;" width="10" x="165.5" y="248.2969"/><text fill="#000000" font-family="sans-serif" font-size="14" lengthAdjust="spacingAndGlyphs" textLength="177" x="180.5" y="244.9951">ObjectiveC Wrapper (iOS)</text><!--entity dnet_wrapper--><rect fill="#FEFECE" filter="url(#f18f5tojc48wl6)" height="36.2969" style="stroke: #A80036; stroke-width: 1.5;" width="113" x="22.5" y="222"/><rect fill="#FEFECE" height="5" style="stroke: #A80036; stroke-width: 1.5;" width="10" x="17.5" y="227"/><rect fill="#FEFECE" height="5" style="stroke: #A80036; stroke-width: 1.5;" width="10" x="17.5" y="248.2969"/><text fill="#000000" font-family="sans-serif" font-size="14" lengthAdjust="spacingAndGlyphs" textLength="93" x="32.5" y="244.9951">.Net Wrapper</text><!--entity cinterface--><ellipse cx="547" cy="133" fill="#FEFECE" filter="url(#f18f5tojc48wl6)" rx="8" ry="8" style="stroke: #A80036; stroke-width: 2.0;"/><text fill="#000000" font-family="sans-serif" font-size="14" lengthAdjust="spacingAndGlyphs" textLength="77" x="508.5" y="162.9951">C Interface</text><!--entity libindy--><rect fill="#FEFECE" filter="url(#f18f5tojc48wl6)" height="36.2969" style="stroke: #A80036; stroke-width: 1.5;" width="63" x="515.5" y="8"/><rect fill="#FEFECE" height="5" style="stroke: #A80036; stroke-width: 1.5;" width="10" x="510.5" y="13"/><rect fill="#FEFECE" height="5" style="stroke: #A80036; stroke-width: 1.5;" width="10" x="510.5" y="34.2969"/><text fill="#000000" font-family="sans-serif" font-size="14" lengthAdjust="spacingAndGlyphs" textLength="43" x="525.5" y="30.9951">libindy</text><!--link libindy to cinterface--><path d="M547,44.1511 C547,67.2853 547,106.3808 547,123.9608 " fill="none" id="libindy-cinterface" style="stroke: #A80036; stroke-width: 1.0;"/><!--link cinterface to java_wrapper--><path d="M561.1244,133.8696 C607.0494,137.079 755.7119,150.4841 869,195 C886.0121,201.6848 903.4363,212.4516 916.882,221.7775 " fill="none" id="cinterface-java_wrapper" style="stroke: #A80036; stroke-width: 1.0; stroke-dasharray: 7.0,7.0;"/><polygon fill="#A80036" points="556.0424,133.5274,564.7531,138.1234,561.0311,133.8635,565.291,130.1415,556.0424,133.5274" style="stroke: #A80036; stroke-width: 1.0;"/><!--link cinterface to nodejs_wrapper--><path d="M561.1805,138.1172 C588.5879,148.1367 650.5757,171.4288 701,195 C718.5354,203.197 737.588,213.301 753.1083,221.8566 " fill="none" id="cinterface-nodejs_wrapper" style="stroke: #A80036; stroke-width: 1.0; stroke-dasharray: 7.0,7.0;"/><polygon fill="#A80036" points="556.1738,136.2941,563.2621,143.132,560.872,138.0048,565.9992,135.6148,556.1738,136.2941" style="stroke: #A80036; stroke-width: 1.0;"/><!--link cinterface to rust_wrapper--><path d="M557.0539,146.6173 C571.1366,165.6913 596.7716,200.4122 612.5036,221.72 " fill="none" id="cinterface-rust_wrapper" style="stroke: #A80036; stroke-width: 1.0; stroke-dasharray: 7.0,7.0;"/><polygon fill="#A80036" points="553.7355,142.1228,555.8633,151.7391,556.7054,146.1452,562.2992,146.9873,553.7355,142.1228" style="stroke: #A80036; stroke-width: 1.0;"/><!--link cinterface to python_wrapper--><path d="M536.9461,146.6173 C522.8634,165.6913 497.2284,200.4122 481.4964,221.72 " fill="none" id="cinterface-python_wrapper" style="stroke: #A80036; stroke-width: 1.0; stroke-dasharray: 7.0,7.0;"/><polygon fill="#A80036" points="540.2645,142.1228,531.7008,146.9873,537.2946,146.1452,538.1367,151.7391,540.2645,142.1228" style="stroke: #A80036; stroke-width: 1.0;"/><!--link cinterface to objc_wrapper--><path d="M533.0674,138.3078 C505.0223,148.9974 439.7597,173.8999 385,195 C362.0215,203.8541 336.5051,213.7462 315.2677,221.996 " fill="none" id="cinterface-objc_wrapper" style="stroke: #A80036; stroke-width: 1.0; stroke-dasharray: 7.0,7.0;"/><polygon fill="#A80036" points="537.86,136.4814,528.0255,135.949,533.1878,138.2621,530.8747,143.4244,537.86,136.4814" style="stroke: #A80036; stroke-width: 1.0;"/><!--link cinterface to dnet_wrapper--><path d="M532.5942,133.2679 C480.061,134.6554 294.4598,143.1674 153,195 C135.3522,201.4664 117.2956,212.3468 103.437,221.7889 " fill="none" id="cinterface-dnet_wrapper" style="stroke: #A80036; stroke-width: 1.0; stroke-dasharray: 7.0,7.0;"/><polygon fill="#A80036" points="537.7981,133.1428,528.7045,129.3605,532.7995,133.2631,528.8969,137.3582,537.7981,133.1428" style="stroke: #A80036; stroke-width: 1.0;"/><!--
@startuml

() "C Interface" as cinterface
[libindy] - - cinterface

package "Programming lanugages wrappers" {
    [Java Wrapper] as java_wrapper
    cinterface <.. java_wrapper
    
    [NodeJS Wrapper] as nodejs_wrapper
    cinterface <.. nodejs_wrapper
    
    [Rust Wrapper] as rust_wrapper
    cinterface <.. rust_wrapper
    
    [Python Wrapper] as python_wrapper
    cinterface <.. python_wrapper
    
    [ObjectiveC Wrapper (iOS)] as objc_wrapper
    cinterface <.. objc_wrapper

    [.Net Wrapper] as dnet_wrapper
    cinterface <.. dnet_wrapper
}

@enduml

PlantUML version 1.2019.08(Sat Jul 13 22:25:14 MSK 2019)
(GPL source distribution)
Java Runtime: OpenJDK Runtime Environment
JVM: OpenJDK 64-Bit Server VM
Java Version: 1.8.0_152-release-1343-b26
Operating System: Linux
OS Version: 5.0.4-arch1-1-ARCH
Default Encoding: UTF-8
Language: en
Country: US
--></g></svg>