<?xml version="1.0" encoding="UTF-8" standalone="no"?><svg xmlns="http://www.w3.org/2000/svg" xmlns:xlink="http://www.w3.org/1999/xlink" contentScriptType="application/ecmascript" contentStyleType="text/css" height="291px" preserveAspectRatio="none" style="width:1635px;height:291px;" version="1.1" viewBox="0 0 1635 291" width="1635px" zoomAndPan="magnify"><defs><filter height="300%" id="f2osj96t19bk6" width="300%" x="-1" y="-1"><feGaussianBlur result="blurOut" stdDeviation="2.0"/><feColorMatrix in="blurOut" result="blurOut2" type="matrix" values="0 0 0 0 0 0 0 0 0 0 0 0 0 0 0 0 0 0 .4 0"/><feOffset dx="4.0" dy="4.0" in="blurOut2" result="blurOut3"/><feBlend in="SourceGraphic" in2="blurOut3" mode="normal"/></filter></defs><g><!--cluster la--><polygon fill="#FFFFFF" filter="url(#f2osj96t19bk6)" points="23,16,115,16,122,38.2969,1611,38.2969,1611,87,23,87,23,16" style="stroke: #000000; stroke-width: 1.5;"/><line style="stroke: #000000; stroke-width: 1.5;" x1="23" x2="122" y1="38.2969" y2="38.2969"/><text fill="#000000" font-family="sans-serif" font-size="14" font-weight="bold" lengthAdjust="spacingAndGlyphs" textLength="86" x="27" y="30.9951">Libindy API</text><!--cluster lce--><polygon fill="#FFFFFF" filter="url(#f2osj96t19bk6)" points="14,112,252,112,259,134.2969,1613,134.2969,1613,183,14,183,14,112" style="stroke: #000000; stroke-width: 1.5;"/><line style="stroke: #000000; stroke-width: 1.5;" x1="14" x2="259" y1="134.2969" y2="134.2969"/><text fill="#000000" font-family="sans-serif" font-size="14" font-weight="bold" lengthAdjust="spacingAndGlyphs" textLength="232" x="18" y="126.9951">Libindy Commands Executors</text><!--cluster ls--><polygon fill="#FFFFFF" filter="url(#f2osj96t19bk6)" points="402,208,537,208,544,230.2969,1528,230.2969,1528,279,402,279,402,208" style="stroke: #000000; stroke-width: 1.5;"/><line style="stroke: #000000; stroke-width: 1.5;" x1="402" x2="544" y1="230.2969" y2="230.2969"/><text fill="#000000" font-family="sans-serif" font-size="14" font-weight="bold" lengthAdjust="spacingAndGlyphs" textLength="129" x="406" y="222.9951">Libindy Services</text><!--entity anoncreds_api--><rect fill="#FEFECE" filter="url(#f2osj96t19bk6)" height="36.2969" style="stroke: #A80036; stroke-width: 1.5;" width="120" x="1314" y="43"/><rect fill="#FEFECE" height="5" style="stroke: #A80036; stroke-width: 1.5;" width="10" x="1309" y="48"/><rect fill="#FEFECE" height="5" style="stroke: #A80036; stroke-width: 1.5;" width="10" x="1309" y="69.2969"/><text fill="#000000" font-family="sans-serif" font-size="14" lengthAdjust="spacingAndGlyphs" textLength="100" x="1324" y="65.9951">Anoncreds API</text><!--entity bs_api--><rect fill="#FEFECE" filter="url(#f2osj96t19bk6)" height="36.2969" style="stroke: #A80036; stroke-width: 1.5;" width="134" x="1469" y="43"/><rect fill="#FEFECE" height="5" style="stroke: #A80036; stroke-width: 1.5;" width="10" x="1464" y="48"/><rect fill="#FEFECE" height="5" style="stroke: #A80036; stroke-width: 1.5;" width="10" x="1464" y="69.2969"/><text fill="#000000" font-family="sans-serif" font-size="14" lengthAdjust="spacingAndGlyphs" textLength="114" x="1479" y="65.9951">Blob Storage API</text><!--entity cache_api--><rect fill="#FEFECE" filter="url(#f2osj96t19bk6)" height="36.2969" style="stroke: #A80036; stroke-width: 1.5;" width="89" x="959.5" y="43"/><rect fill="#FEFECE" height="5" style="stroke: #A80036; stroke-width: 1.5;" width="10" x="954.5" y="48"/><rect fill="#FEFECE" height="5" style="stroke: #A80036; stroke-width: 1.5;" width="10" x="954.5" y="69.2969"/><text fill="#000000" font-family="sans-serif" font-size="14" lengthAdjust="spacingAndGlyphs" textLength="69" x="969.5" y="65.9951">Cache API</text><!--entity crypto_api--><rect fill="#FEFECE" filter="url(#f2osj96t19bk6)" height="36.2969" style="stroke: #A80036; stroke-width: 1.5;" width="90" x="1189" y="43"/><rect fill="#FEFECE" height="5" style="stroke: #A80036; stroke-width: 1.5;" width="10" x="1184" y="48"/><rect fill="#FEFECE" height="5" style="stroke: #A80036; stroke-width: 1.5;" width="10" x="1184" y="69.2969"/><text fill="#000000" font-family="sans-serif" font-size="14" lengthAdjust="spacingAndGlyphs" textLength="70" x="1199" y="65.9951">Crypto API</text><!--entity did_api--><rect fill="#FEFECE" filter="url(#f2osj96t19bk6)" height="36.2969" style="stroke: #A80036; stroke-width: 1.5;" width="70" x="1084" y="43"/><rect fill="#FEFECE" height="5" style="stroke: #A80036; stroke-width: 1.5;" width="10" x="1079" y="48"/><rect fill="#FEFECE" height="5" style="stroke: #A80036; stroke-width: 1.5;" width="10" x="1079" y="69.2969"/><text fill="#000000" font-family="sans-serif" font-size="14" lengthAdjust="spacingAndGlyphs" textLength="50" x="1094" y="65.9951">DID API</text><!--entity ledger_api--><rect fill="#FEFECE" filter="url(#f2osj96t19bk6)" height="36.2969" style="stroke: #A80036; stroke-width: 1.5;" width="93" x="831.5" y="43"/><rect fill="#FEFECE" height="5" style="stroke: #A80036; stroke-width: 1.5;" width="10" x="826.5" y="48"/><rect fill="#FEFECE" height="5" style="stroke: #A80036; stroke-width: 1.5;" width="10" x="826.5" y="69.2969"/><text fill="#000000" font-family="sans-serif" font-size="14" lengthAdjust="spacingAndGlyphs" textLength="73" x="841.5" y="65.9951">Ledger API</text><!--entity logger_api--><rect fill="#FEFECE" filter="url(#f2osj96t19bk6)" height="36.2969" style="stroke: #A80036; stroke-width: 1.5;" width="93" x="703.5" y="43"/><rect fill="#FEFECE" height="5" style="stroke: #A80036; stroke-width: 1.5;" width="10" x="698.5" y="48"/><rect fill="#FEFECE" height="5" style="stroke: #A80036; stroke-width: 1.5;" width="10" x="698.5" y="69.2969"/><text fill="#000000" font-family="sans-serif" font-size="14" lengthAdjust="spacingAndGlyphs" textLength="73" x="713.5" y="65.9951">Logger API</text><!--entity nonsecrets_api--><rect fill="#FEFECE" filter="url(#f2osj96t19bk6)" height="36.2969" style="stroke: #A80036; stroke-width: 1.5;" width="130" x="417" y="43"/><rect fill="#FEFECE" height="5" style="stroke: #A80036; stroke-width: 1.5;" width="10" x="412" y="48"/><rect fill="#FEFECE" height="5" style="stroke: #A80036; stroke-width: 1.5;" width="10" x="412" y="69.2969"/><text fill="#000000" font-family="sans-serif" font-size="14" lengthAdjust="spacingAndGlyphs" textLength="110" x="427" y="65.9951">Non Secrets API</text><!--entity pairwise_api--><rect fill="#FEFECE" filter="url(#f2osj96t19bk6)" height="36.2969" style="stroke: #A80036; stroke-width: 1.5;" width="101" x="140.5" y="43"/><rect fill="#FEFECE" height="5" style="stroke: #A80036; stroke-width: 1.5;" width="10" x="135.5" y="48"/><rect fill="#FEFECE" height="5" style="stroke: #A80036; stroke-width: 1.5;" width="10" x="135.5" y="69.2969"/><text fill="#000000" font-family="sans-serif" font-size="14" lengthAdjust="spacingAndGlyphs" textLength="81" x="150.5" y="65.9951">Pairwise API</text><!--entity payment_api--><rect fill="#FEFECE" filter="url(#f2osj96t19bk6)" height="36.2969" style="stroke: #A80036; stroke-width: 1.5;" width="105" x="276.5" y="43"/><rect fill="#FEFECE" height="5" style="stroke: #A80036; stroke-width: 1.5;" width="10" x="271.5" y="48"/><rect fill="#FEFECE" height="5" style="stroke: #A80036; stroke-width: 1.5;" width="10" x="271.5" y="69.2969"/><text fill="#000000" font-family="sans-serif" font-size="14" lengthAdjust="spacingAndGlyphs" textLength="85" x="286.5" y="65.9951">Payment API</text><!--entity pool_api--><rect fill="#FEFECE" filter="url(#f2osj96t19bk6)" height="36.2969" style="stroke: #A80036; stroke-width: 1.5;" width="75" x="30.5" y="43"/><rect fill="#FEFECE" height="5" style="stroke: #A80036; stroke-width: 1.5;" width="10" x="25.5" y="48"/><rect fill="#FEFECE" height="5" style="stroke: #A80036; stroke-width: 1.5;" width="10" x="25.5" y="69.2969"/><text fill="#000000" font-family="sans-serif" font-size="14" lengthAdjust="spacingAndGlyphs" textLength="55" x="40.5" y="65.9951">Pool API</text><!--entity wallet_api--><rect fill="#FEFECE" filter="url(#f2osj96t19bk6)" height="36.2969" style="stroke: #A80036; stroke-width: 1.5;" width="86" x="582" y="43"/><rect fill="#FEFECE" height="5" style="stroke: #A80036; stroke-width: 1.5;" width="10" x="577" y="48"/><rect fill="#FEFECE" height="5" style="stroke: #A80036; stroke-width: 1.5;" width="10" x="577" y="69.2969"/><text fill="#000000" font-family="sans-serif" font-size="14" lengthAdjust="spacingAndGlyphs" textLength="66" x="592" y="65.9951">Wallet API</text><!--entity anoncreds_ce--><rect fill="#FEFECE" filter="url(#f2osj96t19bk6)" height="36.2969" style="stroke: #A80036; stroke-width: 1.5;" width="118" x="1320" y="139"/><rect fill="#FEFECE" height="5" style="stroke: #A80036; stroke-width: 1.5;" width="10" x="1315" y="144"/><rect fill="#FEFECE" height="5" style="stroke: #A80036; stroke-width: 1.5;" width="10" x="1315" y="165.2969"/><text fill="#000000" font-family="sans-serif" font-size="14" lengthAdjust="spacingAndGlyphs" textLength="98" x="1330" y="161.9951">Anoncreds CE</text><!--entity bs_ce--><rect fill="#FEFECE" filter="url(#f2osj96t19bk6)" height="36.2969" style="stroke: #A80036; stroke-width: 1.5;" width="132" x="1473" y="139"/><rect fill="#FEFECE" height="5" style="stroke: #A80036; stroke-width: 1.5;" width="10" x="1468" y="144"/><rect fill="#FEFECE" height="5" style="stroke: #A80036; stroke-width: 1.5;" width="10" x="1468" y="165.2969"/><text fill="#000000" font-family="sans-serif" font-size="14" lengthAdjust="spacingAndGlyphs" textLength="112" x="1483" y="161.9951">Blob Storage CE</text><!--entity cache_ce--><rect fill="#FEFECE" filter="url(#f2osj96t19bk6)" height="36.2969" style="stroke: #A80036; stroke-width: 1.5;" width="87" x="971.5" y="139"/><rect fill="#FEFECE" height="5" style="stroke: #A80036; stroke-width: 1.5;" width="10" x="966.5" y="144"/><rect fill="#FEFECE" height="5" style="stroke: #A80036; stroke-width: 1.5;" width="10" x="966.5" y="165.2969"/><text fill="#000000" font-family="sans-serif" font-size="14" lengthAdjust="spacingAndGlyphs" textLength="67" x="981.5" y="161.9951">Cache CE</text><!--entity crypto_ce--><rect fill="#FEFECE" filter="url(#f2osj96t19bk6)" height="36.2969" style="stroke: #A80036; stroke-width: 1.5;" width="88" x="1197" y="139"/><rect fill="#FEFECE" height="5" style="stroke: #A80036; stroke-width: 1.5;" width="10" x="1192" y="144"/><rect fill="#FEFECE" height="5" style="stroke: #A80036; stroke-width: 1.5;" width="10" x="1192" y="165.2969"/><text fill="#000000" font-family="sans-serif" font-size="14" lengthAdjust="spacingAndGlyphs" textLength="68" x="1207" y="161.9951">Crypto CE</text><!--entity did_ce--><rect fill="#FEFECE" filter="url(#f2osj96t19bk6)" height="36.2969" style="stroke: #A80036; stroke-width: 1.5;" width="68" x="1094" y="139"/><rect fill="#FEFECE" height="5" style="stroke: #A80036; stroke-width: 1.5;" width="10" x="1089" y="144"/><rect fill="#FEFECE" height="5" style="stroke: #A80036; stroke-width: 1.5;" width="10" x="1089" y="165.2969"/><text fill="#000000" font-family="sans-serif" font-size="14" lengthAdjust="spacingAndGlyphs" textLength="48" x="1104" y="161.9951">DID CE</text><!--entity ledger_ce--><rect fill="#FEFECE" filter="url(#f2osj96t19bk6)" height="36.2969" style="stroke: #A80036; stroke-width: 1.5;" width="91" x="845.5" y="139"/><rect fill="#FEFECE" height="5" style="stroke: #A80036; stroke-width: 1.5;" width="10" x="840.5" y="144"/><rect fill="#FEFECE" height="5" style="stroke: #A80036; stroke-width: 1.5;" width="10" x="840.5" y="165.2969"/><text fill="#000000" font-family="sans-serif" font-size="14" lengthAdjust="spacingAndGlyphs" textLength="71" x="855.5" y="161.9951">Ledger CE</text><!--entity logger_ce--><rect fill="#FEFECE" filter="url(#f2osj96t19bk6)" height="36.2969" style="stroke: #A80036; stroke-width: 1.5;" width="125" x="685.5" y="139"/><rect fill="#FEFECE" height="5" style="stroke: #A80036; stroke-width: 1.5;" width="10" x="680.5" y="144"/><rect fill="#FEFECE" height="5" style="stroke: #A80036; stroke-width: 1.5;" width="10" x="680.5" y="165.2969"/><text fill="#000000" font-family="sans-serif" font-size="14" lengthAdjust="spacingAndGlyphs" textLength="105" x="695.5" y="161.9951">Logger Helpers</text><!--entity nonsecrets_ce--><rect fill="#FEFECE" filter="url(#f2osj96t19bk6)" height="36.2969" style="stroke: #A80036; stroke-width: 1.5;" width="128" x="403" y="139"/><rect fill="#FEFECE" height="5" style="stroke: #A80036; stroke-width: 1.5;" width="10" x="398" y="144"/><rect fill="#FEFECE" height="5" style="stroke: #A80036; stroke-width: 1.5;" width="10" x="398" y="165.2969"/><text fill="#000000" font-family="sans-serif" font-size="14" lengthAdjust="spacingAndGlyphs" textLength="108" x="413" y="161.9951">Non Secrets CE</text><!--entity pairwise_ce--><rect fill="#FEFECE" filter="url(#f2osj96t19bk6)" height="36.2969" style="stroke: #A80036; stroke-width: 1.5;" width="99" x="130.5" y="139"/><rect fill="#FEFECE" height="5" style="stroke: #A80036; stroke-width: 1.5;" width="10" x="125.5" y="144"/><rect fill="#FEFECE" height="5" style="stroke: #A80036; stroke-width: 1.5;" width="10" x="125.5" y="165.2969"/><text fill="#000000" font-family="sans-serif" font-size="14" lengthAdjust="spacingAndGlyphs" textLength="79" x="140.5" y="161.9951">Pairwise CE</text><!--entity payment_ce--><rect fill="#FEFECE" filter="url(#f2osj96t19bk6)" height="36.2969" style="stroke: #A80036; stroke-width: 1.5;" width="103" x="264.5" y="139"/><rect fill="#FEFECE" height="5" style="stroke: #A80036; stroke-width: 1.5;" width="10" x="259.5" y="144"/><rect fill="#FEFECE" height="5" style="stroke: #A80036; stroke-width: 1.5;" width="10" x="259.5" y="165.2969"/><text fill="#000000" font-family="sans-serif" font-size="14" lengthAdjust="spacingAndGlyphs" textLength="83" x="274.5" y="161.9951">Payment CE</text><!--entity pool_ce--><rect fill="#FEFECE" filter="url(#f2osj96t19bk6)" height="36.2969" style="stroke: #A80036; stroke-width: 1.5;" width="73" x="22.5" y="139"/><rect fill="#FEFECE" height="5" style="stroke: #A80036; stroke-width: 1.5;" width="10" x="17.5" y="144"/><rect fill="#FEFECE" height="5" style="stroke: #A80036; stroke-width: 1.5;" width="10" x="17.5" y="165.2969"/><text fill="#000000" font-family="sans-serif" font-size="14" lengthAdjust="spacingAndGlyphs" textLength="53" x="32.5" y="161.9951">Pool CE</text><!--entity wallet_ce--><rect fill="#FEFECE" filter="url(#f2osj96t19bk6)" height="36.2969" style="stroke: #A80036; stroke-width: 1.5;" width="84" x="566" y="139"/><rect fill="#FEFECE" height="5" style="stroke: #A80036; stroke-width: 1.5;" width="10" x="561" y="144"/><rect fill="#FEFECE" height="5" style="stroke: #A80036; stroke-width: 1.5;" width="10" x="561" y="165.2969"/><text fill="#000000" font-family="sans-serif" font-size="14" lengthAdjust="spacingAndGlyphs" textLength="64" x="576" y="161.9951">Wallet CE</text><!--entity anoncreds_s--><rect fill="#FEFECE" filter="url(#f2osj96t19bk6)" height="36.2969" style="stroke: #A80036; stroke-width: 1.5;" width="149" x="1179.5" y="235"/><rect fill="#FEFECE" height="5" style="stroke: #A80036; stroke-width: 1.5;" width="10" x="1174.5" y="240"/><rect fill="#FEFECE" height="5" style="stroke: #A80036; stroke-width: 1.5;" width="10" x="1174.5" y="261.2969"/><text fill="#000000" font-family="sans-serif" font-size="14" lengthAdjust="spacingAndGlyphs" textLength="129" x="1189.5" y="257.9951">Anoncreds Service</text><!--entity bs_s--><rect fill="#FEFECE" filter="url(#f2osj96t19bk6)" height="36.2969" style="stroke: #A80036; stroke-width: 1.5;" width="156" x="1364" y="235"/><rect fill="#FEFECE" height="5" style="stroke: #A80036; stroke-width: 1.5;" width="10" x="1359" y="240"/><rect fill="#FEFECE" height="5" style="stroke: #A80036; stroke-width: 1.5;" width="10" x="1359" y="261.2969"/><text fill="#000000" font-family="sans-serif" font-size="14" lengthAdjust="spacingAndGlyphs" textLength="136" x="1374" y="257.9951">Blob Storage Serice</text><!--entity crypto_s--><rect fill="#FEFECE" filter="url(#f2osj96t19bk6)" height="36.2969" style="stroke: #A80036; stroke-width: 1.5;" width="119" x="1025.5" y="235"/><rect fill="#FEFECE" height="5" style="stroke: #A80036; stroke-width: 1.5;" width="10" x="1020.5" y="240"/><rect fill="#FEFECE" height="5" style="stroke: #A80036; stroke-width: 1.5;" width="10" x="1020.5" y="261.2969"/><text fill="#000000" font-family="sans-serif" font-size="14" lengthAdjust="spacingAndGlyphs" textLength="99" x="1035.5" y="257.9951">Crypto Service</text><!--entity ledger_s--><rect fill="#FEFECE" filter="url(#f2osj96t19bk6)" height="36.2969" style="stroke: #A80036; stroke-width: 1.5;" width="122" x="718" y="235"/><rect fill="#FEFECE" height="5" style="stroke: #A80036; stroke-width: 1.5;" width="10" x="713" y="240"/><rect fill="#FEFECE" height="5" style="stroke: #A80036; stroke-width: 1.5;" width="10" x="713" y="261.2969"/><text fill="#000000" font-family="sans-serif" font-size="14" lengthAdjust="spacingAndGlyphs" textLength="102" x="728" y="257.9951">Ledger Service</text><!--entity payment_s--><rect fill="#FEFECE" filter="url(#f2osj96t19bk6)" height="36.2969" style="stroke: #A80036; stroke-width: 1.5;" width="134" x="410" y="235"/><rect fill="#FEFECE" height="5" style="stroke: #A80036; stroke-width: 1.5;" width="10" x="405" y="240"/><rect fill="#FEFECE" height="5" style="stroke: #A80036; stroke-width: 1.5;" width="10" x="405" y="261.2969"/><text fill="#000000" font-family="sans-serif" font-size="14" lengthAdjust="spacingAndGlyphs" textLength="114" x="420" y="257.9951">Payment Service</text><!--entity pool_s--><rect fill="#FEFECE" filter="url(#f2osj96t19bk6)" height="36.2969" style="stroke: #A80036; stroke-width: 1.5;" width="104" x="579" y="235"/><rect fill="#FEFECE" height="5" style="stroke: #A80036; stroke-width: 1.5;" width="10" x="574" y="240"/><rect fill="#FEFECE" height="5" style="stroke: #A80036; stroke-width: 1.5;" width="10" x="574" y="261.2969"/><text fill="#000000" font-family="sans-serif" font-size="14" lengthAdjust="spacingAndGlyphs" textLength="84" x="589" y="257.9951">Pool Service</text><!--entity wallet_s--><rect fill="#FEFECE" filter="url(#f2osj96t19bk6)" height="36.2969" style="stroke: #A80036; stroke-width: 1.5;" width="115" x="875.5" y="235"/><rect fill="#FEFECE" height="5" style="stroke: #A80036; stroke-width: 1.5;" width="10" x="870.5" y="240"/><rect fill="#FEFECE" height="5" style="stroke: #A80036; stroke-width: 1.5;" width="10" x="870.5" y="261.2969"/><text fill="#000000" font-family="sans-serif" font-size="14" lengthAdjust="spacingAndGlyphs" textLength="95" x="885.5" y="257.9951">Wallet Service</text><!--link anoncreds_api to anoncreds_ce--><path d="M1374.9405,79.0569 C1375.7455,94.5126 1376.9096,116.8647 1377.7851,133.6731 " fill="none" id="anoncreds_api-anoncreds_ce" style="stroke: #A80036; stroke-width: 1.0; stroke-dasharray: 1.0,3.0;"/><polygon fill="#A80036" points="1378.0468,138.6977,1381.5731,129.5018,1377.7867,133.7045,1373.584,129.918,1378.0468,138.6977" style="stroke: #A80036; stroke-width: 1.0;"/><!--link bs_api to bs_ce--><path d="M1536.5643,79.0569 C1537.0473,94.5126 1537.7458,116.8647 1538.271,133.6731 " fill="none" id="bs_api-bs_ce" style="stroke: #A80036; stroke-width: 1.0; stroke-dasharray: 1.0,3.0;"/><polygon fill="#A80036" points="1538.4281,138.6977,1542.1451,129.5772,1538.272,133.7001,1534.149,129.827,1538.4281,138.6977" style="stroke: #A80036; stroke-width: 1.0;"/><!--link cache_api to cache_ce--><path d="M1006.069,79.0569 C1007.84,94.5126 1010.4012,116.8647 1012.3271,133.6731 " fill="none" id="cache_api-cache_ce" style="stroke: #A80036; stroke-width: 1.0; stroke-dasharray: 1.0,3.0;"/><polygon fill="#A80036" points="1012.9029,138.6977,1015.8522,129.3008,1012.3336,133.7302,1007.9042,130.2117,1012.9029,138.6977" style="stroke: #A80036; stroke-width: 1.0;"/><!--link crypto_api to crypto_ce--><path d="M1235.3166,79.0569 C1236.4436,94.5126 1238.0735,116.8647 1239.2991,133.6731 " fill="none" id="crypto_api-crypto_ce" style="stroke: #A80036; stroke-width: 1.0; stroke-dasharray: 1.0,3.0;"/><polygon fill="#A80036" points="1239.6655,138.6977,1243.0002,129.4306,1239.3018,133.7109,1235.0214,130.0125,1239.6655,138.6977" style="stroke: #A80036; stroke-width: 1.0;"/><!--link did_api to did_ce--><path d="M1120.6928,79.0569 C1122.1418,94.5126 1124.2373,116.8647 1125.8131,133.6731 " fill="none" id="did_api-did_ce" style="stroke: #A80036; stroke-width: 1.0; stroke-dasharray: 1.0,3.0;"/><polygon fill="#A80036" points="1126.2842,138.6977,1129.4266,129.3636,1125.8175,133.7195,1121.4616,130.1104,1126.2842,138.6977" style="stroke: #A80036; stroke-width: 1.0;"/><!--link ledger_api to ledger_ce--><path d="M880.4452,79.0569 C882.5382,94.5126 885.565,116.8647 887.8411,133.6731 " fill="none" id="ledger_api-ledger_ce" style="stroke: #A80036; stroke-width: 1.0; stroke-dasharray: 1.0,3.0;"/><polygon fill="#A80036" points="888.5216,138.6977,891.2776,129.2423,887.8506,133.7429,883.35,130.3159,888.5216,138.6977" style="stroke: #A80036; stroke-width: 1.0;"/><!--link logger_api to logger_ce--><path d="M749.6238,79.0569 C749.3018,94.5126 748.8362,116.8647 748.486,133.6731 " fill="none" id="logger_api-logger_ce" style="stroke: #A80036; stroke-width: 1.0; stroke-dasharray: 1.0,3.0;"/><polygon fill="#A80036" points="748.3813,138.6977,752.5681,129.7831,748.4856,133.6988,744.5699,129.6162,748.3813,138.6977" style="stroke: #A80036; stroke-width: 1.0;"/><!--link nonsecrets_api to nonsecrets_ce--><path d="M479.1786,79.0569 C476.7636,94.5126 473.2711,116.8647 470.6448,133.6731 " fill="none" id="nonsecrets_api-nonsecrets_ce" style="stroke: #A80036; stroke-width: 1.0; stroke-dasharray: 1.0,3.0;"/><polygon fill="#A80036" points="469.8597,138.6977,475.2011,130.4231,470.6316,133.7576,467.297,129.1881,469.8597,138.6977" style="stroke: #A80036; stroke-width: 1.0;"/><!--link pairwise_api to pairwise_ce--><path d="M188.931,79.0569 C187.16,94.5126 184.5988,116.8647 182.6729,133.6731 " fill="none" id="pairwise_api-pairwise_ce" style="stroke: #A80036; stroke-width: 1.0; stroke-dasharray: 1.0,3.0;"/><polygon fill="#A80036" points="182.0971,138.6977,187.0958,130.2117,182.6664,133.7302,179.1478,129.3008,182.0971,138.6977" style="stroke: #A80036; stroke-width: 1.0;"/><!--link payment_api to payment_ce--><path d="M326.5548,79.0569 C324.4618,94.5126 321.435,116.8647 319.1589,133.6731 " fill="none" id="payment_api-payment_ce" style="stroke: #A80036; stroke-width: 1.0; stroke-dasharray: 1.0,3.0;"/><polygon fill="#A80036" points="318.4784,138.6977,323.65,130.3159,319.1494,133.7429,315.7224,129.2423,318.4784,138.6977" style="stroke: #A80036; stroke-width: 1.0;"/><!--link pool_api to pool_ce--><path d="M66.3072,79.0569 C64.8582,94.5126 62.7627,116.8647 61.1869,133.6731 " fill="none" id="pool_api-pool_ce" style="stroke: #A80036; stroke-width: 1.0; stroke-dasharray: 1.0,3.0;"/><polygon fill="#A80036" points="60.7158,138.6977,65.5384,130.1104,61.1825,133.7195,57.5734,129.3636,60.7158,138.6977" style="stroke: #A80036; stroke-width: 1.0;"/><!--link wallet_api to wallet_ce--><path d="M621.8024,79.0569 C619.0655,94.5126 615.1073,116.8647 612.1308,133.6731 " fill="none" id="wallet_api-wallet_ce" style="stroke: #A80036; stroke-width: 1.0; stroke-dasharray: 1.0,3.0;"/><polygon fill="#A80036" points="611.241,138.6977,616.7493,130.5332,612.113,133.7743,608.8719,129.138,611.241,138.6977" style="stroke: #A80036; stroke-width: 1.0;"/><!--link anoncreds_ce to anoncreds_s--><path d="M1355.4885,175.0569 C1334.583,191.1122 1303.9879,214.6093 1281.8601,231.6035 " fill="none" id="anoncreds_ce-anoncreds_s" style="stroke: #A80036; stroke-width: 1.0; stroke-dasharray: 1.0,3.0;"/><polygon fill="#A80036" points="1277.8311,234.6977,1287.4054,232.3882,1281.7966,231.6522,1282.5326,226.0435,1277.8311,234.6977" style="stroke: #A80036; stroke-width: 1.0;"/><!--link anoncreds_ce to bs_s--><path d="M1390.8498,175.0569 C1401.0801,190.6459 1415.9145,213.2506 1426.9762,230.1065 " fill="none" id="anoncreds_ce-bs_s" style="stroke: #A80036; stroke-width: 1.0; stroke-dasharray: 1.0,3.0;"/><polygon fill="#A80036" points="1429.9891,234.6977,1428.3954,224.9786,1427.2458,230.5174,1421.707,229.3679,1429.9891,234.6977" style="stroke: #A80036; stroke-width: 1.0;"/><!--link anoncreds_ce to wallet_s--><path d="M1332.0686,175.0527 C1322.5642,178.1395 1312.5531,180.9929 1303,183 C1174.2302,210.054 1133.2091,167.5492 1008,208 C991.3832,213.3683 974.5607,222.9944 961.0706,231.9697 " fill="none" id="anoncreds_ce-wallet_s" style="stroke: #A80036; stroke-width: 1.0; stroke-dasharray: 1.0,3.0;"/><polygon fill="#A80036" points="956.6286,234.9814,966.3226,233.2416,960.7671,232.1755,961.8331,226.62,956.6286,234.9814" style="stroke: #A80036; stroke-width: 1.0;"/><!--link anoncreds_ce to crypto_s--><path d="M1329.8677,175.0402 C1320.9963,177.9441 1311.7768,180.735 1303,183 C1241.3749,198.9032 1221.7378,186.0462 1162,208 C1145.6785,213.9982 1128.8586,223.3939 1115.1186,232.0518 " fill="none" id="anoncreds_ce-crypto_s" style="stroke: #A80036; stroke-width: 1.0; stroke-dasharray: 1.0,3.0;"/><polygon fill="#A80036" points="1110.5822,234.9538,1120.3192,233.4735,1114.7941,232.2595,1116.0082,226.7344,1110.5822,234.9538" style="stroke: #A80036; stroke-width: 1.0;"/><!--link anoncreds_ce to pool_s--><path d="M1332.9473,175.1159 C1323.1972,178.2804 1312.8682,181.1475 1303,183 C1171.4056,207.7034 828.6562,167.6114 701,208 C685.0357,213.0509 669.179,222.7517 656.6045,231.857 " fill="none" id="anoncreds_ce-pool_s" style="stroke: #A80036; stroke-width: 1.0; stroke-dasharray: 1.0,3.0;"/><polygon fill="#A80036" points="652.4706,234.9144,662.0851,232.7787,656.4906,231.9413,657.3281,226.3467,652.4706,234.9144" style="stroke: #A80036; stroke-width: 1.0;"/><!--link bs_ce to bs_s--><path d="M1520.755,175.0569 C1504.7344,190.9124 1481.3805,214.0255 1464.2637,230.9658 " fill="none" id="bs_ce-bs_s" style="stroke: #A80036; stroke-width: 1.0; stroke-dasharray: 1.0,3.0;"/><polygon fill="#A80036" points="1460.4929,234.6977,1469.7035,231.2099,1464.0467,231.1806,1464.0761,225.5238,1460.4929,234.6977" style="stroke: #A80036; stroke-width: 1.0;"/><!--link cache_ce to wallet_s--><path d="M999.5764,175.0569 C986.147,190.7791 966.6221,213.6375 952.1868,230.5375 " fill="none" id="cache_ce-wallet_s" style="stroke: #A80036; stroke-width: 1.0; stroke-dasharray: 1.0,3.0;"/><polygon fill="#A80036" points="948.6332,234.6977,957.5201,230.4523,951.8806,230.8958,951.4371,225.2564,948.6332,234.6977" style="stroke: #A80036; stroke-width: 1.0;"/><!--link crypto_ce to crypto_s--><path d="M1211.6576,175.0569 C1185.2673,191.297 1146.5043,215.1512 1118.8201,232.1877 " fill="none" id="crypto_ce-crypto_s" style="stroke: #A80036; stroke-width: 1.0; stroke-dasharray: 1.0,3.0;"/><polygon fill="#A80036" points="1114.4756,234.8612,1124.2369,233.5508,1118.7339,232.2406,1120.044,226.7376,1114.4756,234.8612" style="stroke: #A80036; stroke-width: 1.0;"/><!--link crypto_ce to wallet_s--><path d="M1202.8197,175.0486 C1195.374,178.0586 1187.537,180.8846 1180,183 C1105.6261,203.8741 1080.7642,182.0657 1008,208 C991.8081,213.7711 975.2707,223.2375 961.8596,232.0027 " fill="none" id="crypto_ce-wallet_s" style="stroke: #A80036; stroke-width: 1.0; stroke-dasharray: 1.0,3.0;"/><polygon fill="#A80036" points="957.4364,234.942,967.1461,233.2922,961.6007,232.1746,962.7183,226.6293,957.4364,234.942" style="stroke: #A80036; stroke-width: 1.0;"/><!--link did_ce to crypto_s--><path d="M1119.912,175.0569 C1112.9294,190.6459 1102.8044,213.2506 1095.2544,230.1065 " fill="none" id="did_ce-crypto_s" style="stroke: #A80036; stroke-width: 1.0; stroke-dasharray: 1.0,3.0;"/><polygon fill="#A80036" points="1093.1979,234.6977,1100.5276,228.1193,1095.2419,230.1346,1093.2266,224.8489,1093.1979,234.6977" style="stroke: #A80036; stroke-width: 1.0;"/><!--link did_ce to ledger_s--><path d="M1096.2631,175.0433 C1089.7293,178.1309 1082.7725,180.987 1076,183 C982.5181,210.7857 950.6957,177.6945 858,208 C840.7327,213.6453 823.0236,223.3102 808.7602,232.2394 " fill="none" id="did_ce-ledger_s" style="stroke: #A80036; stroke-width: 1.0; stroke-dasharray: 1.0,3.0;"/><polygon fill="#A80036" points="804.4485,234.9816,814.1893,233.5269,808.6675,232.2983,809.8961,226.7765,804.4485,234.9816" style="stroke: #A80036; stroke-width: 1.0;"/><!--link did_ce to wallet_s--><path d="M1093.8503,174.7493 C1087.9502,177.6213 1081.8369,180.4771 1076,183 C1046.4428,195.7755 1037.0451,194.0996 1008,208 C993.356,215.0083 977.8623,224.0116 964.7828,232.1212 " fill="none" id="did_ce-wallet_s" style="stroke: #A80036; stroke-width: 1.0; stroke-dasharray: 1.0,3.0;"/><polygon fill="#A80036" points="960.4445,234.8329,970.1964,233.4545,964.6844,232.1827,965.9562,226.6707,960.4445,234.8329" style="stroke: #A80036; stroke-width: 1.0;"/><!--link ledger_ce to crypto_s--><path d="M933.9698,175.1045 C961.4345,186.797 994.3684,201.0761 1008,208 C1022.5112,215.3707 1038.0879,224.2756 1051.4085,232.212 " fill="none" id="ledger_ce-crypto_s" style="stroke: #A80036; stroke-width: 1.0; stroke-dasharray: 1.0,3.0;"/><polygon fill="#A80036" points="1055.8346,234.8627,1050.1686,226.8069,1051.545,232.2937,1046.0582,233.6702,1055.8346,234.8627" style="stroke: #A80036; stroke-width: 1.0;"/><!--link ledger_ce to ledger_s--><path d="M869.9337,175.0569 C851.2801,191.0456 824.0165,214.4144 804.2098,231.3916 " fill="none" id="ledger_ce-ledger_s" style="stroke: #A80036; stroke-width: 1.0; stroke-dasharray: 1.0,3.0;"/><polygon fill="#A80036" points="800.3527,234.6977,809.7892,231.8775,804.149,231.4437,804.5828,225.8035,800.3527,234.6977" style="stroke: #A80036; stroke-width: 1.0;"/><!--link ledger_ce to pool_s--><path d="M850.4188,175.1145 C843.0492,178.0104 835.3635,180.7795 828,183 C772.9222,199.6091 754.3628,186.5096 701,208 C686.07,214.0126 670.8778,223.3143 658.479,231.9037 " fill="none" id="ledger_ce-pool_s" style="stroke: #A80036; stroke-width: 1.0; stroke-dasharray: 1.0,3.0;"/><polygon fill="#A80036" points="654.3857,234.7835,664.0481,232.8763,658.475,231.9065,659.4449,226.3334,654.3857,234.7835" style="stroke: #A80036; stroke-width: 1.0;"/><!--link ledger_ce to wallet_s--><path d="M898.8999,175.0569 C905.7201,190.6459 915.6096,213.2506 922.9841,230.1065 " fill="none" id="ledger_ce-wallet_s" style="stroke: #A80036; stroke-width: 1.0; stroke-dasharray: 1.0,3.0;"/><polygon fill="#A80036" points="924.9927,234.6977,925.0499,224.849,922.9886,230.1169,917.7207,228.0556,924.9927,234.6977" style="stroke: #A80036; stroke-width: 1.0;"/><!--link nonsecrets_ce to wallet_s--><path d="M517.714,175.0412 C527.9624,178.129 538.7417,180.9857 549,183 C684.2004,209.5472 726.8097,165.893 858,208 C874.627,213.3366 891.4505,222.9595 904.9387,231.9408 " fill="none" id="nonsecrets_ce-wallet_s" style="stroke: #A80036; stroke-width: 1.0; stroke-dasharray: 1.0,3.0;"/><polygon fill="#A80036" points="909.38,234.9549,904.1793,226.5911,905.2428,232.1471,899.6868,233.2106,909.38,234.9549" style="stroke: #A80036; stroke-width: 1.0;"/><!--link pairwise_ce to wallet_s--><path d="M220.0938,175.0136 C228.8041,178.2282 238.0834,181.1411 247,183 C380.0312,210.7338 727.8085,169.0561 858,208 C874.8607,213.0435 891.827,222.7437 905.3475,231.8504 " fill="none" id="pairwise_ce-wallet_s" style="stroke: #A80036; stroke-width: 1.0; stroke-dasharray: 1.0,3.0;"/><polygon fill="#A80036" points="909.7954,234.9084,904.6453,226.5134,905.6752,232.0757,900.1129,233.1056,909.7954,234.9084" style="stroke: #A80036; stroke-width: 1.0;"/><!--link payment_ce to crypto_s--><path d="M357.3281,175.0138 C366.2958,178.2285 375.8417,181.1413 385,183 C520.7876,210.5584 875.0136,169.1112 1008,208 C1025.3736,213.0805 1042.9372,222.9053 1056.8941,232.0817 " fill="none" id="payment_ce-crypto_s" style="stroke: #A80036; stroke-width: 1.0; stroke-dasharray: 1.0,3.0;"/><polygon fill="#A80036" points="1061.1056,234.9028,1055.8544,226.5707,1056.9515,232.1201,1051.402,233.2172,1061.1056,234.9028" style="stroke: #A80036; stroke-width: 1.0;"/><!--link payment_ce to ledger_s--><path d="M358.1241,175.0069 C366.8718,178.1378 376.1294,181.0196 385,183 C522.4983,213.6973 566.4555,166.2162 701,208 C718.3191,213.3786 735.9579,223.1223 750.0707,232.171 " fill="none" id="payment_ce-ledger_s" style="stroke: #A80036; stroke-width: 1.0; stroke-dasharray: 1.0,3.0;"/><polygon fill="#A80036" points="754.3331,234.9512,748.9804,226.6839,750.1453,232.2195,744.6097,233.3844,754.3331,234.9512" style="stroke: #A80036; stroke-width: 1.0;"/><!--link payment_ce to payment_s--><path d="M346.2829,175.0569 C373.519,191.297 413.5244,215.1512 442.096,232.1877 " fill="none" id="payment_ce-payment_s" style="stroke: #A80036; stroke-width: 1.0; stroke-dasharray: 1.0,3.0;"/><polygon fill="#A80036" points="446.5797,234.8612,440.8981,226.8164,442.2852,232.3005,436.801,233.6876,446.5797,234.8612" style="stroke: #A80036; stroke-width: 1.0;"/><!--link payment_ce to wallet_s--><path d="M357.7153,175.057 C366.5743,178.2257 375.979,181.1095 385,183 C591.0396,226.18 656.6771,146.47 858,208 C874.8304,213.1438 891.7938,222.8535 905.3202,231.9405 " fill="none" id="payment_ce-wallet_s" style="stroke: #A80036; stroke-width: 1.0; stroke-dasharray: 1.0,3.0;"/><polygon fill="#A80036" points="909.7705,234.9908,904.6085,226.6031,905.6463,232.1639,900.0855,233.2018,909.7705,234.9908" style="stroke: #A80036; stroke-width: 1.0;"/><!--link pairwise_ce to pool_s--><path d="M220.8681,175.0157 C229.365,178.1459 238.3642,181.0252 247,183 C383.4743,214.2084 428.3492,163.2454 561,208 C576.7426,213.3113 592.4673,222.9317 605.0133,231.9178 " fill="none" id="pairwise_ce-pool_s" style="stroke: #A80036; stroke-width: 1.0; stroke-dasharray: 1.0,3.0;"/><polygon fill="#A80036" points="609.1416,234.9338,604.234,226.3948,605.1042,231.9843,599.5147,232.8545,609.1416,234.9338" style="stroke: #A80036; stroke-width: 1.0;"/><!--link pool_ce to pool_s--><path d="M91.345,175.0893 C98.3,178.2557 105.7454,181.1303 113,183 C306.1106,232.7692 371.3014,146.4927 561,208 C576.8044,213.1244 592.5354,222.7257 605.0696,231.7476 " fill="none" id="pool_ce-pool_s" style="stroke: #A80036; stroke-width: 1.0; stroke-dasharray: 1.0,3.0;"/><polygon fill="#A80036" points="609.1933,234.7777,604.3094,226.2251,605.1641,231.817,599.5722,232.6717,609.1933,234.7777" style="stroke: #A80036; stroke-width: 1.0;"/><!--link wallet_ce to wallet_s--><path d="M645.1878,175.0087 C652.6114,178.0602 660.4502,180.9116 668,183 C750.0896,205.7073 777.5799,179.9478 858,208 C874.2305,213.6615 890.7723,223.1153 904.1764,231.9005 " fill="none" id="wallet_ce-wallet_s" style="stroke: #A80036; stroke-width: 1.0; stroke-dasharray: 1.0,3.0;"/><polygon fill="#A80036" points="908.5969,234.8477,903.3276,226.5269,904.4368,232.074,898.8897,233.1831,908.5969,234.8477" style="stroke: #A80036; stroke-width: 1.0;"/><!--link wallet_ce to crypto_s--><path d="M644.4517,175.0937 C652.0722,178.2179 660.1729,181.075 668,183 C815.1346,219.1861 863.2994,163.0582 1008,208 C1025.1527,213.3274 1042.5705,223.0663 1056.4914,232.125 " fill="none" id="wallet_ce-crypto_s" style="stroke: #A80036; stroke-width: 1.0; stroke-dasharray: 1.0,3.0;"/><polygon fill="#A80036" points="1060.6953,234.9088,1055.4,226.6046,1056.5265,232.1481,1050.983,233.2746,1060.6953,234.9088" style="stroke: #A80036; stroke-width: 1.0;"/><!--
@startuml

package "Libindy API" as la {
    [Anoncreds API] as anoncreds_api
    [Blob Storage API] as bs_api
    [Cache API] as cache_api
    [Crypto API] as crypto_api
    [DID API] as did_api
    [Ledger API] as ledger_api
    [Logger API] as logger_api
    [Non Secrets API] as nonsecrets_api
    [Pairwise API] as pairwise_api
    [Payment API] as payment_api
    [Pool API] as pool_api
    [Wallet API] as wallet_api
}

package "Libindy Commands Executors" as lce {
    [Anoncreds CE] as anoncreds_ce
    [Blob Storage CE] as bs_ce
    [Cache CE] as cache_ce
    [Crypto CE] as crypto_ce
    [DID CE] as did_ce
    [Ledger CE] as ledger_ce
    [Logger Helpers] as logger_ce
    [Non Secrets CE] as nonsecrets_ce
    [Pairwise CE] as pairwise_ce
    [Payment CE] as payment_ce
    [Pool CE] as pool_ce
    [Wallet CE] as wallet_ce
}

package "Libindy Services" as ls {
    [Anoncreds Service] as anoncreds_s
    [Blob Storage Serice] as bs_s
    [Crypto Service] as crypto_s
    [Ledger Service] as ledger_s
    [Payment Service] as payment_s
    [Pool Service] as pool_s
    [Wallet Service] as wallet_s
}

anoncreds_api ~~> anoncreds_ce
bs_api ~~> bs_ce
cache_api ~~> cache_ce
crypto_api ~~> crypto_ce
did_api ~~> did_ce
ledger_api ~~> ledger_ce
logger_api ~~> logger_ce
nonsecrets_api ~~> nonsecrets_ce
pairwise_api ~~> pairwise_ce
payment_api ~~> payment_ce
pool_api ~~> pool_ce
wallet_api ~~> wallet_ce

anoncreds_ce ~~> anoncreds_s
anoncreds_ce ~~> bs_s
anoncreds_ce ~~> wallet_s
anoncreds_ce ~~> crypto_s
anoncreds_ce ~~> pool_s

bs_ce ~~> bs_s

cache_ce ~~> wallet_s

crypto_ce ~~> crypto_s
crypto_ce ~~> wallet_s

did_ce ~~> crypto_s
did_ce ~~> ledger_s
did_ce ~~> wallet_s

ledger_ce ~~> crypto_s
ledger_ce ~~> ledger_s
ledger_ce ~~> pool_s
ledger_ce ~~> wallet_s

nonsecrets_ce ~~> wallet_s

pairwise_ce ~~> wallet_s

payment_ce ~~> crypto_s
payment_ce ~~> ledger_s
payment_ce ~~> payment_s
payment_ce ~~> wallet_s

pairwise_ce ~~> pool_s

pool_ce ~~> pool_s

wallet_ce ~~> wallet_s
wallet_ce ~~> crypto_s

@enduml

PlantUML version 1.2019.08(Sat Jul 13 22:25:14 MSK 2019)
(GPL source distribution)
Java Runtime: OpenJDK Runtime Environment
JVM: OpenJDK 64-Bit Server VM
Java Version: 1.8.0_202-release-1483-b49
Operating System: Linux
OS Version: 4.15.0-58-generic
Default Encoding: UTF-8
Language: en
Country: US
--></g></svg>