<?xml version="1.0" encoding="UTF-8" standalone="no"?><svg xmlns="http://www.w3.org/2000/svg" xmlns:xlink="http://www.w3.org/1999/xlink" contentScriptType="application/ecmascript" contentStyleType="text/css" height="291px" preserveAspectRatio="none" style="width:916px;height:291px;" version="1.1" viewBox="0 0 916 291" width="916px" zoomAndPan="magnify"><defs><filter height="300%" id="fce0c2g6812pu" width="300%" x="-1" y="-1"><feGaussianBlur result="blurOut" stdDeviation="2.0"/><feColorMatrix in="blurOut" result="blurOut2" type="matrix" values="0 0 0 0 0 0 0 0 0 0 0 0 0 0 0 0 0 0 .4 0"/><feOffset dx="4.0" dy="4.0" in="blurOut2" result="blurOut3"/><feBlend in="SourceGraphic" in2="blurOut3" mode="normal"/></filter></defs><g><!--cluster la--><polygon fill="#FFFFFF" filter="url(#fce0c2g6812pu)" points="14,16,106,16,113,38.2969,894,38.2969,894,87,14,87,14,16" style="stroke: #000000; stroke-width: 1.5;"/><line style="stroke: #000000; stroke-width: 1.5;" x1="14" x2="113" y1="38.2969" y2="38.2969"/><text fill="#000000" font-family="sans-serif" font-size="14" font-weight="bold" lengthAdjust="spacingAndGlyphs" textLength="86" x="18" y="30.9951">Libindy API</text><!--cluster lce--><polygon fill="#FFFFFF" filter="url(#fce0c2g6812pu)" points="21,112,259,112,266,134.2969,888,134.2969,888,183,21,183,21,112" style="stroke: #000000; stroke-width: 1.5;"/><line style="stroke: #000000; stroke-width: 1.5;" x1="21" x2="266" y1="134.2969" y2="134.2969"/><text fill="#000000" font-family="sans-serif" font-size="14" font-weight="bold" lengthAdjust="spacingAndGlyphs" textLength="232" x="25" y="126.9951">Libindy Commands Executors</text><!--cluster ls--><polygon fill="#FFFFFF" filter="url(#fce0c2g6812pu)" points="97,208,232,208,239,230.2969,893,230.2969,893,279,97,279,97,208" style="stroke: #000000; stroke-width: 1.5;"/><line style="stroke: #000000; stroke-width: 1.5;" x1="97" x2="239" y1="230.2969" y2="230.2969"/><text fill="#000000" font-family="sans-serif" font-size="14" font-weight="bold" lengthAdjust="spacingAndGlyphs" textLength="129" x="101" y="222.9951">Libindy Services</text><!--entity anoncreds_api--><rect fill="#FEFECE" filter="url(#fce0c2g6812pu)" height="36.2969" style="stroke: #A80036; stroke-width: 1.5;" width="120" x="638" y="43"/><rect fill="#FEFECE" height="5" style="stroke: #A80036; stroke-width: 1.5;" width="10" x="633" y="48"/><rect fill="#FEFECE" height="5" style="stroke: #A80036; stroke-width: 1.5;" width="10" x="633" y="69.2969"/><text fill="#000000" font-family="sans-serif" font-size="14" lengthAdjust="spacingAndGlyphs" textLength="100" x="648" y="65.9951">Anoncreds API</text><!--entity crypto_api--><rect fill="#FEFECE" filter="url(#fce0c2g6812pu)" height="36.2969" style="stroke: #A80036; stroke-width: 1.5;" width="90" x="408" y="43"/><rect fill="#FEFECE" height="5" style="stroke: #A80036; stroke-width: 1.5;" width="10" x="403" y="48"/><rect fill="#FEFECE" height="5" style="stroke: #A80036; stroke-width: 1.5;" width="10" x="403" y="69.2969"/><text fill="#000000" font-family="sans-serif" font-size="14" lengthAdjust="spacingAndGlyphs" textLength="70" x="418" y="65.9951">Crypto API</text><!--entity cache_api--><rect fill="#FEFECE" filter="url(#fce0c2g6812pu)" height="36.2969" style="stroke: #A80036; stroke-width: 1.5;" width="89" x="162.5" y="43"/><rect fill="#FEFECE" height="5" style="stroke: #A80036; stroke-width: 1.5;" width="10" x="157.5" y="48"/><rect fill="#FEFECE" height="5" style="stroke: #A80036; stroke-width: 1.5;" width="10" x="157.5" y="69.2969"/><text fill="#000000" font-family="sans-serif" font-size="14" lengthAdjust="spacingAndGlyphs" textLength="69" x="172.5" y="65.9951">Cache API</text><!--entity did_api--><rect fill="#FEFECE" filter="url(#fce0c2g6812pu)" height="36.2969" style="stroke: #A80036; stroke-width: 1.5;" width="70" x="533" y="43"/><rect fill="#FEFECE" height="5" style="stroke: #A80036; stroke-width: 1.5;" width="10" x="528" y="48"/><rect fill="#FEFECE" height="5" style="stroke: #A80036; stroke-width: 1.5;" width="10" x="528" y="69.2969"/><text fill="#000000" font-family="sans-serif" font-size="14" lengthAdjust="spacingAndGlyphs" textLength="50" x="543" y="65.9951">DID API</text><!--entity ledger_api--><rect fill="#FEFECE" filter="url(#fce0c2g6812pu)" height="36.2969" style="stroke: #A80036; stroke-width: 1.5;" width="93" x="793.5" y="43"/><rect fill="#FEFECE" height="5" style="stroke: #A80036; stroke-width: 1.5;" width="10" x="788.5" y="48"/><rect fill="#FEFECE" height="5" style="stroke: #A80036; stroke-width: 1.5;" width="10" x="788.5" y="69.2969"/><text fill="#000000" font-family="sans-serif" font-size="14" lengthAdjust="spacingAndGlyphs" textLength="73" x="803.5" y="65.9951">Ledger API</text><!--entity payment_api--><rect fill="#FEFECE" filter="url(#fce0c2g6812pu)" height="36.2969" style="stroke: #A80036; stroke-width: 1.5;" width="105" x="22.5" y="43"/><rect fill="#FEFECE" height="5" style="stroke: #A80036; stroke-width: 1.5;" width="10" x="17.5" y="48"/><rect fill="#FEFECE" height="5" style="stroke: #A80036; stroke-width: 1.5;" width="10" x="17.5" y="69.2969"/><text fill="#000000" font-family="sans-serif" font-size="14" lengthAdjust="spacingAndGlyphs" textLength="85" x="32.5" y="65.9951">Payment API</text><!--entity wallet_api--><rect fill="#FEFECE" filter="url(#fce0c2g6812pu)" height="36.2969" style="stroke: #A80036; stroke-width: 1.5;" width="86" x="287" y="43"/><rect fill="#FEFECE" height="5" style="stroke: #A80036; stroke-width: 1.5;" width="10" x="282" y="48"/><rect fill="#FEFECE" height="5" style="stroke: #A80036; stroke-width: 1.5;" width="10" x="282" y="69.2969"/><text fill="#000000" font-family="sans-serif" font-size="14" lengthAdjust="spacingAndGlyphs" textLength="66" x="297" y="65.9951">Wallet API</text><!--entity anoncreds_ce--><rect fill="#FEFECE" filter="url(#fce0c2g6812pu)" height="36.2969" style="stroke: #A80036; stroke-width: 1.5;" width="118" x="635" y="139"/><rect fill="#FEFECE" height="5" style="stroke: #A80036; stroke-width: 1.5;" width="10" x="630" y="144"/><rect fill="#FEFECE" height="5" style="stroke: #A80036; stroke-width: 1.5;" width="10" x="630" y="165.2969"/><text fill="#000000" font-family="sans-serif" font-size="14" lengthAdjust="spacingAndGlyphs" textLength="98" x="645" y="161.9951">Anoncreds CE</text><!--entity crypto_ce--><rect fill="#FEFECE" filter="url(#fce0c2g6812pu)" height="36.2969" style="stroke: #A80036; stroke-width: 1.5;" width="88" x="409" y="139"/><rect fill="#FEFECE" height="5" style="stroke: #A80036; stroke-width: 1.5;" width="10" x="404" y="144"/><rect fill="#FEFECE" height="5" style="stroke: #A80036; stroke-width: 1.5;" width="10" x="404" y="165.2969"/><text fill="#000000" font-family="sans-serif" font-size="14" lengthAdjust="spacingAndGlyphs" textLength="68" x="419" y="161.9951">Crypto CE</text><!--entity cache_ce--><rect fill="#FEFECE" filter="url(#fce0c2g6812pu)" height="36.2969" style="stroke: #A80036; stroke-width: 1.5;" width="87" x="167.5" y="139"/><rect fill="#FEFECE" height="5" style="stroke: #A80036; stroke-width: 1.5;" width="10" x="162.5" y="144"/><rect fill="#FEFECE" height="5" style="stroke: #A80036; stroke-width: 1.5;" width="10" x="162.5" y="165.2969"/><text fill="#000000" font-family="sans-serif" font-size="14" lengthAdjust="spacingAndGlyphs" textLength="67" x="177.5" y="161.9951">Cache CE</text><!--entity did_ce--><rect fill="#FEFECE" filter="url(#fce0c2g6812pu)" height="36.2969" style="stroke: #A80036; stroke-width: 1.5;" width="68" x="532" y="139"/><rect fill="#FEFECE" height="5" style="stroke: #A80036; stroke-width: 1.5;" width="10" x="527" y="144"/><rect fill="#FEFECE" height="5" style="stroke: #A80036; stroke-width: 1.5;" width="10" x="527" y="165.2969"/><text fill="#000000" font-family="sans-serif" font-size="14" lengthAdjust="spacingAndGlyphs" textLength="48" x="542" y="161.9951">DID CE</text><!--entity ledger_ce--><rect fill="#FEFECE" filter="url(#fce0c2g6812pu)" height="36.2969" style="stroke: #A80036; stroke-width: 1.5;" width="91" x="788.5" y="139"/><rect fill="#FEFECE" height="5" style="stroke: #A80036; stroke-width: 1.5;" width="10" x="783.5" y="144"/><rect fill="#FEFECE" height="5" style="stroke: #A80036; stroke-width: 1.5;" width="10" x="783.5" y="165.2969"/><text fill="#000000" font-family="sans-serif" font-size="14" lengthAdjust="spacingAndGlyphs" textLength="71" x="798.5" y="161.9951">Ledger CE</text><!--entity payment_ce--><rect fill="#FEFECE" filter="url(#fce0c2g6812pu)" height="36.2969" style="stroke: #A80036; stroke-width: 1.5;" width="103" x="29.5" y="139"/><rect fill="#FEFECE" height="5" style="stroke: #A80036; stroke-width: 1.5;" width="10" x="24.5" y="144"/><rect fill="#FEFECE" height="5" style="stroke: #A80036; stroke-width: 1.5;" width="10" x="24.5" y="165.2969"/><text fill="#000000" font-family="sans-serif" font-size="14" lengthAdjust="spacingAndGlyphs" textLength="83" x="39.5" y="161.9951">Payment CE</text><!--entity wallet_ce--><rect fill="#FEFECE" filter="url(#fce0c2g6812pu)" height="36.2969" style="stroke: #A80036; stroke-width: 1.5;" width="84" x="290" y="139"/><rect fill="#FEFECE" height="5" style="stroke: #A80036; stroke-width: 1.5;" width="10" x="285" y="144"/><rect fill="#FEFECE" height="5" style="stroke: #A80036; stroke-width: 1.5;" width="10" x="285" y="165.2969"/><text fill="#000000" font-family="sans-serif" font-size="14" lengthAdjust="spacingAndGlyphs" textLength="64" x="300" y="161.9951">Wallet CE</text><!--entity anoncreds_s--><rect fill="#FEFECE" filter="url(#fce0c2g6812pu)" height="36.2969" style="stroke: #A80036; stroke-width: 1.5;" width="149" x="578.5" y="235"/><rect fill="#FEFECE" height="5" style="stroke: #A80036; stroke-width: 1.5;" width="10" x="573.5" y="240"/><rect fill="#FEFECE" height="5" style="stroke: #A80036; stroke-width: 1.5;" width="10" x="573.5" y="261.2969"/><text fill="#000000" font-family="sans-serif" font-size="14" lengthAdjust="spacingAndGlyphs" textLength="129" x="588.5" y="257.9951">Anoncreds Service</text><!--entity crypto_s--><rect fill="#FEFECE" filter="url(#fce0c2g6812pu)" height="36.2969" style="stroke: #A80036; stroke-width: 1.5;" width="119" x="424.5" y="235"/><rect fill="#FEFECE" height="5" style="stroke: #A80036; stroke-width: 1.5;" width="10" x="419.5" y="240"/><rect fill="#FEFECE" height="5" style="stroke: #A80036; stroke-width: 1.5;" width="10" x="419.5" y="261.2969"/><text fill="#000000" font-family="sans-serif" font-size="14" lengthAdjust="spacingAndGlyphs" textLength="99" x="434.5" y="257.9951">Crypto Service</text><!--entity ledger_s--><rect fill="#FEFECE" filter="url(#fce0c2g6812pu)" height="36.2969" style="stroke: #A80036; stroke-width: 1.5;" width="122" x="763" y="235"/><rect fill="#FEFECE" height="5" style="stroke: #A80036; stroke-width: 1.5;" width="10" x="758" y="240"/><rect fill="#FEFECE" height="5" style="stroke: #A80036; stroke-width: 1.5;" width="10" x="758" y="261.2969"/><text fill="#000000" font-family="sans-serif" font-size="14" lengthAdjust="spacingAndGlyphs" textLength="102" x="773" y="257.9951">Ledger Service</text><!--entity payment_s--><rect fill="#FEFECE" filter="url(#fce0c2g6812pu)" height="36.2969" style="stroke: #A80036; stroke-width: 1.5;" width="134" x="105" y="235"/><rect fill="#FEFECE" height="5" style="stroke: #A80036; stroke-width: 1.5;" width="10" x="100" y="240"/><rect fill="#FEFECE" height="5" style="stroke: #A80036; stroke-width: 1.5;" width="10" x="100" y="261.2969"/><text fill="#000000" font-family="sans-serif" font-size="14" lengthAdjust="spacingAndGlyphs" textLength="114" x="115" y="257.9951">Payment Service</text><!--entity wallet_s--><rect fill="#FEFECE" filter="url(#fce0c2g6812pu)" height="36.2969" style="stroke: #A80036; stroke-width: 1.5;" width="115" x="274.5" y="235"/><rect fill="#FEFECE" height="5" style="stroke: #A80036; stroke-width: 1.5;" width="10" x="269.5" y="240"/><rect fill="#FEFECE" height="5" style="stroke: #A80036; stroke-width: 1.5;" width="10" x="269.5" y="261.2969"/><text fill="#000000" font-family="sans-serif" font-size="14" lengthAdjust="spacingAndGlyphs" textLength="95" x="284.5" y="257.9951">Wallet Service</text><!--link anoncreds_api to anoncreds_ce--><path d="M697.2476,79.0569 C696.6036,94.5126 695.6723,116.8647 694.972,133.6731 " fill="none" id="anoncreds_api-anoncreds_ce" style="stroke: #A80036; stroke-width: 1.0; stroke-dasharray: 1.0,3.0;"/><polygon fill="#A80036" points="694.7626,138.6977,699.1338,129.872,694.9707,133.702,691.1407,129.539,694.7626,138.6977" style="stroke: #A80036; stroke-width: 1.0;"/><!--link wallet_api to wallet_ce--><path d="M330.3762,79.0569 C330.6982,94.5126 331.1638,116.8647 331.514,133.6731 " fill="none" id="wallet_api-wallet_ce" style="stroke: #A80036; stroke-width: 1.0; stroke-dasharray: 1.0,3.0;"/><polygon fill="#A80036" points="331.6187,138.6977,335.4301,129.6162,331.5144,133.6988,327.4319,129.7831,331.6187,138.6977" style="stroke: #A80036; stroke-width: 1.0;"/><!--link crypto_api to crypto_ce--><path d="M453,79.0569 C453,94.5126 453,116.8647 453,133.6731 " fill="none" id="crypto_api-crypto_ce" style="stroke: #A80036; stroke-width: 1.0; stroke-dasharray: 1.0,3.0;"/><polygon fill="#A80036" points="453,138.6977,457,129.6977,453,133.6977,449,129.6977,453,138.6977" style="stroke: #A80036; stroke-width: 1.0;"/><!--link cache_api to cache_ce--><path d="M207.7524,79.0569 C208.3964,94.5126 209.3277,116.8647 210.028,133.6731 " fill="none" id="cache_api-cache_ce" style="stroke: #A80036; stroke-width: 1.0; stroke-dasharray: 1.0,3.0;"/><polygon fill="#A80036" points="210.2374,138.6977,213.8593,129.539,210.0293,133.702,205.8662,129.872,210.2374,138.6977" style="stroke: #A80036; stroke-width: 1.0;"/><!--link did_api to did_ce--><path d="M567.6238,79.0569 C567.3018,94.5126 566.8362,116.8647 566.486,133.6731 " fill="none" id="did_api-did_ce" style="stroke: #A80036; stroke-width: 1.0; stroke-dasharray: 1.0,3.0;"/><polygon fill="#A80036" points="566.3813,138.6977,570.5681,129.7831,566.4856,133.6988,562.5699,129.6162,566.3813,138.6977" style="stroke: #A80036; stroke-width: 1.0;"/><!--link ledger_api to ledger_ce--><path d="M838.8714,79.0569 C837.9055,94.5126 836.5085,116.8647 835.4579,133.6731 " fill="none" id="ledger_api-ledger_ce" style="stroke: #A80036; stroke-width: 1.0; stroke-dasharray: 1.0,3.0;"/><polygon fill="#A80036" points="835.1439,138.6977,839.6977,129.9648,835.4559,133.7074,831.7133,129.4656,835.1439,138.6977" style="stroke: #A80036; stroke-width: 1.0;"/><!--link payment_api to payment_ce--><path d="M76.1286,79.0569 C77.0945,94.5126 78.4915,116.8647 79.5421,133.6731 " fill="none" id="payment_api-payment_ce" style="stroke: #A80036; stroke-width: 1.0; stroke-dasharray: 1.0,3.0;"/><polygon fill="#A80036" points="79.8561,138.6977,83.2867,129.4656,79.5441,133.7074,75.3023,129.9648,79.8561,138.6977" style="stroke: #A80036; stroke-width: 1.0;"/><!--link anoncreds_ce to anoncreds_s--><path d="M686.2882,175.0569 C679.6873,190.5126 670.1411,212.8647 662.9625,229.6731 " fill="none" id="anoncreds_ce-anoncreds_s" style="stroke: #A80036; stroke-width: 1.0; stroke-dasharray: 1.0,3.0;"/><polygon fill="#A80036" points="660.8166,234.6977,668.0303,227.9923,662.7806,230.0996,660.6733,224.8499,660.8166,234.6977" style="stroke: #A80036; stroke-width: 1.0;"/><!--link anoncreds_ce to wallet_s--><path d="M646.1979,175.0664 C636.9428,178.0747 627.2463,180.8956 618,183 C525.9209,203.9564 496.3635,177.473 407,208 C390.6042,213.6009 373.9247,223.1486 360.4715,232.0122 " fill="none" id="anoncreds_ce-wallet_s" style="stroke: #A80036; stroke-width: 1.0; stroke-dasharray: 1.0,3.0;"/><polygon fill="#A80036" points="356.0378,234.9852,365.7405,233.295,360.1906,232.2005,361.2851,226.6506,356.0378,234.9852" style="stroke: #A80036; stroke-width: 1.0;"/><!--link anoncreds_ce to crypto_s--><path d="M641.0584,175.0544 C616.3376,184.0515 586.75,195.6399 561,208 C546.0761,215.1635 530.1875,224.1924 516.743,232.2791 " fill="none" id="anoncreds_ce-crypto_s" style="stroke: #A80036; stroke-width: 1.0; stroke-dasharray: 1.0,3.0;"/><polygon fill="#A80036" points="512.2822,234.9813,522.0525,233.7395,516.5588,232.3907,517.9076,226.897,512.2822,234.9813" style="stroke: #A80036; stroke-width: 1.0;"/><!--link anoncreds_ce to ledger_s--><path d="M718.452,175.0569 C740.1936,191.1122 772.0126,214.6093 795.0255,231.6035 " fill="none" id="anoncreds_ce-ledger_s" style="stroke: #A80036; stroke-width: 1.0; stroke-dasharray: 1.0,3.0;"/><polygon fill="#A80036" points="799.2156,234.6977,794.3518,226.1336,795.1934,231.7275,789.5995,232.5691,799.2156,234.6977" style="stroke: #A80036; stroke-width: 1.0;"/><!--link crypto_ce to crypto_s--><path d="M458.8309,175.0569 C463.8218,190.5126 471.0396,212.8647 476.4673,229.6731 " fill="none" id="crypto_ce-crypto_s" style="stroke: #A80036; stroke-width: 1.0; stroke-dasharray: 1.0,3.0;"/><polygon fill="#A80036" points="478.0899,234.6977,479.1306,224.904,476.5534,229.9396,471.5177,227.3624,478.0899,234.6977" style="stroke: #A80036; stroke-width: 1.0;"/><!--link crypto_ce to wallet_s--><path d="M430.2408,175.0569 C410.0884,191.0456 380.6339,214.4144 359.2356,231.3916 " fill="none" id="crypto_ce-wallet_s" style="stroke: #A80036; stroke-width: 1.0; stroke-dasharray: 1.0,3.0;"/><polygon fill="#A80036" points="355.0685,234.6977,364.6051,232.2373,358.9854,231.59,359.6327,225.9703,355.0685,234.6977" style="stroke: #A80036; stroke-width: 1.0;"/><!--link cache_ce to wallet_s--><path d="M233.7592,175.0569 C253.9116,191.0456 283.3661,214.4144 304.7644,231.3916 " fill="none" id="cache_ce-wallet_s" style="stroke: #A80036; stroke-width: 1.0; stroke-dasharray: 1.0,3.0;"/><polygon fill="#A80036" points="308.9315,234.6977,304.3673,225.9703,305.0146,231.59,299.3949,232.2373,308.9315,234.6977" style="stroke: #A80036; stroke-width: 1.0;"/><!--link did_ce to crypto_s--><path d="M550.5764,175.0569 C537.147,190.7791 517.6221,213.6375 503.1868,230.5375 " fill="none" id="did_ce-crypto_s" style="stroke: #A80036; stroke-width: 1.0; stroke-dasharray: 1.0,3.0;"/><polygon fill="#A80036" points="499.6332,234.6977,508.5201,230.4523,502.8806,230.8958,502.4371,225.2564,499.6332,234.6977" style="stroke: #A80036; stroke-width: 1.0;"/><!--link did_ce to ledger_s--><path d="M598.714,175.0166 C604.9884,177.9928 611.6002,180.815 618,183 C672.4421,201.5874 691.0809,187.946 745,208 C761.625,214.1833 778.8769,223.6091 793.0019,232.2393 " fill="none" id="did_ce-ledger_s" style="stroke: #A80036; stroke-width: 1.0; stroke-dasharray: 1.0,3.0;"/><polygon fill="#A80036" points="797.281,234.8877,791.733,226.7501,793.0293,232.2565,787.523,233.5528,797.281,234.8877" style="stroke: #A80036; stroke-width: 1.0;"/><!--link did_ce to wallet_s--><path d="M533.3299,175.1289 C527.3447,178.0233 521.0695,180.7881 515,183 C468.7088,199.8697 452.6821,189.5446 407,208 C391.4414,214.2856 375.3397,223.5299 362.0629,232.0073 " fill="none" id="did_ce-wallet_s" style="stroke: #A80036; stroke-width: 1.0; stroke-dasharray: 1.0,3.0;"/><polygon fill="#A80036" points="357.6736,234.8474,367.4028,233.3166,361.8715,232.1312,363.0569,226.6,357.6736,234.8474" style="stroke: #A80036; stroke-width: 1.0;"/><!--link ledger_ce to crypto_s--><path d="M794.9097,175.0558 C787.1188,178.1031 778.9004,180.941 771,183 C680.0458,206.7044 650.1113,178.1045 561,208 C544.3824,213.575 527.4047,223.0188 513.6349,231.8197 " fill="none" id="ledger_ce-crypto_s" style="stroke: #A80036; stroke-width: 1.0; stroke-dasharray: 1.0,3.0;"/><polygon fill="#A80036" points="509.0933,234.7732,518.8189,233.2197,513.2848,232.0472,514.4573,226.5132,509.0933,234.7732" style="stroke: #A80036; stroke-width: 1.0;"/><!--link ledger_ce to ledger_s--><path d="M832.1191,175.0569 C830.5091,190.5126 828.1808,212.8647 826.4299,229.6731 " fill="none" id="ledger_ce-ledger_s" style="stroke: #A80036; stroke-width: 1.0; stroke-dasharray: 1.0,3.0;"/><polygon fill="#A80036" points="825.9065,234.6977,830.8176,226.1607,826.4246,229.7246,822.8607,225.3316,825.9065,234.6977" style="stroke: #A80036; stroke-width: 1.0;"/><!--link payment_ce to payment_s--><path d="M98.1164,175.0569 C113.1461,190.9124 135.0554,214.0255 151.1134,230.9658 " fill="none" id="payment_ce-payment_s" style="stroke: #A80036; stroke-width: 1.0; stroke-dasharray: 1.0,3.0;"/><polygon fill="#A80036" points="154.6509,234.6977,151.3623,225.4141,151.2111,231.0689,145.5563,230.9177,154.6509,234.6977" style="stroke: #A80036; stroke-width: 1.0;"/><!--link payment_ce to wallet_s--><path d="M126.3668,175.04 C134.1897,177.8784 142.2858,180.6476 150,183 C196.2988,197.1186 211.1052,189.9066 256,208 C271.7168,214.3341 288.0264,223.5851 301.4884,232.0543 " fill="none" id="payment_ce-wallet_s" style="stroke: #A80036; stroke-width: 1.0; stroke-dasharray: 1.0,3.0;"/><polygon fill="#A80036" points="305.9397,234.8911,300.4998,226.6809,301.7232,232.2039,296.2002,233.4273,305.9397,234.8911" style="stroke: #A80036; stroke-width: 1.0;"/><!--link wallet_ce to wallet_s--><path d="M332,175.0569 C332,190.5126 332,212.8647 332,229.6731 " fill="none" id="wallet_ce-wallet_s" style="stroke: #A80036; stroke-width: 1.0; stroke-dasharray: 1.0,3.0;"/><polygon fill="#A80036" points="332,234.6977,336,225.6977,332,229.6977,328,225.6977,332,234.6977" style="stroke: #A80036; stroke-width: 1.0;"/><!--link wallet_ce to crypto_s--><path d="M360.59,175.0569 C386.3036,191.297 424.0727,215.1512 451.0471,232.1877 " fill="none" id="wallet_ce-crypto_s" style="stroke: #A80036; stroke-width: 1.0; stroke-dasharray: 1.0,3.0;"/><polygon fill="#A80036" points="455.2802,234.8612,449.8067,226.6733,451.0527,232.1913,445.5348,233.4373,455.2802,234.8612" style="stroke: #A80036; stroke-width: 1.0;"/><!--
@startuml

package "Libindy API" as la {
    [Anoncreds API] as anoncreds_api
    [Crypto API] as crypto_api
    [Cache API] as cache_api
    [DID API] as did_api
    [Ledger API] as ledger_api
    [Payment API] as payment_api
    [Wallet API] as wallet_api
}

package "Libindy Commands Executors" as lce {

     [Anoncreds CE] as anoncreds_ce
     [Crypto CE] as crypto_ce
     [Cache CE] as cache_ce
     [DID CE] as did_ce
     [Ledger CE] as ledger_ce
     [Payment CE] as payment_ce
     [Wallet CE] as wallet_ce

}

package "Libindy Services" as ls {
    [Anoncreds Service] as anoncreds_s
    [Crypto Service] as crypto_s
    [Ledger Service] as ledger_s
    [Payment Service] as payment_s
    [Wallet Service] as wallet_s

}


anoncreds_api ~~> anoncreds_ce
wallet_api ~~> wallet_ce
crypto_api ~~> crypto_ce
cache_api ~~> cache_ce
did_api ~~> did_ce
ledger_api ~~> ledger_ce
payment_api ~~> payment_ce

anoncreds_ce ~~> anoncreds_s
anoncreds_ce ~~> wallet_s
anoncreds_ce ~~> crypto_s
anoncreds_ce ~~> ledger_s

crypto_ce ~~> crypto_s
crypto_ce ~~> wallet_s

cache_ce ~~> wallet_s

did_ce ~~> crypto_s
did_ce ~~> ledger_s
did_ce ~~> wallet_s

ledger_ce ~~> crypto_s
ledger_ce ~~> ledger_s

payment_ce ~~> payment_s
payment_ce ~~> wallet_s

wallet_ce ~~> wallet_s
wallet_ce ~~> crypto_s

@enduml

PlantUML version 1.2019.08(Sat Jul 13 22:25:14 MSK 2019)
(GPL source distribution)
Java Runtime: OpenJDK Runtime Environment
JVM: OpenJDK 64-Bit Server VM
Java Version: 1.8.0_202-release-1483-b49
Operating System: Linux
OS Version: 4.15.0-58-generic
Default Encoding: UTF-8
Language: en
Country: US
--></g></svg>