<?xml version="1.0" encoding="UTF-8" standalone="no"?><svg xmlns="http://www.w3.org/2000/svg" xmlns:xlink="http://www.w3.org/1999/xlink" contentScriptType="application/ecmascript" contentStyleType="text/css" height="291px" preserveAspectRatio="none" style="width:1327px;height:291px;" version="1.1" viewBox="0 0 1327 291" width="1327px" zoomAndPan="magnify"><defs><filter height="300%" id="f3ikzvfygz67d" width="300%" x="-1" y="-1"><feGaussianBlur result="blurOut" stdDeviation="2.0"/><feColorMatrix in="blurOut" result="blurOut2" type="matrix" values="0 0 0 0 0 0 0 0 0 0 0 0 0 0 0 0 0 0 .4 0"/><feOffset dx="4.0" dy="4.0" in="blurOut2" result="blurOut3"/><feBlend in="SourceGraphic" in2="blurOut3" mode="normal"/></filter></defs><g><!--cluster la--><polygon fill="#FFFFFF" filter="url(#f3ikzvfygz67d)" points="14,16,106,16,113,38.2969,1305,38.2969,1305,87,14,87,14,16" style="stroke: #000000; stroke-width: 1.5;"/><line style="stroke: #000000; stroke-width: 1.5;" x1="14" x2="113" y1="38.2969" y2="38.2969"/><text fill="#000000" font-family="sans-serif" font-size="14" font-weight="bold" lengthAdjust="spacingAndGlyphs" textLength="86" x="18" y="30.9951">Libindy API</text><!--cluster lce--><polygon fill="#FFFFFF" filter="url(#f3ikzvfygz67d)" points="23,112,261,112,268,134.2969,1295,134.2969,1295,183,23,183,23,112" style="stroke: #000000; stroke-width: 1.5;"/><line style="stroke: #000000; stroke-width: 1.5;" x1="23" x2="268" y1="134.2969" y2="134.2969"/><text fill="#000000" font-family="sans-serif" font-size="14" font-weight="bold" lengthAdjust="spacingAndGlyphs" textLength="232" x="27" y="126.9951">Libindy Commands Executors</text><!--cluster ls--><polygon fill="#FFFFFF" filter="url(#f3ikzvfygz67d)" points="184,208,319,208,326,230.2969,1118,230.2969,1118,279,184,279,184,208" style="stroke: #000000; stroke-width: 1.5;"/><line style="stroke: #000000; stroke-width: 1.5;" x1="184" x2="326" y1="230.2969" y2="230.2969"/><text fill="#000000" font-family="sans-serif" font-size="14" font-weight="bold" lengthAdjust="spacingAndGlyphs" textLength="129" x="188" y="222.9951">Libindy Services</text><!--entity anoncreds_api--><rect fill="#FEFECE" filter="url(#f3ikzvfygz67d)" height="36.2969" style="stroke: #A80036; stroke-width: 1.5;" width="120" x="1177" y="43"/><rect fill="#FEFECE" height="5" style="stroke: #A80036; stroke-width: 1.5;" width="10" x="1172" y="48"/><rect fill="#FEFECE" height="5" style="stroke: #A80036; stroke-width: 1.5;" width="10" x="1172" y="69.2969"/><text fill="#000000" font-family="sans-serif" font-size="14" lengthAdjust="spacingAndGlyphs" textLength="100" x="1187" y="65.9951">Anoncreds API</text><!--entity cache_api--><rect fill="#FEFECE" filter="url(#f3ikzvfygz67d)" height="36.2969" style="stroke: #A80036; stroke-width: 1.5;" width="89" x="806.5" y="43"/><rect fill="#FEFECE" height="5" style="stroke: #A80036; stroke-width: 1.5;" width="10" x="801.5" y="48"/><rect fill="#FEFECE" height="5" style="stroke: #A80036; stroke-width: 1.5;" width="10" x="801.5" y="69.2969"/><text fill="#000000" font-family="sans-serif" font-size="14" lengthAdjust="spacingAndGlyphs" textLength="69" x="816.5" y="65.9951">Cache API</text><!--entity crypto_api--><rect fill="#FEFECE" filter="url(#f3ikzvfygz67d)" height="36.2969" style="stroke: #A80036; stroke-width: 1.5;" width="90" x="1052" y="43"/><rect fill="#FEFECE" height="5" style="stroke: #A80036; stroke-width: 1.5;" width="10" x="1047" y="48"/><rect fill="#FEFECE" height="5" style="stroke: #A80036; stroke-width: 1.5;" width="10" x="1047" y="69.2969"/><text fill="#000000" font-family="sans-serif" font-size="14" lengthAdjust="spacingAndGlyphs" textLength="70" x="1062" y="65.9951">Crypto API</text><!--entity did_api--><rect fill="#FEFECE" filter="url(#f3ikzvfygz67d)" height="36.2969" style="stroke: #A80036; stroke-width: 1.5;" width="70" x="536" y="43"/><rect fill="#FEFECE" height="5" style="stroke: #A80036; stroke-width: 1.5;" width="10" x="531" y="48"/><rect fill="#FEFECE" height="5" style="stroke: #A80036; stroke-width: 1.5;" width="10" x="531" y="69.2969"/><text fill="#000000" font-family="sans-serif" font-size="14" lengthAdjust="spacingAndGlyphs" textLength="50" x="546" y="65.9951">DID API</text><!--entity ledger_api--><rect fill="#FEFECE" filter="url(#f3ikzvfygz67d)" height="36.2969" style="stroke: #A80036; stroke-width: 1.5;" width="93" x="267.5" y="43"/><rect fill="#FEFECE" height="5" style="stroke: #A80036; stroke-width: 1.5;" width="10" x="262.5" y="48"/><rect fill="#FEFECE" height="5" style="stroke: #A80036; stroke-width: 1.5;" width="10" x="262.5" y="69.2969"/><text fill="#000000" font-family="sans-serif" font-size="14" lengthAdjust="spacingAndGlyphs" textLength="73" x="277.5" y="65.9951">Ledger API</text><!--entity nonsecrets_api--><rect fill="#FEFECE" filter="url(#f3ikzvfygz67d)" height="36.2969" style="stroke: #A80036; stroke-width: 1.5;" width="130" x="641" y="43"/><rect fill="#FEFECE" height="5" style="stroke: #A80036; stroke-width: 1.5;" width="10" x="636" y="48"/><rect fill="#FEFECE" height="5" style="stroke: #A80036; stroke-width: 1.5;" width="10" x="636" y="69.2969"/><text fill="#000000" font-family="sans-serif" font-size="14" lengthAdjust="spacingAndGlyphs" textLength="110" x="651" y="65.9951">Non Secrets API</text><!--entity pairwise_api--><rect fill="#FEFECE" filter="url(#f3ikzvfygz67d)" height="36.2969" style="stroke: #A80036; stroke-width: 1.5;" width="101" x="131.5" y="43"/><rect fill="#FEFECE" height="5" style="stroke: #A80036; stroke-width: 1.5;" width="10" x="126.5" y="48"/><rect fill="#FEFECE" height="5" style="stroke: #A80036; stroke-width: 1.5;" width="10" x="126.5" y="69.2969"/><text fill="#000000" font-family="sans-serif" font-size="14" lengthAdjust="spacingAndGlyphs" textLength="81" x="141.5" y="65.9951">Pairwise API</text><!--entity payment_api--><rect fill="#FEFECE" filter="url(#f3ikzvfygz67d)" height="36.2969" style="stroke: #A80036; stroke-width: 1.5;" width="105" x="395.5" y="43"/><rect fill="#FEFECE" height="5" style="stroke: #A80036; stroke-width: 1.5;" width="10" x="390.5" y="48"/><rect fill="#FEFECE" height="5" style="stroke: #A80036; stroke-width: 1.5;" width="10" x="390.5" y="69.2969"/><text fill="#000000" font-family="sans-serif" font-size="14" lengthAdjust="spacingAndGlyphs" textLength="85" x="405.5" y="65.9951">Payment API</text><!--entity pool_api--><rect fill="#FEFECE" filter="url(#f3ikzvfygz67d)" height="36.2969" style="stroke: #A80036; stroke-width: 1.5;" width="75" x="21.5" y="43"/><rect fill="#FEFECE" height="5" style="stroke: #A80036; stroke-width: 1.5;" width="10" x="16.5" y="48"/><rect fill="#FEFECE" height="5" style="stroke: #A80036; stroke-width: 1.5;" width="10" x="16.5" y="69.2969"/><text fill="#000000" font-family="sans-serif" font-size="14" lengthAdjust="spacingAndGlyphs" textLength="55" x="31.5" y="65.9951">Pool API</text><!--entity wallet_api--><rect fill="#FEFECE" filter="url(#f3ikzvfygz67d)" height="36.2969" style="stroke: #A80036; stroke-width: 1.5;" width="86" x="931" y="43"/><rect fill="#FEFECE" height="5" style="stroke: #A80036; stroke-width: 1.5;" width="10" x="926" y="48"/><rect fill="#FEFECE" height="5" style="stroke: #A80036; stroke-width: 1.5;" width="10" x="926" y="69.2969"/><text fill="#000000" font-family="sans-serif" font-size="14" lengthAdjust="spacingAndGlyphs" textLength="66" x="941" y="65.9951">Wallet API</text><!--entity anoncreds_ce--><rect fill="#FEFECE" filter="url(#f3ikzvfygz67d)" height="36.2969" style="stroke: #A80036; stroke-width: 1.5;" width="118" x="1169" y="139"/><rect fill="#FEFECE" height="5" style="stroke: #A80036; stroke-width: 1.5;" width="10" x="1164" y="144"/><rect fill="#FEFECE" height="5" style="stroke: #A80036; stroke-width: 1.5;" width="10" x="1164" y="165.2969"/><text fill="#000000" font-family="sans-serif" font-size="14" lengthAdjust="spacingAndGlyphs" textLength="98" x="1179" y="161.9951">Anoncreds CE</text><!--entity cache_ce--><rect fill="#FEFECE" filter="url(#f3ikzvfygz67d)" height="36.2969" style="stroke: #A80036; stroke-width: 1.5;" width="87" x="804.5" y="139"/><rect fill="#FEFECE" height="5" style="stroke: #A80036; stroke-width: 1.5;" width="10" x="799.5" y="144"/><rect fill="#FEFECE" height="5" style="stroke: #A80036; stroke-width: 1.5;" width="10" x="799.5" y="165.2969"/><text fill="#000000" font-family="sans-serif" font-size="14" lengthAdjust="spacingAndGlyphs" textLength="67" x="814.5" y="161.9951">Cache CE</text><!--entity crypto_ce--><rect fill="#FEFECE" filter="url(#f3ikzvfygz67d)" height="36.2969" style="stroke: #A80036; stroke-width: 1.5;" width="88" x="1046" y="139"/><rect fill="#FEFECE" height="5" style="stroke: #A80036; stroke-width: 1.5;" width="10" x="1041" y="144"/><rect fill="#FEFECE" height="5" style="stroke: #A80036; stroke-width: 1.5;" width="10" x="1041" y="165.2969"/><text fill="#000000" font-family="sans-serif" font-size="14" lengthAdjust="spacingAndGlyphs" textLength="68" x="1056" y="161.9951">Crypto CE</text><!--entity did_ce--><rect fill="#FEFECE" filter="url(#f3ikzvfygz67d)" height="36.2969" style="stroke: #A80036; stroke-width: 1.5;" width="68" x="538" y="139"/><rect fill="#FEFECE" height="5" style="stroke: #A80036; stroke-width: 1.5;" width="10" x="533" y="144"/><rect fill="#FEFECE" height="5" style="stroke: #A80036; stroke-width: 1.5;" width="10" x="533" y="165.2969"/><text fill="#000000" font-family="sans-serif" font-size="14" lengthAdjust="spacingAndGlyphs" textLength="48" x="548" y="161.9951">DID CE</text><!--entity ledger_ce--><rect fill="#FEFECE" filter="url(#f3ikzvfygz67d)" height="36.2969" style="stroke: #A80036; stroke-width: 1.5;" width="91" x="273.5" y="139"/><rect fill="#FEFECE" height="5" style="stroke: #A80036; stroke-width: 1.5;" width="10" x="268.5" y="144"/><rect fill="#FEFECE" height="5" style="stroke: #A80036; stroke-width: 1.5;" width="10" x="268.5" y="165.2969"/><text fill="#000000" font-family="sans-serif" font-size="14" lengthAdjust="spacingAndGlyphs" textLength="71" x="283.5" y="161.9951">Ledger CE</text><!--entity nonsecrets_ce--><rect fill="#FEFECE" filter="url(#f3ikzvfygz67d)" height="36.2969" style="stroke: #A80036; stroke-width: 1.5;" width="128" x="641" y="139"/><rect fill="#FEFECE" height="5" style="stroke: #A80036; stroke-width: 1.5;" width="10" x="636" y="144"/><rect fill="#FEFECE" height="5" style="stroke: #A80036; stroke-width: 1.5;" width="10" x="636" y="165.2969"/><text fill="#000000" font-family="sans-serif" font-size="14" lengthAdjust="spacingAndGlyphs" textLength="108" x="651" y="161.9951">Non Secrets CE</text><!--entity pairwise_ce--><rect fill="#FEFECE" filter="url(#f3ikzvfygz67d)" height="36.2969" style="stroke: #A80036; stroke-width: 1.5;" width="99" x="139.5" y="139"/><rect fill="#FEFECE" height="5" style="stroke: #A80036; stroke-width: 1.5;" width="10" x="134.5" y="144"/><rect fill="#FEFECE" height="5" style="stroke: #A80036; stroke-width: 1.5;" width="10" x="134.5" y="165.2969"/><text fill="#000000" font-family="sans-serif" font-size="14" lengthAdjust="spacingAndGlyphs" textLength="79" x="149.5" y="161.9951">Pairwise CE</text><!--entity payment_ce--><rect fill="#FEFECE" filter="url(#f3ikzvfygz67d)" height="36.2969" style="stroke: #A80036; stroke-width: 1.5;" width="103" x="399.5" y="139"/><rect fill="#FEFECE" height="5" style="stroke: #A80036; stroke-width: 1.5;" width="10" x="394.5" y="144"/><rect fill="#FEFECE" height="5" style="stroke: #A80036; stroke-width: 1.5;" width="10" x="394.5" y="165.2969"/><text fill="#000000" font-family="sans-serif" font-size="14" lengthAdjust="spacingAndGlyphs" textLength="83" x="409.5" y="161.9951">Payment CE</text><!--entity pool_ce--><rect fill="#FEFECE" filter="url(#f3ikzvfygz67d)" height="36.2969" style="stroke: #A80036; stroke-width: 1.5;" width="73" x="31.5" y="139"/><rect fill="#FEFECE" height="5" style="stroke: #A80036; stroke-width: 1.5;" width="10" x="26.5" y="144"/><rect fill="#FEFECE" height="5" style="stroke: #A80036; stroke-width: 1.5;" width="10" x="26.5" y="165.2969"/><text fill="#000000" font-family="sans-serif" font-size="14" lengthAdjust="spacingAndGlyphs" textLength="53" x="41.5" y="161.9951">Pool CE</text><!--entity wallet_ce--><rect fill="#FEFECE" filter="url(#f3ikzvfygz67d)" height="36.2969" style="stroke: #A80036; stroke-width: 1.5;" width="84" x="927" y="139"/><rect fill="#FEFECE" height="5" style="stroke: #A80036; stroke-width: 1.5;" width="10" x="922" y="144"/><rect fill="#FEFECE" height="5" style="stroke: #A80036; stroke-width: 1.5;" width="10" x="922" y="165.2969"/><text fill="#000000" font-family="sans-serif" font-size="14" lengthAdjust="spacingAndGlyphs" textLength="64" x="937" y="161.9951">Wallet CE</text><!--entity anoncreds_s--><rect fill="#FEFECE" filter="url(#f3ikzvfygz67d)" height="36.2969" style="stroke: #A80036; stroke-width: 1.5;" width="149" x="961.5" y="235"/><rect fill="#FEFECE" height="5" style="stroke: #A80036; stroke-width: 1.5;" width="10" x="956.5" y="240"/><rect fill="#FEFECE" height="5" style="stroke: #A80036; stroke-width: 1.5;" width="10" x="956.5" y="261.2969"/><text fill="#000000" font-family="sans-serif" font-size="14" lengthAdjust="spacingAndGlyphs" textLength="129" x="971.5" y="257.9951">Anoncreds Service</text><!--entity crypto_s--><rect fill="#FEFECE" filter="url(#f3ikzvfygz67d)" height="36.2969" style="stroke: #A80036; stroke-width: 1.5;" width="119" x="807.5" y="235"/><rect fill="#FEFECE" height="5" style="stroke: #A80036; stroke-width: 1.5;" width="10" x="802.5" y="240"/><rect fill="#FEFECE" height="5" style="stroke: #A80036; stroke-width: 1.5;" width="10" x="802.5" y="261.2969"/><text fill="#000000" font-family="sans-serif" font-size="14" lengthAdjust="spacingAndGlyphs" textLength="99" x="817.5" y="257.9951">Crypto Service</text><!--entity ledger_s--><rect fill="#FEFECE" filter="url(#f3ikzvfygz67d)" height="36.2969" style="stroke: #A80036; stroke-width: 1.5;" width="122" x="500" y="235"/><rect fill="#FEFECE" height="5" style="stroke: #A80036; stroke-width: 1.5;" width="10" x="495" y="240"/><rect fill="#FEFECE" height="5" style="stroke: #A80036; stroke-width: 1.5;" width="10" x="495" y="261.2969"/><text fill="#000000" font-family="sans-serif" font-size="14" lengthAdjust="spacingAndGlyphs" textLength="102" x="510" y="257.9951">Ledger Service</text><!--entity payment_s--><rect fill="#FEFECE" filter="url(#f3ikzvfygz67d)" height="36.2969" style="stroke: #A80036; stroke-width: 1.5;" width="134" x="331" y="235"/><rect fill="#FEFECE" height="5" style="stroke: #A80036; stroke-width: 1.5;" width="10" x="326" y="240"/><rect fill="#FEFECE" height="5" style="stroke: #A80036; stroke-width: 1.5;" width="10" x="326" y="261.2969"/><text fill="#000000" font-family="sans-serif" font-size="14" lengthAdjust="spacingAndGlyphs" textLength="114" x="341" y="257.9951">Payment Service</text><!--entity pool_s--><rect fill="#FEFECE" filter="url(#f3ikzvfygz67d)" height="36.2969" style="stroke: #A80036; stroke-width: 1.5;" width="104" x="192" y="235"/><rect fill="#FEFECE" height="5" style="stroke: #A80036; stroke-width: 1.5;" width="10" x="187" y="240"/><rect fill="#FEFECE" height="5" style="stroke: #A80036; stroke-width: 1.5;" width="10" x="187" y="261.2969"/><text fill="#000000" font-family="sans-serif" font-size="14" lengthAdjust="spacingAndGlyphs" textLength="84" x="202" y="257.9951">Pool Service</text><!--entity wallet_s--><rect fill="#FEFECE" filter="url(#f3ikzvfygz67d)" height="36.2969" style="stroke: #A80036; stroke-width: 1.5;" width="115" x="657.5" y="235"/><rect fill="#FEFECE" height="5" style="stroke: #A80036; stroke-width: 1.5;" width="10" x="652.5" y="240"/><rect fill="#FEFECE" height="5" style="stroke: #A80036; stroke-width: 1.5;" width="10" x="652.5" y="261.2969"/><text fill="#000000" font-family="sans-serif" font-size="14" lengthAdjust="spacingAndGlyphs" textLength="95" x="667.5" y="257.9951">Wallet Service</text><!--link anoncreds_api to anoncreds_ce--><path d="M1235.3072,79.0569 C1233.8582,94.5126 1231.7627,116.8647 1230.1869,133.6731 " fill="none" id="anoncreds_api-anoncreds_ce" style="stroke: #A80036; stroke-width: 1.0; stroke-dasharray: 1.0,3.0;"/><polygon fill="#A80036" points="1229.7158,138.6977,1234.5384,130.1104,1230.1825,133.7195,1226.5734,129.3636,1229.7158,138.6977" style="stroke: #A80036; stroke-width: 1.0;"/><!--link cache_api to cache_ce--><path d="M850.4357,79.0569 C849.9527,94.5126 849.2542,116.8647 848.729,133.6731 " fill="none" id="cache_api-cache_ce" style="stroke: #A80036; stroke-width: 1.0; stroke-dasharray: 1.0,3.0;"/><polygon fill="#A80036" points="848.5719,138.6977,852.851,129.827,848.728,133.7001,844.8549,129.5772,848.5719,138.6977" style="stroke: #A80036; stroke-width: 1.0;"/><!--link crypto_api to crypto_ce--><path d="M1095.6834,79.0569 C1094.5564,94.5126 1092.9265,116.8647 1091.7009,133.6731 " fill="none" id="crypto_api-crypto_ce" style="stroke: #A80036; stroke-width: 1.0; stroke-dasharray: 1.0,3.0;"/><polygon fill="#A80036" points="1091.3345,138.6977,1095.9786,130.0125,1091.6982,133.7109,1087.9998,129.4306,1091.3345,138.6977" style="stroke: #A80036; stroke-width: 1.0;"/><!--link did_api to did_ce--><path d="M571.1881,79.0569 C571.3491,94.5126 571.5819,116.8647 571.757,133.6731 " fill="none" id="did_api-did_ce" style="stroke: #A80036; stroke-width: 1.0; stroke-dasharray: 1.0,3.0;"/><polygon fill="#A80036" points="571.8094,138.6977,575.7153,129.6565,571.7573,133.698,567.7158,129.7399,571.8094,138.6977" style="stroke: #A80036; stroke-width: 1.0;"/><!--link ledger_api to ledger_ce--><path d="M314.9405,79.0569 C315.7455,94.5126 316.9096,116.8647 317.7851,133.6731 " fill="none" id="ledger_api-ledger_ce" style="stroke: #A80036; stroke-width: 1.0; stroke-dasharray: 1.0,3.0;"/><polygon fill="#A80036" points="318.0468,138.6977,321.5731,129.5018,317.7867,133.7045,313.584,129.918,318.0468,138.6977" style="stroke: #A80036; stroke-width: 1.0;"/><!--link nonsecrets_api to nonsecrets_ce--><path d="M705.8119,79.0569 C705.6509,94.5126 705.4181,116.8647 705.243,133.6731 " fill="none" id="nonsecrets_api-nonsecrets_ce" style="stroke: #A80036; stroke-width: 1.0; stroke-dasharray: 1.0,3.0;"/><polygon fill="#A80036" points="705.1906,138.6977,709.2842,129.7399,705.2427,133.698,701.2847,129.6565,705.1906,138.6977" style="stroke: #A80036; stroke-width: 1.0;"/><!--link pairwise_api to pairwise_ce--><path d="M183.3166,79.0569 C184.4436,94.5126 186.0735,116.8647 187.2991,133.6731 " fill="none" id="pairwise_api-pairwise_ce" style="stroke: #A80036; stroke-width: 1.0; stroke-dasharray: 1.0,3.0;"/><polygon fill="#A80036" points="187.6655,138.6977,191.0002,129.4306,187.3018,133.7109,183.0214,130.0125,187.6655,138.6977" style="stroke: #A80036; stroke-width: 1.0;"/><!--link payment_api to payment_ce--><path d="M448.5643,79.0569 C449.0473,94.5126 449.7458,116.8647 450.271,133.6731 " fill="none" id="payment_api-payment_ce" style="stroke: #A80036; stroke-width: 1.0; stroke-dasharray: 1.0,3.0;"/><polygon fill="#A80036" points="450.4281,138.6977,454.1451,129.5772,450.272,133.7001,446.149,129.827,450.4281,138.6977" style="stroke: #A80036; stroke-width: 1.0;"/><!--link pool_api to pool_ce--><path d="M60.6928,79.0569 C62.1418,94.5126 64.2373,116.8647 65.8131,133.6731 " fill="none" id="pool_api-pool_ce" style="stroke: #A80036; stroke-width: 1.0; stroke-dasharray: 1.0,3.0;"/><polygon fill="#A80036" points="66.2842,138.6977,69.4266,129.3636,65.8175,133.7195,61.4616,130.1104,66.2842,138.6977" style="stroke: #A80036; stroke-width: 1.0;"/><!--link wallet_api to wallet_ce--><path d="M973.0595,79.0569 C972.2545,94.5126 971.0904,116.8647 970.2149,133.6731 " fill="none" id="wallet_api-wallet_ce" style="stroke: #A80036; stroke-width: 1.0; stroke-dasharray: 1.0,3.0;"/><polygon fill="#A80036" points="969.9532,138.6977,974.416,129.918,970.2133,133.7045,966.4269,129.5018,969.9532,138.6977" style="stroke: #A80036; stroke-width: 1.0;"/><!--link anoncreds_ce to anoncreds_s--><path d="M1191.8863,175.0569 C1159.1386,191.4307 1110.9113,215.5444 1076.7862,232.6069 " fill="none" id="anoncreds_ce-anoncreds_s" style="stroke: #A80036; stroke-width: 1.0; stroke-dasharray: 1.0,3.0;"/><polygon fill="#A80036" points="1072.2777,234.8612,1082.1164,234.4139,1076.7498,232.6251,1078.5386,227.2585,1072.2777,234.8612" style="stroke: #A80036; stroke-width: 1.0;"/><!--link anoncreds_ce to wallet_s--><path d="M1181.5,175.0387 C1171.8728,178.1671 1161.7051,181.0399 1152,183 C993.9198,214.9273 943.8441,159.6195 790,208 C773.3418,213.2386 756.5152,222.8516 743.033,231.8516 " fill="none" id="anoncreds_ce-wallet_s" style="stroke: #A80036; stroke-width: 1.0; stroke-dasharray: 1.0,3.0;"/><polygon fill="#A80036" points="738.594,234.8731,748.2848,233.1155,742.7273,232.0596,743.7832,226.5022,738.594,234.8731" style="stroke: #A80036; stroke-width: 1.0;"/><!--link anoncreds_ce to crypto_s--><path d="M1180.1951,175.0538 C1170.9402,178.0633 1161.2445,180.8878 1152,183 C1061.2293,203.739 1032.2578,178.3354 944,208 C927.3855,213.5843 910.4083,223.0292 896.6379,231.8284 " fill="none" id="anoncreds_ce-crypto_s" style="stroke: #A80036; stroke-width: 1.0; stroke-dasharray: 1.0,3.0;"/><polygon fill="#A80036" points="892.096,234.7812,901.8218,233.2291,896.288,232.0559,897.4612,226.522,892.096,234.7812" style="stroke: #A80036; stroke-width: 1.0;"/><!--link anoncreds_ce to pool_s--><path d="M1182.3698,175.0738 C1172.4997,178.2844 1162.0161,181.1804 1152,183 C968.4766,216.34 490.983,152.1926 313,208 C297.1839,212.9592 281.5462,222.6514 269.167,231.7746 " fill="none" id="anoncreds_ce-pool_s" style="stroke: #A80036; stroke-width: 1.0; stroke-dasharray: 1.0,3.0;"/><polygon fill="#A80036" points="265.0982,234.8391,274.6937,232.6195,269.0921,231.8309,269.8806,226.2293,265.0982,234.8391" style="stroke: #A80036; stroke-width: 1.0;"/><!--link cache_ce to wallet_s--><path d="M822.9837,175.0569 C800.7404,191.1122 768.1871,214.6093 744.6431,231.6035 " fill="none" id="cache_ce-wallet_s" style="stroke: #A80036; stroke-width: 1.0; stroke-dasharray: 1.0,3.0;"/><polygon fill="#A80036" points="740.3563,234.6977,749.9949,232.6736,744.4105,231.7713,745.3128,226.1869,740.3563,234.6977" style="stroke: #A80036; stroke-width: 1.0;"/><!--link crypto_ce to crypto_s--><path d="M1049.5751,175.0109 C1042.7602,177.8217 1035.7182,180.5896 1029,183 C991.9355,196.2983 980.1539,192.3952 944,208 C928.5458,214.6704 912.3315,223.7904 898.7896,232.0767 " fill="none" id="crypto_ce-crypto_s" style="stroke: #A80036; stroke-width: 1.0; stroke-dasharray: 1.0,3.0;"/><polygon fill="#A80036" points="894.3045,234.8501,904.0629,233.5187,898.5571,232.2204,899.8554,226.7145,894.3045,234.8501" style="stroke: #A80036; stroke-width: 1.0;"/><!--link crypto_ce to wallet_s--><path d="M1052.5423,175.0297 C1044.8964,178.1185 1036.8008,180.9785 1029,183 C925.6134,209.7922 891.3018,174.1685 790,208 C773.5662,213.4884 756.8825,223.0239 743.4364,231.9085 " fill="none" id="crypto_ce-wallet_s" style="stroke: #A80036; stroke-width: 1.0; stroke-dasharray: 1.0,3.0;"/><polygon fill="#A80036" points="739.0056,234.8898,748.7056,233.1841,743.1539,232.0985,744.2395,226.5468,739.0056,234.8898" style="stroke: #A80036; stroke-width: 1.0;"/><!--link did_ce to crypto_s--><path d="M603.4284,175.0028 C609.7543,178.0547 616.4694,180.9079 623,183 C694.4713,205.8965 719.2154,183.0612 790,208 C806.5318,213.8245 823.4995,223.2971 837.285,232.0526 " fill="none" id="did_ce-crypto_s" style="stroke: #A80036; stroke-width: 1.0; stroke-dasharray: 1.0,3.0;"/><polygon fill="#A80036" points="841.8328,234.988,836.4404,226.7465,837.6319,232.2765,832.1019,233.468,841.8328,234.988" style="stroke: #A80036; stroke-width: 1.0;"/><!--link did_ce to ledger_s--><path d="M569.931,175.0569 C568.16,190.5126 565.5988,212.8647 563.6729,229.6731 " fill="none" id="did_ce-ledger_s" style="stroke: #A80036; stroke-width: 1.0; stroke-dasharray: 1.0,3.0;"/><polygon fill="#A80036" points="563.0971,234.6977,568.0958,226.2117,563.6664,229.7302,560.1478,225.3008,563.0971,234.6977" style="stroke: #A80036; stroke-width: 1.0;"/><!--link did_ce to wallet_s--><path d="M598.8972,175.0569 C622.9122,191.1788 658.1045,214.8044 683.4427,231.8147 " fill="none" id="did_ce-wallet_s" style="stroke: #A80036; stroke-width: 1.0; stroke-dasharray: 1.0,3.0;"/><polygon fill="#A80036" points="687.7372,234.6977,682.4943,226.3603,683.5859,231.9108,678.0354,233.0024,687.7372,234.6977" style="stroke: #A80036; stroke-width: 1.0;"/><!--link ledger_ce to crypto_s--><path d="M356.9864,175.0245 C365.0824,178.1956 373.6979,181.0885 382,183 C559.0413,223.763 616.1766,155.1734 790,208 C807.1848,213.2226 824.6057,222.9518 838.5203,232.031 " fill="none" id="ledger_ce-crypto_s" style="stroke: #A80036; stroke-width: 1.0; stroke-dasharray: 1.0,3.0;"/><polygon fill="#A80036" points="842.7219,234.8222,837.4387,226.5103,838.5571,232.0555,833.012,233.1739,842.7219,234.8222" style="stroke: #A80036; stroke-width: 1.0;"/><!--link ledger_ce to ledger_s--><path d="M360.3591,175.0746 C367.509,177.909 374.9198,180.6679 382,183 C425.5126,197.3324 439.4792,190.9486 482,208 C498.058,214.4395 514.8476,223.6142 528.7986,232.0014 " fill="none" id="ledger_ce-ledger_s" style="stroke: #A80036; stroke-width: 1.0; stroke-dasharray: 1.0,3.0;"/><polygon fill="#A80036" points="533.4158,234.8105,527.8061,226.7154,529.1443,232.2117,523.648,233.5498,533.4158,234.8105" style="stroke: #A80036; stroke-width: 1.0;"/><!--link ledger_ce to pool_s--><path d="M304.8931,175.0569 C292.6101,190.7791 274.7519,213.6375 261.5489,230.5375 " fill="none" id="ledger_ce-pool_s" style="stroke: #A80036; stroke-width: 1.0; stroke-dasharray: 1.0,3.0;"/><polygon fill="#A80036" points="258.2987,234.6977,266.9916,230.0681,261.377,230.7576,260.6875,225.1429,258.2987,234.6977" style="stroke: #A80036; stroke-width: 1.0;"/><!--link ledger_ce to wallet_s--><path d="M357.7169,175.0599 C365.611,178.1462 373.9631,180.9975 382,183 C493.3569,210.7457 529.9132,172.3596 639,208 C655.6311,213.4336 672.5348,222.9632 686.1643,231.858 " fill="none" id="ledger_ce-wallet_s" style="stroke: #A80036; stroke-width: 1.0; stroke-dasharray: 1.0,3.0;"/><polygon fill="#A80036" points="690.6558,234.8434,685.3745,226.5303,686.4917,232.0757,680.9462,233.1928,690.6558,234.8434" style="stroke: #A80036; stroke-width: 1.0;"/><!--link nonsecrets_ce to wallet_s--><path d="M706.8809,175.0569 C708.4909,190.5126 710.8192,212.8647 712.5701,229.6731 " fill="none" id="nonsecrets_ce-wallet_s" style="stroke: #A80036; stroke-width: 1.0; stroke-dasharray: 1.0,3.0;"/><polygon fill="#A80036" points="713.0935,234.6977,716.1393,225.3316,712.5754,229.7246,708.1824,226.1607,713.0935,234.6977" style="stroke: #A80036; stroke-width: 1.0;"/><!--link pairwise_ce to wallet_s--><path d="M229.8464,175.1123 C238.3449,178.235 247.3503,181.0869 256,183 C422.559,219.8396 476.0288,157.6071 639,208 C655.847,213.2093 672.8946,222.8193 686.5629,231.8249 " fill="none" id="pairwise_ce-wallet_s" style="stroke: #A80036; stroke-width: 1.0; stroke-dasharray: 1.0,3.0;"/><polygon fill="#A80036" points="691.0636,234.8486,685.8237,226.5093,686.9133,232.0602,681.3624,233.1498,691.0636,234.8486" style="stroke: #A80036; stroke-width: 1.0;"/><!--link payment_ce to crypto_s--><path d="M493.515,175.0464 C502.1517,178.1338 511.2676,180.989 520,183 C637.4394,210.0451 675.2534,171.1669 790,208 C806.9679,213.4466 824.2425,223.0915 838.1184,232.0588 " fill="none" id="payment_ce-crypto_s" style="stroke: #A80036; stroke-width: 1.0; stroke-dasharray: 1.0,3.0;"/><polygon fill="#A80036" points="842.3115,234.8146,836.9874,226.5288,838.1332,232.0684,832.5935,233.2142,842.3115,234.8146" style="stroke: #A80036; stroke-width: 1.0;"/><!--link payment_ce to ledger_s--><path d="M471.6902,175.0569 C490.0106,191.0456 516.7874,214.4144 536.2403,231.3916 " fill="none" id="payment_ce-ledger_s" style="stroke: #A80036; stroke-width: 1.0; stroke-dasharray: 1.0,3.0;"/><polygon fill="#A80036" points="540.0286,234.6977,535.878,225.7662,536.2615,231.41,530.6177,231.7936,540.0286,234.6977" style="stroke: #A80036; stroke-width: 1.0;"/><!--link payment_ce to payment_s--><path d="M441.0311,175.0569 C432.4247,190.6459 419.945,213.2506 410.6391,230.1065 " fill="none" id="payment_ce-payment_s" style="stroke: #A80036; stroke-width: 1.0; stroke-dasharray: 1.0,3.0;"/><polygon fill="#A80036" points="408.1044,234.6977,415.9561,228.7521,410.5211,230.3205,408.9526,224.8854,408.1044,234.6977" style="stroke: #A80036; stroke-width: 1.0;"/><!--link payment_ce to wallet_s--><path d="M495.946,175.0674 C503.8895,177.9349 512.1346,180.7066 520,183 C571.8829,198.1281 588.6301,188.4151 639,208 C654.9217,214.1907 671.3788,223.5155 684.8901,232.0741 " fill="none" id="payment_ce-wallet_s" style="stroke: #A80036; stroke-width: 1.0; stroke-dasharray: 1.0,3.0;"/><polygon fill="#A80036" points="689.3542,234.9416,683.9437,226.712,685.1473,232.2393,679.62,233.443,689.3542,234.9416" style="stroke: #A80036; stroke-width: 1.0;"/><!--link pairwise_ce to pool_s--><path d="M199.3451,175.0569 C208.2763,190.6459 221.2269,213.2506 230.8839,230.1065 " fill="none" id="pairwise_ce-pool_s" style="stroke: #A80036; stroke-width: 1.0; stroke-dasharray: 1.0,3.0;"/><polygon fill="#A80036" points="233.5143,234.6977,232.5112,224.9001,231.0288,230.3592,225.5696,228.8769,233.5143,234.6977" style="stroke: #A80036; stroke-width: 1.0;"/><!--link pool_ce to pool_s--><path d="M101.1043,175.0569 C131.0004,191.3638 174.9707,215.3476 206.229,232.3976 " fill="none" id="pool_ce-pool_s" style="stroke: #A80036; stroke-width: 1.0; stroke-dasharray: 1.0,3.0;"/><polygon fill="#A80036" points="210.7455,234.8612,204.7598,227.04,206.356,232.467,200.929,234.0632,210.7455,234.8612" style="stroke: #A80036; stroke-width: 1.0;"/><!--link wallet_ce to wallet_s--><path d="M930.3832,175.087 C923.3611,177.9859 916.032,180.763 909,183 C857.4996,199.3829 840.3126,188.2685 790,208 C774.251,214.1764 758.0057,223.4993 744.6786,232.0604 " fill="none" id="wallet_ce-wallet_s" style="stroke: #A80036; stroke-width: 1.0; stroke-dasharray: 1.0,3.0;"/><polygon fill="#A80036" points="740.2758,234.9289,750.0001,233.3674,744.4651,232.1995,745.633,226.6645,740.2758,234.9289" style="stroke: #A80036; stroke-width: 1.0;"/><!--link wallet_ce to crypto_s--><path d="M949.8146,175.0569 C932.9681,190.9124 908.4105,214.0255 890.4113,230.9658 " fill="none" id="wallet_ce-crypto_s" style="stroke: #A80036; stroke-width: 1.0; stroke-dasharray: 1.0,3.0;"/><polygon fill="#A80036" points="886.4462,234.6977,895.7414,231.4422,890.0872,231.2709,890.2585,225.6166,886.4462,234.6977" style="stroke: #A80036; stroke-width: 1.0;"/><!--
@startuml

package "Libindy API" as la {
    [Anoncreds API] as anoncreds_api
    [Cache API] as cache_api
    [Crypto API] as crypto_api
    [DID API] as did_api
    [Ledger API] as ledger_api
    [Non Secrets API] as nonsecrets_api
    [Pairwise API] as pairwise_api
    [Payment API] as payment_api
    [Pool API] as pool_api
    [Wallet API] as wallet_api
}

package "Libindy Commands Executors" as lce {
    [Anoncreds CE] as anoncreds_ce
    [Cache CE] as cache_ce
    [Crypto CE] as crypto_ce
    [DID CE] as did_ce
    [Ledger CE] as ledger_ce
    [Non Secrets CE] as nonsecrets_ce
    [Pairwise CE] as pairwise_ce
    [Payment CE] as payment_ce
    [Pool CE] as pool_ce
    [Wallet CE] as wallet_ce
}

package "Libindy Services" as ls {
    [Anoncreds Service] as anoncreds_s
    [Crypto Service] as crypto_s
    [Ledger Service] as ledger_s
    [Payment Service] as payment_s
    [Pool Service] as pool_s
    [Wallet Service] as wallet_s
}

anoncreds_api ~~> anoncreds_ce
cache_api ~~> cache_ce
crypto_api ~~> crypto_ce
did_api ~~> did_ce
ledger_api ~~> ledger_ce
nonsecrets_api ~~> nonsecrets_ce
pairwise_api ~~> pairwise_ce
payment_api ~~> payment_ce
pool_api ~~> pool_ce
wallet_api ~~> wallet_ce

anoncreds_ce ~~> anoncreds_s
anoncreds_ce ~~> wallet_s
anoncreds_ce ~~> crypto_s
anoncreds_ce ~~> pool_s

cache_ce ~~> wallet_s

crypto_ce ~~> crypto_s
crypto_ce ~~> wallet_s

did_ce ~~> crypto_s
did_ce ~~> ledger_s
did_ce ~~> wallet_s

ledger_ce ~~> crypto_s
ledger_ce ~~> ledger_s
ledger_ce ~~> pool_s
ledger_ce ~~> wallet_s

nonsecrets_ce ~~> wallet_s

pairwise_ce ~~> wallet_s

payment_ce ~~> crypto_s
payment_ce ~~> ledger_s
payment_ce ~~> payment_s
payment_ce ~~> wallet_s

pairwise_ce ~~> pool_s

pool_ce ~~> pool_s

wallet_ce ~~> wallet_s
wallet_ce ~~> crypto_s

@enduml

PlantUML version 1.2019.08(Sat Jul 13 22:25:14 MSK 2019)
(GPL source distribution)
Java Runtime: OpenJDK Runtime Environment
JVM: OpenJDK 64-Bit Server VM
Java Version: 1.8.0_202-release-1483-b49
Operating System: Linux
OS Version: 4.15.0-58-generic
Default Encoding: UTF-8
Language: en
Country: US
--></g></svg>