<?xml version="1.0" encoding="UTF-8" standalone="no"?><svg xmlns="http://www.w3.org/2000/svg" xmlns:xlink="http://www.w3.org/1999/xlink" contentScriptType="application/ecmascript" contentStyleType="text/css" height="550px" preserveAspectRatio="none" style="width:1138px;height:550px;" version="1.1" viewBox="0 0 1138 550" width="1138px" zoomAndPan="magnify"><defs><filter height="300%" id="fbuowx16c0bq8" width="300%" x="-1" y="-1"><feGaussianBlur result="blurOut" stdDeviation="2.0"/><feColorMatrix in="blurOut" result="blurOut2" type="matrix" values="0 0 0 0 0 0 0 0 0 0 0 0 0 0 0 0 0 0 .4 0"/><feOffset dx="4.0" dy="4.0" in="blurOut2" result="blurOut3"/><feBlend in="SourceGraphic" in2="blurOut3" mode="normal"/></filter></defs><g><!--class Tag--><rect fill="#FEFECE" filter="url(#fbuowx16c0bq8)" height="75.6719" id="Tag" style="stroke: #A80036; stroke-width: 1.5;" width="53" x="498" y="327"/><ellipse cx="513" cy="343" fill="#B4A7E5" rx="11" ry="11" style="stroke: #A80036; stroke-width: 1.0;"/><path d="M513.9531,339.6406 L513.9531,346.2969 L515.6719,346.2969 Q516.2813,346.2969 516.5469,346.5313 Q516.8125,346.7656 516.8125,347.1563 Q516.8125,347.5313 516.5469,347.7656 Q516.2813,348 515.6719,348 L510.5313,348 Q509.9219,348 509.6563,347.7656 Q509.3906,347.5313 509.3906,347.1406 Q509.3906,346.7656 509.6563,346.5313 Q509.9219,346.2969 510.5313,346.2969 L512.25,346.2969 L512.25,339.6406 L510.5313,339.6406 Q509.9219,339.6406 509.6563,339.4063 Q509.3906,339.1719 509.3906,338.7813 Q509.3906,338.4063 509.6563,338.1719 Q509.9219,337.9375 510.5313,337.9375 L515.6719,337.9375 Q516.2813,337.9375 516.5469,338.1719 Q516.8125,338.4063 516.8125,338.7813 Q516.8125,339.1719 516.5469,339.4063 Q516.2813,339.6406 515.6719,339.6406 L513.9531,339.6406 Z "/><text fill="#000000" font-family="sans-serif" font-size="12" font-style="italic" lengthAdjust="spacingAndGlyphs" textLength="21" x="527" y="347.9102">Tag</text><line style="stroke: #A80036; stroke-width: 1.5;" x1="499" x2="550" y1="359" y2="359"/><ellipse cx="509" cy="371.418" fill="none" rx="3" ry="3" style="stroke: #038048; stroke-width: 1.0;"/><text fill="#000000" font-family="sans-serif" font-size="11" lengthAdjust="spacingAndGlyphs" textLength="26" x="518" y="374.4189">name</text><ellipse cx="509" cy="385.2539" fill="none" rx="3" ry="3" style="stroke: #038048; stroke-width: 1.0;"/><text fill="#000000" font-family="sans-serif" font-size="11" lengthAdjust="spacingAndGlyphs" textLength="26" x="518" y="388.2549">value</text><line style="stroke: #A80036; stroke-width: 1.5;" x1="499" x2="550" y1="394.6719" y2="394.6719"/><!--class EncryptedTag--><rect fill="#FEFECE" filter="url(#fbuowx16c0bq8)" height="75.6719" id="EncryptedTag" style="stroke: #A80036; stroke-width: 1.5;" width="501" x="6" y="464"/><ellipse cx="214.75" cy="480" fill="#ADD1B2" rx="11" ry="11" style="stroke: #A80036; stroke-width: 1.0;"/><path d="M217.5156,475.875 Q217.6719,475.6563 217.8594,475.5469 Q218.0469,475.4375 218.2656,475.4375 Q218.6406,475.4375 218.875,475.6953 Q219.1094,475.9531 219.1094,476.5625 L219.1094,478.0156 Q219.1094,478.625 218.875,478.8906 Q218.6406,479.1563 218.2656,479.1563 Q217.9219,479.1563 217.7188,478.9531 Q217.5156,478.7656 217.4063,478.25 Q217.3594,477.8906 217.1719,477.7031 Q216.8438,477.3281 216.2344,477.1094 Q215.625,476.8906 215,476.8906 Q214.2344,476.8906 213.6016,477.2188 Q212.9688,477.5469 212.4766,478.2969 Q211.9844,479.0469 211.9844,480.0781 L211.9844,481.1719 Q211.9844,482.4063 212.875,483.2266 Q213.7656,484.0469 215.3594,484.0469 Q216.2969,484.0469 216.9531,483.7969 Q217.3438,483.6406 217.7656,483.2031 Q218.0313,482.9375 218.1797,482.8594 Q218.3281,482.7813 218.5313,482.7813 Q218.8594,482.7813 219.1172,483.0391 Q219.375,483.2969 219.375,483.6406 Q219.375,483.9844 219.0313,484.3906 Q218.5313,484.9688 217.7344,485.2969 Q216.6563,485.75 215.3594,485.75 Q213.8438,485.75 212.6406,485.125 Q211.6563,484.625 210.9688,483.5547 Q210.2813,482.4844 210.2813,481.2031 L210.2813,480.0469 Q210.2813,478.7188 210.8984,477.5703 Q211.5156,476.4219 212.6094,475.8047 Q213.7031,475.1875 214.9375,475.1875 Q215.6719,475.1875 216.3203,475.3516 Q216.9688,475.5156 217.5156,475.875 Z "/><text fill="#000000" font-family="sans-serif" font-size="12" lengthAdjust="spacingAndGlyphs" textLength="75" x="235.25" y="484.9102">EncryptedTag</text><line style="stroke: #A80036; stroke-width: 1.5;" x1="7" x2="506" y1="496" y2="496"/><line style="stroke: #A80036; stroke-width: 1.5;" x1="7" x2="506" y1="504" y2="504"/><ellipse cx="17" cy="516.418" fill="#84BE84" rx="3" ry="3" style="stroke: #038048; stroke-width: 1.0;"/><text fill="#000000" font-family="sans-serif" font-size="11" lengthAdjust="spacingAndGlyphs" textLength="475" x="26" y="519.4189">name: XChaCha20-Poly1305(data=tag_name, key=k5, iv=HMAC-SHA256(data=tag_name, key=k7))</text><ellipse cx="17" cy="530.2539" fill="#84BE84" rx="3" ry="3" style="stroke: #038048; stroke-width: 1.0;"/><text fill="#000000" font-family="sans-serif" font-size="11" lengthAdjust="spacingAndGlyphs" textLength="475" x="26" y="533.2549">value: XChaCha20-Poly1305(data=tag_value, key=k6, iv=HMAC-SHA256(data=tag_value, key=k7))</text><!--class UnencryptedTag--><rect fill="#FEFECE" filter="url(#fbuowx16c0bq8)" height="75.6719" id="UnencryptedTag" style="stroke: #A80036; stroke-width: 1.5;" width="501" x="542" y="464"/><ellipse cx="743.25" cy="480" fill="#ADD1B2" rx="11" ry="11" style="stroke: #A80036; stroke-width: 1.0;"/><path d="M746.0156,475.875 Q746.1719,475.6563 746.3594,475.5469 Q746.5469,475.4375 746.7656,475.4375 Q747.1406,475.4375 747.375,475.6953 Q747.6094,475.9531 747.6094,476.5625 L747.6094,478.0156 Q747.6094,478.625 747.375,478.8906 Q747.1406,479.1563 746.7656,479.1563 Q746.4219,479.1563 746.2188,478.9531 Q746.0156,478.7656 745.9063,478.25 Q745.8594,477.8906 745.6719,477.7031 Q745.3438,477.3281 744.7344,477.1094 Q744.125,476.8906 743.5,476.8906 Q742.7344,476.8906 742.1016,477.2188 Q741.4688,477.5469 740.9766,478.2969 Q740.4844,479.0469 740.4844,480.0781 L740.4844,481.1719 Q740.4844,482.4063 741.375,483.2266 Q742.2656,484.0469 743.8594,484.0469 Q744.7969,484.0469 745.4531,483.7969 Q745.8438,483.6406 746.2656,483.2031 Q746.5313,482.9375 746.6797,482.8594 Q746.8281,482.7813 747.0313,482.7813 Q747.3594,482.7813 747.6172,483.0391 Q747.875,483.2969 747.875,483.6406 Q747.875,483.9844 747.5313,484.3906 Q747.0313,484.9688 746.2344,485.2969 Q745.1563,485.75 743.8594,485.75 Q742.3438,485.75 741.1406,485.125 Q740.1563,484.625 739.4688,483.5547 Q738.7813,482.4844 738.7813,481.2031 L738.7813,480.0469 Q738.7813,478.7188 739.3984,477.5703 Q740.0156,476.4219 741.1094,475.8047 Q742.2031,475.1875 743.4375,475.1875 Q744.1719,475.1875 744.8203,475.3516 Q745.4688,475.5156 746.0156,475.875 Z "/><text fill="#000000" font-family="sans-serif" font-size="12" lengthAdjust="spacingAndGlyphs" textLength="90" x="763.75" y="484.9102">UnencryptedTag</text><line style="stroke: #A80036; stroke-width: 1.5;" x1="543" x2="1042" y1="496" y2="496"/><line style="stroke: #A80036; stroke-width: 1.5;" x1="543" x2="1042" y1="504" y2="504"/><ellipse cx="553" cy="516.418" fill="#84BE84" rx="3" ry="3" style="stroke: #038048; stroke-width: 1.0;"/><text fill="#000000" font-family="sans-serif" font-size="11" lengthAdjust="spacingAndGlyphs" textLength="475" x="562" y="519.4189">name: XChaCha20-Poly1305(data=tag_name, key=k5, iv=HMAC-SHA256(data=tag_name, key=k7))</text><ellipse cx="553" cy="530.2539" fill="#84BE84" rx="3" ry="3" style="stroke: #038048; stroke-width: 1.0;"/><text fill="#000000" font-family="sans-serif" font-size="11" lengthAdjust="spacingAndGlyphs" textLength="136" x="562" y="533.2549">value: plain(data=tag_value)</text><!--class Record--><rect fill="#FEFECE" filter="url(#fbuowx16c0bq8)" height="89.5078" id="Record" style="stroke: #A80036; stroke-width: 1.5;" width="72" x="488.5" y="159"/><ellipse cx="503.5" cy="175" fill="#B4A7E5" rx="11" ry="11" style="stroke: #A80036; stroke-width: 1.0;"/><path d="M504.4531,171.6406 L504.4531,178.2969 L506.1719,178.2969 Q506.7813,178.2969 507.0469,178.5313 Q507.3125,178.7656 507.3125,179.1563 Q507.3125,179.5313 507.0469,179.7656 Q506.7813,180 506.1719,180 L501.0313,180 Q500.4219,180 500.1563,179.7656 Q499.8906,179.5313 499.8906,179.1406 Q499.8906,178.7656 500.1563,178.5313 Q500.4219,178.2969 501.0313,178.2969 L502.75,178.2969 L502.75,171.6406 L501.0313,171.6406 Q500.4219,171.6406 500.1563,171.4063 Q499.8906,171.1719 499.8906,170.7813 Q499.8906,170.4063 500.1563,170.1719 Q500.4219,169.9375 501.0313,169.9375 L506.1719,169.9375 Q506.7813,169.9375 507.0469,170.1719 Q507.3125,170.4063 507.3125,170.7813 Q507.3125,171.1719 507.0469,171.4063 Q506.7813,171.6406 506.1719,171.6406 L504.4531,171.6406 Z "/><text fill="#000000" font-family="sans-serif" font-size="12" font-style="italic" lengthAdjust="spacingAndGlyphs" textLength="40" x="517.5" y="179.9102">Record</text><line style="stroke: #A80036; stroke-width: 1.5;" x1="489.5" x2="559.5" y1="191" y2="191"/><ellipse cx="499.5" cy="203.418" fill="none" rx="3" ry="3" style="stroke: #038048; stroke-width: 1.0;"/><text fill="#000000" font-family="sans-serif" font-size="11" lengthAdjust="spacingAndGlyphs" textLength="21" x="508.5" y="206.4189">type</text><ellipse cx="499.5" cy="217.2539" fill="none" rx="3" ry="3" style="stroke: #038048; stroke-width: 1.0;"/><text fill="#000000" font-family="sans-serif" font-size="11" lengthAdjust="spacingAndGlyphs" textLength="8" x="508.5" y="220.2549">id</text><ellipse cx="499.5" cy="231.0898" fill="none" rx="3" ry="3" style="stroke: #038048; stroke-width: 1.0;"/><text fill="#000000" font-family="sans-serif" font-size="11" lengthAdjust="spacingAndGlyphs" textLength="26" x="508.5" y="234.0908">value</text><line style="stroke: #A80036; stroke-width: 1.5;" x1="489.5" x2="559.5" y1="240.5078" y2="240.5078"/><!--class KeysRecord--><rect fill="#FEFECE" filter="url(#fbuowx16c0bq8)" height="89.5078" id="KeysRecord" style="stroke: #A80036; stroke-width: 1.5;" width="434" x="22.5" y="8"/><ellipse cx="201.75" cy="24" fill="#ADD1B2" rx="11" ry="11" style="stroke: #A80036; stroke-width: 1.0;"/><path d="M204.5156,19.875 Q204.6719,19.6563 204.8594,19.5469 Q205.0469,19.4375 205.2656,19.4375 Q205.6406,19.4375 205.875,19.6953 Q206.1094,19.9531 206.1094,20.5625 L206.1094,22.0156 Q206.1094,22.625 205.875,22.8906 Q205.6406,23.1563 205.2656,23.1563 Q204.9219,23.1563 204.7188,22.9531 Q204.5156,22.7656 204.4063,22.25 Q204.3594,21.8906 204.1719,21.7031 Q203.8438,21.3281 203.2344,21.1094 Q202.625,20.8906 202,20.8906 Q201.2344,20.8906 200.6016,21.2188 Q199.9688,21.5469 199.4766,22.2969 Q198.9844,23.0469 198.9844,24.0781 L198.9844,25.1719 Q198.9844,26.4063 199.875,27.2266 Q200.7656,28.0469 202.3594,28.0469 Q203.2969,28.0469 203.9531,27.7969 Q204.3438,27.6406 204.7656,27.2031 Q205.0313,26.9375 205.1797,26.8594 Q205.3281,26.7813 205.5313,26.7813 Q205.8594,26.7813 206.1172,27.0391 Q206.375,27.2969 206.375,27.6406 Q206.375,27.9844 206.0313,28.3906 Q205.5313,28.9688 204.7344,29.2969 Q203.6563,29.75 202.3594,29.75 Q200.8438,29.75 199.6406,29.125 Q198.6563,28.625 197.9688,27.5547 Q197.2813,26.4844 197.2813,25.2031 L197.2813,24.0469 Q197.2813,22.7188 197.8984,21.5703 Q198.5156,20.4219 199.6094,19.8047 Q200.7031,19.1875 201.9375,19.1875 Q202.6719,19.1875 203.3203,19.3516 Q203.9688,19.5156 204.5156,19.875 Z "/><text fill="#000000" font-family="sans-serif" font-size="12" lengthAdjust="spacingAndGlyphs" textLength="67" x="222.25" y="28.9102">KeysRecord</text><line style="stroke: #A80036; stroke-width: 1.5;" x1="23.5" x2="455.5" y1="40" y2="40"/><ellipse cx="33.5" cy="52.418" fill="none" rx="3" ry="3" style="stroke: #038048; stroke-width: 1.0;"/><text fill="#000000" font-family="sans-serif" font-size="11" lengthAdjust="spacingAndGlyphs" textLength="63" x="42.5" y="55.4189">type: "KEYS"</text><ellipse cx="33.5" cy="66.2539" fill="none" rx="3" ry="3" style="stroke: #038048; stroke-width: 1.0;"/><text fill="#000000" font-family="sans-serif" font-size="11" lengthAdjust="spacingAndGlyphs" textLength="65" x="42.5" y="69.2549">id: "KEYS_ID"</text><line style="stroke: #A80036; stroke-width: 1.5;" x1="23.5" x2="455.5" y1="75.6719" y2="75.6719"/><ellipse cx="33.5" cy="88.0898" fill="#84BE84" rx="3" ry="3" style="stroke: #038048; stroke-width: 1.0;"/><text fill="#000000" font-family="sans-serif" font-size="11" lengthAdjust="spacingAndGlyphs" textLength="408" x="42.5" y="91.0908">value: XChaCha20-Poly1305(data=k1||k2||k3||k4||k5||k6||k7, key=master_key, iv=rand())</text><!--class WalletRecord--><rect fill="#FEFECE" filter="url(#fbuowx16c0bq8)" height="89.5078" id="WalletRecord" style="stroke: #A80036; stroke-width: 1.5;" width="635" x="492" y="8"/><ellipse cx="768.25" cy="24" fill="#ADD1B2" rx="11" ry="11" style="stroke: #A80036; stroke-width: 1.0;"/><path d="M771.0156,19.875 Q771.1719,19.6563 771.3594,19.5469 Q771.5469,19.4375 771.7656,19.4375 Q772.1406,19.4375 772.375,19.6953 Q772.6094,19.9531 772.6094,20.5625 L772.6094,22.0156 Q772.6094,22.625 772.375,22.8906 Q772.1406,23.1563 771.7656,23.1563 Q771.4219,23.1563 771.2188,22.9531 Q771.0156,22.7656 770.9063,22.25 Q770.8594,21.8906 770.6719,21.7031 Q770.3438,21.3281 769.7344,21.1094 Q769.125,20.8906 768.5,20.8906 Q767.7344,20.8906 767.1016,21.2188 Q766.4688,21.5469 765.9766,22.2969 Q765.4844,23.0469 765.4844,24.0781 L765.4844,25.1719 Q765.4844,26.4063 766.375,27.2266 Q767.2656,28.0469 768.8594,28.0469 Q769.7969,28.0469 770.4531,27.7969 Q770.8438,27.6406 771.2656,27.2031 Q771.5313,26.9375 771.6797,26.8594 Q771.8281,26.7813 772.0313,26.7813 Q772.3594,26.7813 772.6172,27.0391 Q772.875,27.2969 772.875,27.6406 Q772.875,27.9844 772.5313,28.3906 Q772.0313,28.9688 771.2344,29.2969 Q770.1563,29.75 768.8594,29.75 Q767.3438,29.75 766.1406,29.125 Q765.1563,28.625 764.4688,27.5547 Q763.7813,26.4844 763.7813,25.2031 L763.7813,24.0469 Q763.7813,22.7188 764.3984,21.5703 Q765.0156,20.4219 766.1094,19.8047 Q767.2031,19.1875 768.4375,19.1875 Q769.1719,19.1875 769.8203,19.3516 Q770.4688,19.5156 771.0156,19.875 Z "/><text fill="#000000" font-family="sans-serif" font-size="12" lengthAdjust="spacingAndGlyphs" textLength="74" x="788.75" y="28.9102">WalletRecord</text><line style="stroke: #A80036; stroke-width: 1.5;" x1="493" x2="1126" y1="40" y2="40"/><line style="stroke: #A80036; stroke-width: 1.5;" x1="493" x2="1126" y1="48" y2="48"/><ellipse cx="503" cy="60.418" fill="#84BE84" rx="3" ry="3" style="stroke: #038048; stroke-width: 1.0;"/><text fill="#000000" font-family="sans-serif" font-size="11" lengthAdjust="spacingAndGlyphs" textLength="418" x="512" y="63.4189">type: XChaCha20-Poly1305(data=type, key=k1, iv=HMAC-SHA256(data=type, key=k4))</text><ellipse cx="503" cy="74.2539" fill="#84BE84" rx="3" ry="3" style="stroke: #038048; stroke-width: 1.0;"/><text fill="#000000" font-family="sans-serif" font-size="11" lengthAdjust="spacingAndGlyphs" textLength="433" x="512" y="77.2549">name: XChaCha20-Poly1305(data=name, key=k2, iv=HMAC-SHA256(data=name, key=k4))</text><ellipse cx="503" cy="88.0898" fill="#84BE84" rx="3" ry="3" style="stroke: #038048; stroke-width: 1.0;"/><text fill="#000000" font-family="sans-serif" font-size="11" lengthAdjust="spacingAndGlyphs" textLength="609" x="512" y="91.0908">value: XChaCha20-Poly1305(data=value_key, key=k3, iv=rand())||XChaCha20-Poly1305(data=value, key=value_key, iv=rand())</text><!--link Tag to EncryptedTag--><path d="M479.86,388.486 C439.122,409.007 378.136,439.728 330.178,463.886 " fill="none" id="Tag-EncryptedTag" style="stroke: #A80036; stroke-width: 1.0;"/><polygon fill="none" points="476.812,382.184,497.823,379.438,483.111,394.687,476.812,382.184" style="stroke: #A80036; stroke-width: 1.0;"/><!--link Tag to UnencryptedTag--><path d="M569.14,388.486 C609.878,409.007 670.864,439.728 718.822,463.886 " fill="none" id="Tag-UnencryptedTag" style="stroke: #A80036; stroke-width: 1.0;"/><polygon fill="none" points="565.889,394.687,551.177,379.438,572.188,382.184,565.889,394.687" style="stroke: #A80036; stroke-width: 1.0;"/><!--link Record to Tag--><path d="M524.5,249.29 C524.5,269.341 524.5,293.135 524.5,313.841 " fill="none" id="Record-Tag" style="stroke: #A80036; stroke-width: 1.0;"/><polygon fill="#A80036" points="524.5,326.932,528.5,320.932,524.5,314.932,520.5,320.932,524.5,326.932" style="stroke: #A80036; stroke-width: 1.0;"/><text fill="#000000" font-family="sans-serif" font-size="13" lengthAdjust="spacingAndGlyphs" textLength="25" x="525.5" y="293.4951">tags</text><text fill="#000000" font-family="sans-serif" font-size="13" lengthAdjust="spacingAndGlyphs" textLength="7" x="517.0297" y="270.0027">1</text><text fill="#000000" font-family="sans-serif" font-size="13" lengthAdjust="spacingAndGlyphs" textLength="5" x="519.0547" y="316.2818">*</text><!--link KeysRecord to Record--><path d="M323.853,98.1 C371.394,122.955 429.358,153.259 470.738,174.893 " fill="none" id="KeysRecord-Record" style="stroke: #A80036; stroke-width: 1.0;"/><polygon fill="none" points="474.006,168.702,488.487,184.172,467.52,181.109,474.006,168.702" style="stroke: #A80036; stroke-width: 1.0;"/><!--link WalletRecord to Record--><path d="M725.147,98.1 C677.606,122.955 619.642,153.259 578.262,174.893 " fill="none" id="WalletRecord-Record" style="stroke: #A80036; stroke-width: 1.0;"/><polygon fill="none" points="581.48,181.109,560.513,184.172,574.994,168.702,581.48,181.109" style="stroke: #A80036; stroke-width: 1.0;"/><!--
@startuml wallet-encryption

interface Tag {
    +name
    +value
}

class EncryptedTag {
    +name: XChaCha20-Poly1305(data=tag_name, key=k5, iv=HMAC-SHA256(data=tag_name, key=k7))
    +value: XChaCha20-Poly1305(data=tag_value, key=k6, iv=HMAC-SHA256(data=tag_value, key=k7))
}
Tag <|- - EncryptedTag

class UnencryptedTag {
     +name: XChaCha20-Poly1305(data=tag_name, key=k5, iv=HMAC-SHA256(data=tag_name, key=k7))
     +value: plain(data=tag_value)
 }
Tag <|- - UnencryptedTag

interface Record {
    +type
    +id
    +value
}
Record "1" - -* "*" Tag : tags

class KeysRecord {
    +type: "KEYS"
    +id: "KEYS_ID"
    +value: XChaCha20-Poly1305(data=k1||k2||k3||k4||k5||k6||k7, key=master_key, iv=rand())
}
KeysRecord - -|> Record

class WalletRecord {
    +type: XChaCha20-Poly1305(data=type, key=k1, iv=HMAC-SHA256(data=type, key=k4))
    +name: XChaCha20-Poly1305(data=name, key=k2, iv=HMAC-SHA256(data=name, key=k4))
    +value: XChaCha20-Poly1305(data=value_key, key=k3, iv=rand())||XChaCha20-Poly1305(data=value, key=value_key, iv=rand())    
}
WalletRecord - -|> Record

@enduml

PlantUML version 1.2017.20(Mon Dec 11 19:57:05 MSK 2017)
(GPL source distribution)
Java Runtime: Java(TM) SE Runtime Environment
JVM: Java HotSpot(TM) 64-Bit Server VM
Java Version: 1.8.0_151-b12
Operating System: Windows 10
OS Version: 10.0
Default Encoding: Cp1252
Language: en
Country: US
--></g></svg>