<?xml version="1.0" encoding="UTF-8" standalone="no"?><svg xmlns="http://www.w3.org/2000/svg" xmlns:xlink="http://www.w3.org/1999/xlink" contentScriptType="application/ecmascript" contentStyleType="text/css" height="2983.5px" preserveAspectRatio="none" style="width:1189px;height:2983px;" version="1.1" viewBox="0 0 1189 2983" width="1189.8px" zoomAndPan="magnify"><defs><filter height="300%" id="fbwpq48" width="300%" x="-1" y="-1"><feGaussianBlur result="blurOut" stdDeviation="1.8"/><feColorMatrix in="blurOut" result="blurOut2" type="matrix" values="0 0 0 0 0 0 0 0 0 0 0 0 0 0 0 0 0 0 .4 0"/><feOffset dx="3.6" dy="3.6" in="blurOut2" result="blurOut3"/><feBlend in="SourceGraphic" in2="blurOut3" mode="normal"/></filter></defs><g><text fill="#000000" font-family="sans-serif" font-size="12.6" font-weight="bold" lengthAdjust="spacingAndGlyphs" textLength="116.1" x="536.175" y="20.8187">Libindy anoncreds</text><rect fill="#ADD8E6" height="2952.2958" style="stroke: #A80036; stroke-width: 0.9;" width="382.95" x="21.6" y="30.6888"/><text fill="#000000" font-family="sans-serif" font-size="11.7" font-weight="bold" lengthAdjust="spacingAndGlyphs" textLength="34.2" x="195.975" y="41.6632">Issuer</text><rect fill="#DDDDDD" height="2952.2958" style="stroke: #A80036; stroke-width: 0.9;" width="377.55" x="498.6" y="30.6888"/><text fill="#000000" font-family="sans-serif" font-size="11.7" font-weight="bold" lengthAdjust="spacingAndGlyphs" textLength="36.9" x="668.925" y="41.6632">Prover</text><line style="stroke: #A80036; stroke-width: 0.9; stroke-dasharray: 5.0,5.0;" x1="95.4" x2="95.4" y1="122.5314" y2="2905.4958"/><line style="stroke: #A80036; stroke-width: 0.9; stroke-dasharray: 5.0,5.0;" x1="380.25" x2="380.25" y1="122.5314" y2="2905.4958"/><line style="stroke: #A80036; stroke-width: 0.9; stroke-dasharray: 5.0,5.0;" x1="523.8" x2="523.8" y1="122.5314" y2="2905.4958"/><line style="stroke: #A80036; stroke-width: 0.9; stroke-dasharray: 5.0,5.0;" x1="800.55" x2="800.55" y1="122.5314" y2="2905.4958"/><line style="stroke: #A80036; stroke-width: 0.9; stroke-dasharray: 5.0,5.0;" x1="922.05" x2="922.05" y1="122.5314" y2="2905.4958"/><line style="stroke: #A80036; stroke-width: 0.9; stroke-dasharray: 5.0,5.0;" x1="1125.45" x2="1125.45" y1="122.5314" y2="2905.4958"/><rect fill="#FEFECE" filter="url(#fbwpq48)" height="27.0888" style="stroke: #A80036; stroke-width: 1.35;" width="100.8" x="43.2" y="90.9426"/><text fill="#000000" font-family="sans-serif" font-size="12.6" lengthAdjust="spacingAndGlyphs" textLength="88.2" x="49.5" y="109.0613">Walleted Issuer</text><rect fill="#FEFECE" filter="url(#fbwpq48)" height="27.0888" style="stroke: #A80036; stroke-width: 1.35;" width="100.8" x="43.2" y="2904.5958"/><text fill="#000000" font-family="sans-serif" font-size="12.6" lengthAdjust="spacingAndGlyphs" textLength="88.2" x="49.5" y="2922.7144">Walleted Issuer</text><text fill="#000000" font-family="sans-serif" font-size="12.6" lengthAdjust="spacingAndGlyphs" textLength="35.1" x="360.45" y="119.8613">Issuer</text><ellipse cx="380.7" cy="56.7426" fill="#FEFECE" filter="url(#fbwpq48)" rx="7.2" ry="7.2" style="stroke: #A80036; stroke-width: 1.8;"/><path d="M380.7,63.9426 L380.7,88.2426 M369,71.1426 L392.4,71.1426 M380.7,88.2426 L369,101.7426 M380.7,88.2426 L392.4,101.7426 " fill="#FEFECE" filter="url(#fbwpq48)" style="stroke: #A80036; stroke-width: 1.8;"/><text fill="#000000" font-family="sans-serif" font-size="12.6" lengthAdjust="spacingAndGlyphs" textLength="35.1" x="360.45" y="2916.4144">Issuer</text><ellipse cx="380.7" cy="2928.0845" fill="#FEFECE" filter="url(#fbwpq48)" rx="7.2" ry="7.2" style="stroke: #A80036; stroke-width: 1.8;"/><path d="M380.7,2935.2845 L380.7,2959.5845 M369,2942.4845 L392.4,2942.4845 M380.7,2959.5845 L369,2973.0845 M380.7,2959.5845 L392.4,2973.0845 " fill="#FEFECE" filter="url(#fbwpq48)" style="stroke: #A80036; stroke-width: 1.8;"/><text fill="#000000" font-family="sans-serif" font-size="12.6" lengthAdjust="spacingAndGlyphs" textLength="37.8" x="502.2" y="119.8613">Prover</text><ellipse cx="523.8" cy="56.7426" fill="#FEFECE" filter="url(#fbwpq48)" rx="7.2" ry="7.2" style="stroke: #A80036; stroke-width: 1.8;"/><path d="M523.8,63.9426 L523.8,88.2426 M512.1,71.1426 L535.5,71.1426 M523.8,88.2426 L512.1,101.7426 M523.8,88.2426 L535.5,101.7426 " fill="#FEFECE" filter="url(#fbwpq48)" style="stroke: #A80036; stroke-width: 1.8;"/><text fill="#000000" font-family="sans-serif" font-size="12.6" lengthAdjust="spacingAndGlyphs" textLength="37.8" x="502.2" y="2916.4144">Prover</text><ellipse cx="523.8" cy="2928.0845" fill="#FEFECE" filter="url(#fbwpq48)" rx="7.2" ry="7.2" style="stroke: #A80036; stroke-width: 1.8;"/><path d="M523.8,2935.2845 L523.8,2959.5845 M512.1,2942.4845 L535.5,2942.4845 M523.8,2959.5845 L512.1,2973.0845 M523.8,2959.5845 L535.5,2973.0845 " fill="#FEFECE" filter="url(#fbwpq48)" style="stroke: #A80036; stroke-width: 1.8;"/><rect fill="#FEFECE" filter="url(#fbwpq48)" height="27.0888" style="stroke: #A80036; stroke-width: 1.35;" width="103.5" x="747.45" y="90.9426"/><text fill="#000000" font-family="sans-serif" font-size="12.6" lengthAdjust="spacingAndGlyphs" textLength="90.9" x="753.75" y="109.0613">Walleted Prover</text><rect fill="#FEFECE" filter="url(#fbwpq48)" height="27.0888" style="stroke: #A80036; stroke-width: 1.35;" width="103.5" x="747.45" y="2904.5958"/><text fill="#000000" font-family="sans-serif" font-size="12.6" lengthAdjust="spacingAndGlyphs" textLength="90.9" x="753.75" y="2922.7144">Walleted Prover</text><text fill="#000000" font-family="sans-serif" font-size="12.6" lengthAdjust="spacingAndGlyphs" textLength="40.5" x="899.55" y="119.8613">Verifier</text><ellipse cx="922.5" cy="56.7426" fill="#FEFECE" filter="url(#fbwpq48)" rx="7.2" ry="7.2" style="stroke: #A80036; stroke-width: 1.8;"/><path d="M922.5,63.9426 L922.5,88.2426 M910.8,71.1426 L934.2,71.1426 M922.5,88.2426 L910.8,101.7426 M922.5,88.2426 L934.2,101.7426 " fill="#FEFECE" filter="url(#fbwpq48)" style="stroke: #A80036; stroke-width: 1.8;"/><text fill="#000000" font-family="sans-serif" font-size="12.6" lengthAdjust="spacingAndGlyphs" textLength="40.5" x="899.55" y="2916.4144">Verifier</text><ellipse cx="922.5" cy="2928.0845" fill="#FEFECE" filter="url(#fbwpq48)" rx="7.2" ry="7.2" style="stroke: #A80036; stroke-width: 1.8;"/><path d="M922.5,2935.2845 L922.5,2959.5845 M910.8,2942.4845 L934.2,2942.4845 M922.5,2959.5845 L910.8,2973.0845 M922.5,2959.5845 L934.2,2973.0845 " fill="#FEFECE" filter="url(#fbwpq48)" style="stroke: #A80036; stroke-width: 1.8;"/><rect fill="#FEFECE" filter="url(#fbwpq48)" height="27.0888" style="stroke: #A80036; stroke-width: 1.35;" width="53.1" x="1097.55" y="90.9426"/><text fill="#000000" font-family="sans-serif" font-size="12.6" lengthAdjust="spacingAndGlyphs" textLength="40.5" x="1103.85" y="109.0613">Ledger</text><rect fill="#FEFECE" filter="url(#fbwpq48)" height="27.0888" style="stroke: #A80036; stroke-width: 1.35;" width="53.1" x="1097.55" y="2904.5958"/><text fill="#000000" font-family="sans-serif" font-size="12.6" lengthAdjust="spacingAndGlyphs" textLength="40.5" x="1103.85" y="2922.7144">Ledger</text><polygon fill="#FFFFFF" filter="url(#fbwpq48)" points="38.7,136.0314,38.7,238.6314,1180.8,238.6314,1180.8,145.0314,1171.8,136.0314,38.7,136.0314" style="stroke: #A80036; stroke-width: 0.9;"/><line style="stroke: #A80036; stroke-width: 0.9;" x1="1171.8" x2="1171.8" y1="136.0314" y2="145.0314"/><line style="stroke: #A80036; stroke-width: 0.9;" x1="1180.8" x2="1171.8" y1="145.0314" y2="145.0314"/><text fill="#000000" font-family="sans-serif" font-size="11.7" lengthAdjust="spacingAndGlyphs" textLength="186.3" x="466.425" y="151.5059">dashed arrows: a value from Ledger</text><text fill="#000000" font-family="sans-serif" font-size="11.7" font-weight="bold" lengthAdjust="spacingAndGlyphs" textLength="48.6" x="466.425" y="164.9597">bold text</text><text fill="#000000" font-family="sans-serif" font-size="11.7" lengthAdjust="spacingAndGlyphs" textLength="143.1" x="515.025" y="164.9597">: anoncreds libindy API call</text><text fill="#FF0000" font-family="sans-serif" font-size="11.7" lengthAdjust="spacingAndGlyphs" textLength="19.8" x="466.425" y="178.4136">red:</text><text fill="#000000" font-family="sans-serif" font-size="11.7" lengthAdjust="spacingAndGlyphs" textLength="223.2" x="489.825" y="178.4136">internal communication with walleted entity</text><text fill="#008000" font-family="sans-serif" font-size="11.7" lengthAdjust="spacingAndGlyphs" textLength="32.4" x="466.425" y="191.8674">green:</text><text fill="#000000" font-family="sans-serif" font-size="11.7" lengthAdjust="spacingAndGlyphs" textLength="167.4" x="502.425" y="191.8674">submit/get to/from secure wallet</text><text fill="#0000FF" font-family="sans-serif" font-size="11.7" lengthAdjust="spacingAndGlyphs" textLength="25.2" x="466.425" y="205.3213">blue:</text><text fill="#000000" font-family="sans-serif" font-size="11.7" lengthAdjust="spacingAndGlyphs" textLength="134.1" x="495.225" y="205.3213">submit/get to/from Ledger</text><text fill="#000000" font-family="sans-serif" font-size="11.7" lengthAdjust="spacingAndGlyphs" textLength="275.4" x="466.425" y="218.7751">black: communication between Issuer/Prover/Verifier</text><text fill="#000000" font-family="sans-serif" font-size="11.7" lengthAdjust="spacingAndGlyphs" textLength="0" x="470.025" y="232.229"/><rect fill="#EEEEEE" filter="url(#fbwpq48)" height="2.7" style="stroke: #EEEEEE; stroke-width: 0.9;" width="1183.05" x="2.7" y="267.8052"/><line style="stroke: #000000; stroke-width: 0.9;" x1="2.7" x2="1185.75" y1="267.8052" y2="267.8052"/><line style="stroke: #000000; stroke-width: 0.9;" x1="2.7" x2="1185.75" y1="270.5052" y2="270.5052"/><rect fill="#EEEEEE" filter="url(#fbwpq48)" height="24.7935" style="stroke: #000000; stroke-width: 1.8;" width="212.4" x="488.025" y="256.3084"/><text fill="#000000" font-family="sans-serif" font-size="15.3" font-weight="bold" lengthAdjust="spacingAndGlyphs" textLength="199.8" x="493.425" y="274.2596">Create Credential Definition</text><polygon fill="#A80036" points="105.3,304.5019,96.3,308.1019,105.3,311.7019,101.7,308.1019" style="stroke: #A80036; stroke-width: 0.9;"/><line style="stroke: #A80036; stroke-width: 0.9;" x1="99.9" x2="379.8" y1="308.1019" y2="308.1019"/><text fill="#000000" font-family="sans-serif" font-size="11.7" font-weight="bold" lengthAdjust="spacingAndGlyphs" textLength="263.7" x="110.7" y="304.6764">1. indy_issuer_create_and_store_credential_def</text><line style="stroke: #008000; stroke-width: 0.9;" x1="95.4" x2="133.2" y1="335.0096" y2="335.0096"/><line style="stroke: #008000; stroke-width: 0.9;" x1="133.2" x2="133.2" y1="335.0096" y2="346.7096"/><line style="stroke: #008000; stroke-width: 0.9;" x1="96.3" x2="133.2" y1="346.7096" y2="346.7096"/><polygon fill="#008000" points="105.3,343.1096,96.3,346.7096,105.3,350.3096,101.7,346.7096" style="stroke: #008000; stroke-width: 0.9;"/><text fill="#000000" font-family="sans-serif" font-size="11.7" lengthAdjust="spacingAndGlyphs" textLength="244.8" x="101.7" y="330.7302">store public/private keys and correctness proof</text><polygon fill="#A80036" points="369.9,368.3096,378.9,371.9096,369.9,375.5096,373.5,371.9096" style="stroke: #A80036; stroke-width: 0.9;"/><line style="stroke: #A80036; stroke-width: 0.9;" x1="95.4" x2="375.3" y1="371.9096" y2="371.9096"/><text fill="#000000" font-family="sans-serif" font-size="11.7" lengthAdjust="spacingAndGlyphs" textLength="169.2" x="101.7" y="368.4841">&lt;cred_def_id&gt;, &lt;cred_def_json&gt;</text><polygon fill="#0000FF" points="1115.1,394.3635,1124.1,397.9635,1115.1,401.5635,1118.7,397.9635" style="stroke: #0000FF; stroke-width: 0.9;"/><line style="stroke: #0000FF; stroke-width: 0.9;" x1="380.7" x2="1120.5" y1="397.9635" y2="397.9635"/><text fill="#000000" font-family="sans-serif" font-size="11.7" lengthAdjust="spacingAndGlyphs" textLength="110.7" x="387" y="394.5379">send CRED_DEF txn</text><rect fill="#EEEEEE" filter="url(#fbwpq48)" height="2.7" style="stroke: #EEEEEE; stroke-width: 0.9;" width="1183.05" x="2.7" y="426.5141"/><line style="stroke: #000000; stroke-width: 0.9;" x1="2.7" x2="1185.75" y1="426.5141" y2="426.5141"/><line style="stroke: #000000; stroke-width: 0.9;" x1="2.7" x2="1185.75" y1="429.2141" y2="429.2141"/><rect fill="#EEEEEE" filter="url(#fbwpq48)" height="24.7935" style="stroke: #000000; stroke-width: 1.8;" width="208.8" x="489.825" y="415.0173"/><text fill="#000000" font-family="sans-serif" font-size="15.3" font-weight="bold" lengthAdjust="spacingAndGlyphs" textLength="196.2" x="495.225" y="432.9686">Create Revocation Registry</text><polygon fill="#A80036" points="105.3,463.2108,96.3,466.8108,105.3,470.4108,101.7,466.8108" style="stroke: #A80036; stroke-width: 0.9;"/><line style="stroke: #A80036; stroke-width: 0.9;" x1="99.9" x2="379.8" y1="466.8108" y2="466.8108"/><text fill="#000000" font-family="sans-serif" font-size="11.7" font-weight="bold" lengthAdjust="spacingAndGlyphs" textLength="240.3" x="110.7" y="463.3853">3. indy_issuer_create_and_store_revoc_reg</text><line style="stroke: #008000; stroke-width: 0.9;" x1="95.4" x2="133.2" y1="493.7186" y2="493.7186"/><line style="stroke: #008000; stroke-width: 0.9;" x1="133.2" x2="133.2" y1="493.7186" y2="505.4186"/><line style="stroke: #008000; stroke-width: 0.9;" x1="96.3" x2="133.2" y1="505.4186" y2="505.4186"/><polygon fill="#008000" points="105.3,501.8186,96.3,505.4186,105.3,509.0186,101.7,505.4186" style="stroke: #008000; stroke-width: 0.9;"/><text fill="#000000" font-family="sans-serif" font-size="11.7" lengthAdjust="spacingAndGlyphs" textLength="45" x="101.7" y="489.4392">get keys</text><line style="stroke: #008000; stroke-width: 0.9;" x1="95.4" x2="133.2" y1="544.9263" y2="544.9263"/><line style="stroke: #008000; stroke-width: 0.9;" x1="133.2" x2="133.2" y1="544.9263" y2="556.6263"/><line style="stroke: #008000; stroke-width: 0.9;" x1="96.3" x2="133.2" y1="556.6263" y2="556.6263"/><polygon fill="#008000" points="105.3,553.0263,96.3,556.6263,105.3,560.2263,101.7,556.6263" style="stroke: #008000; stroke-width: 0.9;"/><text fill="#000000" font-family="sans-serif" font-size="11.7" lengthAdjust="spacingAndGlyphs" textLength="207" x="101.7" y="527.193">store revoc_reg_def, revoc_reg_accum,</text><text fill="#000000" font-family="sans-serif" font-size="11.7" lengthAdjust="spacingAndGlyphs" textLength="127.8" x="101.7" y="540.6469">priv_key, tails_generator</text><polygon fill="#A80036" points="369.9,591.7263,378.9,595.3263,369.9,598.9263,373.5,595.3263" style="stroke: #A80036; stroke-width: 0.9;"/><line style="stroke: #A80036; stroke-width: 0.9;" x1="95.4" x2="375.3" y1="595.3263" y2="595.3263"/><text fill="#000000" font-family="sans-serif" font-size="11.7" lengthAdjust="spacingAndGlyphs" textLength="207.9" x="101.7" y="578.4007">&lt;revoc_reg_id&gt;, &lt;revoc_reg_def_json&gt;,</text><text fill="#000000" font-family="sans-serif" font-size="11.7" lengthAdjust="spacingAndGlyphs" textLength="126" x="101.7" y="591.8546">&lt;revoc_reg_entry_json&gt;</text><polygon fill="#0000FF" points="1115.1,617.734,1124.1,621.334,1115.1,624.934,1118.7,621.334" style="stroke: #0000FF; stroke-width: 0.9;"/><line style="stroke: #0000FF; stroke-width: 0.9;" x1="380.7" x2="1120.5" y1="621.334" y2="621.334"/><text fill="#000000" font-family="sans-serif" font-size="11.7" lengthAdjust="spacingAndGlyphs" textLength="151.2" x="387" y="617.9084">send REVOC_REG_DEF txn</text><polygon fill="#0000FF" points="1115.1,643.7878,1124.1,647.3878,1115.1,650.9878,1118.7,647.3878" style="stroke: #0000FF; stroke-width: 0.9;"/><line style="stroke: #0000FF; stroke-width: 0.9;" x1="380.7" x2="1120.5" y1="647.3878" y2="647.3878"/><text fill="#000000" font-family="sans-serif" font-size="11.7" lengthAdjust="spacingAndGlyphs" textLength="167.4" x="387" y="643.9623">send REVOC_REG_ENTRY txn</text><rect fill="#EEEEEE" filter="url(#fbwpq48)" height="2.7" style="stroke: #EEEEEE; stroke-width: 0.9;" width="1183.05" x="2.7" y="675.9385"/><line style="stroke: #000000; stroke-width: 0.9;" x1="2.7" x2="1185.75" y1="675.9385" y2="675.9385"/><line style="stroke: #000000; stroke-width: 0.9;" x1="2.7" x2="1185.75" y1="678.6385" y2="678.6385"/><rect fill="#EEEEEE" filter="url(#fbwpq48)" height="24.7935" style="stroke: #000000; stroke-width: 1.8;" width="161.1" x="513.675" y="664.4417"/><text fill="#000000" font-family="sans-serif" font-size="15.3" font-weight="bold" lengthAdjust="spacingAndGlyphs" textLength="148.5" x="519.075" y="682.3929">Create Master secret</text><polygon fill="#A80036" points="790.2,712.6352,799.2,716.2352,790.2,719.8352,793.8,716.2352" style="stroke: #A80036; stroke-width: 0.9;"/><line style="stroke: #A80036; stroke-width: 0.9;" x1="523.8" x2="795.6" y1="716.2352" y2="716.2352"/><text fill="#000000" font-family="sans-serif" font-size="11.7" font-weight="bold" lengthAdjust="spacingAndGlyphs" textLength="199.8" x="530.1" y="712.8097">5.indy_prover_create_master_secret</text><line style="stroke: #008000; stroke-width: 0.9;" x1="801" x2="838.8" y1="743.1429" y2="743.1429"/><line style="stroke: #008000; stroke-width: 0.9;" x1="838.8" x2="838.8" y1="743.1429" y2="754.8429"/><line style="stroke: #008000; stroke-width: 0.9;" x1="801.9" x2="838.8" y1="754.8429" y2="754.8429"/><polygon fill="#008000" points="810.9,751.2429,801.9,754.8429,810.9,758.4429,807.3,754.8429" style="stroke: #008000; stroke-width: 0.9;"/><text fill="#000000" font-family="sans-serif" font-size="11.7" lengthAdjust="spacingAndGlyphs" textLength="101.7" x="807.3" y="738.8635">store master secret</text><polygon fill="#A80036" points="369.9,776.4429,378.9,780.0429,369.9,783.6429,373.5,780.0429" style="stroke: #A80036; stroke-width: 0.9;"/><line style="stroke: #A80036; stroke-width: 0.9;" x1="95.4" x2="375.3" y1="780.0429" y2="780.0429"/><text fill="#000000" font-family="sans-serif" font-size="11.7" lengthAdjust="spacingAndGlyphs" textLength="104.4" x="101.7" y="776.6174">&lt;master_secret_id&gt;</text><rect fill="#EEEEEE" filter="url(#fbwpq48)" height="2.7" style="stroke: #EEEEEE; stroke-width: 0.9;" width="1183.05" x="2.7" y="808.5935"/><line style="stroke: #000000; stroke-width: 0.9;" x1="2.7" x2="1185.75" y1="808.5935" y2="808.5935"/><line style="stroke: #000000; stroke-width: 0.9;" x1="2.7" x2="1185.75" y1="811.2935" y2="811.2935"/><rect fill="#EEEEEE" filter="url(#fbwpq48)" height="24.7935" style="stroke: #000000; stroke-width: 1.8;" width="179.1" x="504.675" y="797.0968"/><text fill="#000000" font-family="sans-serif" font-size="15.3" font-weight="bold" lengthAdjust="spacingAndGlyphs" textLength="166.5" x="510.075" y="815.048">Create Credential Offer</text><polygon fill="#A80036" points="105.3,845.2903,96.3,848.8903,105.3,852.4903,101.7,848.8903" style="stroke: #A80036; stroke-width: 0.9;"/><line style="stroke: #A80036; stroke-width: 0.9;" x1="99.9" x2="379.8" y1="848.8903" y2="848.8903"/><text fill="#000000" font-family="sans-serif" font-size="11.7" font-weight="bold" lengthAdjust="spacingAndGlyphs" textLength="210.6" x="110.7" y="845.4647">1. indy_issuer_create_credential_offer</text><line style="stroke: #008000; stroke-width: 0.9;" x1="95.4" x2="133.2" y1="875.798" y2="875.798"/><line style="stroke: #008000; stroke-width: 0.9;" x1="133.2" x2="133.2" y1="875.798" y2="887.498"/><line style="stroke: #008000; stroke-width: 0.9;" x1="96.3" x2="133.2" y1="887.498" y2="887.498"/><polygon fill="#008000" points="105.3,883.898,96.3,887.498,105.3,891.098,101.7,887.498" style="stroke: #008000; stroke-width: 0.9;"/><text fill="#000000" font-family="sans-serif" font-size="11.7" lengthAdjust="spacingAndGlyphs" textLength="156.6" x="101.7" y="871.5186">get cred def correctness proof</text><polygon fill="#A80036" points="369.9,909.098,378.9,912.698,369.9,916.298,373.5,912.698" style="stroke: #A80036; stroke-width: 0.9;"/><line style="stroke: #A80036; stroke-width: 0.9;" x1="95.4" x2="375.3" y1="912.698" y2="912.698"/><text fill="#000000" font-family="sans-serif" font-size="11.7" lengthAdjust="spacingAndGlyphs" textLength="94.5" x="101.7" y="909.2725">&lt;cred_offer_json&gt;</text><polygon fill="#000000" points="513,935.1519,522,938.7519,513,942.3519,516.6,938.7519" style="stroke: #000000; stroke-width: 0.9;"/><line style="stroke: #000000; stroke-width: 0.9;" x1="380.7" x2="518.4" y1="938.7519" y2="938.7519"/><text fill="#000000" font-family="sans-serif" font-size="11.7" lengthAdjust="spacingAndGlyphs" textLength="106.2" x="387" y="935.3263">send credential offer</text><rect fill="#EEEEEE" filter="url(#fbwpq48)" height="2.7" style="stroke: #EEEEEE; stroke-width: 0.9;" width="1183.05" x="2.7" y="967.3025"/><line style="stroke: #000000; stroke-width: 0.9;" x1="2.7" x2="1185.75" y1="967.3025" y2="967.3025"/><line style="stroke: #000000; stroke-width: 0.9;" x1="2.7" x2="1185.75" y1="970.0025" y2="970.0025"/><rect fill="#EEEEEE" filter="url(#fbwpq48)" height="24.7935" style="stroke: #000000; stroke-width: 1.8;" width="230.4" x="479.025" y="955.8057"/><text fill="#000000" font-family="sans-serif" font-size="15.3" font-weight="bold" lengthAdjust="spacingAndGlyphs" textLength="217.8" x="484.425" y="973.7569">Request and Issue Credentials</text><polygon fill="#0000FF" points="1115.1,1003.9992,1124.1,1007.5992,1115.1,1011.1992,1118.7,1007.5992" style="stroke: #0000FF; stroke-width: 0.9;"/><line style="stroke: #0000FF; stroke-width: 0.9; stroke-dasharray: 2.0,2.0;" x1="523.8" x2="1120.5" y1="1007.5992" y2="1007.5992"/><text fill="#000000" font-family="sans-serif" font-size="11.7" lengthAdjust="spacingAndGlyphs" textLength="141.3" x="530.1" y="1004.1737">send GET_CRED_DEF req</text><polygon fill="#0000FF" points="533.7,1030.0531,524.7,1033.6531,533.7,1037.2531,530.1,1033.6531" style="stroke: #0000FF; stroke-width: 0.9;"/><line style="stroke: #0000FF; stroke-width: 0.9; stroke-dasharray: 2.0,2.0;" x1="528.3" x2="1125" y1="1033.6531" y2="1033.6531"/><text fill="#000000" font-family="sans-serif" font-size="11.7" lengthAdjust="spacingAndGlyphs" textLength="59.4" x="539.1" y="1030.2275">&lt;cred_def&gt;</text><polygon fill="#A80036" points="790.2,1056.1069,799.2,1059.7069,790.2,1063.3069,793.8,1059.7069" style="stroke: #A80036; stroke-width: 0.9;"/><line style="stroke: #A80036; stroke-width: 0.9;" x1="523.8" x2="795.6" y1="1059.7069" y2="1059.7069"/><text fill="#000000" font-family="sans-serif" font-size="11.7" font-weight="bold" lengthAdjust="spacingAndGlyphs" textLength="201.6" x="530.1" y="1056.2814">8.indy_prover_create_credential_req</text><line style="stroke: #008000; stroke-width: 0.9;" x1="801" x2="838.8" y1="1086.6146" y2="1086.6146"/><line style="stroke: #008000; stroke-width: 0.9;" x1="838.8" x2="838.8" y1="1086.6146" y2="1098.3146"/><line style="stroke: #008000; stroke-width: 0.9;" x1="801.9" x2="838.8" y1="1098.3146" y2="1098.3146"/><polygon fill="#008000" points="810.9,1094.7146,801.9,1098.3146,810.9,1101.9146,807.3,1098.3146" style="stroke: #008000; stroke-width: 0.9;"/><text fill="#000000" font-family="sans-serif" font-size="11.7" lengthAdjust="spacingAndGlyphs" textLength="91.8" x="807.3" y="1082.3353">get master secret</text><polygon fill="#A80036" points="533.7,1119.9146,524.7,1123.5146,533.7,1127.1146,530.1,1123.5146" style="stroke: #A80036; stroke-width: 0.9;"/><line style="stroke: #A80036; stroke-width: 0.9;" x1="528.3" x2="800.1" y1="1123.5146" y2="1123.5146"/><text fill="#000000" font-family="sans-serif" font-size="11.7" lengthAdjust="spacingAndGlyphs" textLength="236.7" x="539.1" y="1120.0891">&lt;cred_req_json&gt;, &lt;cred_req_metadata_json&gt;</text><polygon fill="#000000" points="390.6,1145.9685,381.6,1149.5685,390.6,1153.1685,387,1149.5685" style="stroke: #000000; stroke-width: 0.9;"/><line style="stroke: #000000; stroke-width: 0.9;" x1="385.2" x2="522.9" y1="1149.5685" y2="1149.5685"/><text fill="#000000" font-family="sans-serif" font-size="11.7" lengthAdjust="spacingAndGlyphs" textLength="121.5" x="396" y="1146.143">send credential request</text><line style="stroke: #008000; stroke-width: 0.9;" x1="95.4" x2="133.2" y1="1176.4762" y2="1176.4762"/><line style="stroke: #008000; stroke-width: 0.9;" x1="133.2" x2="133.2" y1="1176.4762" y2="1188.1762"/><line style="stroke: #008000; stroke-width: 0.9;" x1="96.3" x2="133.2" y1="1188.1762" y2="1188.1762"/><polygon fill="#008000" points="105.3,1184.5762,96.3,1188.1762,105.3,1191.7762,101.7,1188.1762" style="stroke: #008000; stroke-width: 0.9;"/><text fill="#000000" font-family="sans-serif" font-size="11.7" lengthAdjust="spacingAndGlyphs" textLength="45" x="101.7" y="1172.1968">get keys</text><line style="stroke: #008000; stroke-width: 0.9;" x1="95.4" x2="133.2" y1="1214.2301" y2="1214.2301"/><line style="stroke: #008000; stroke-width: 0.9;" x1="133.2" x2="133.2" y1="1214.2301" y2="1225.9301"/><line style="stroke: #008000; stroke-width: 0.9;" x1="96.3" x2="133.2" y1="1225.9301" y2="1225.9301"/><polygon fill="#008000" points="105.3,1222.3301,96.3,1225.9301,105.3,1229.5301,101.7,1225.9301" style="stroke: #008000; stroke-width: 0.9;"/><text fill="#000000" font-family="sans-serif" font-size="11.7" lengthAdjust="spacingAndGlyphs" textLength="68.4" x="101.7" y="1209.9507">get revoc reg</text><polygon fill="#A80036" points="105.3,1247.5301,96.3,1251.1301,105.3,1254.7301,101.7,1251.1301" style="stroke: #A80036; stroke-width: 0.9;"/><line style="stroke: #A80036; stroke-width: 0.9;" x1="99.9" x2="379.8" y1="1251.1301" y2="1251.1301"/><text fill="#000000" font-family="sans-serif" font-size="11.7" font-weight="bold" lengthAdjust="spacingAndGlyphs" textLength="179.1" x="110.7" y="1247.7045">9. indy_issuer_create_credential</text><polygon fill="#A80036" points="369.9,1287.0839,378.9,1290.6839,369.9,1294.2839,373.5,1290.6839" style="stroke: #A80036; stroke-width: 0.9;"/><line style="stroke: #A80036; stroke-width: 0.9;" x1="95.4" x2="375.3" y1="1290.6839" y2="1290.6839"/><text fill="#000000" font-family="sans-serif" font-size="11.7" lengthAdjust="spacingAndGlyphs" textLength="162.9" x="101.7" y="1273.7584">&lt;cred_json&gt;, &lt;cred_revoc_id&gt;,</text><text fill="#000000" font-family="sans-serif" font-size="11.7" lengthAdjust="spacingAndGlyphs" textLength="125.1" x="101.7" y="1287.2123">&lt;revoc_reg_delta_json&gt;</text><polygon fill="#0000FF" points="1115.1,1313.0917,1124.1,1316.6917,1115.1,1320.2917,1118.7,1316.6917" style="stroke: #0000FF; stroke-width: 0.9;"/><line style="stroke: #0000FF; stroke-width: 0.9;" x1="380.7" x2="1120.5" y1="1316.6917" y2="1316.6917"/><text fill="#000000" font-family="sans-serif" font-size="11.7" lengthAdjust="spacingAndGlyphs" textLength="167.4" x="387" y="1313.2661">send REVOC_REG_ENTRY txn</text><polygon fill="#000000" points="513,1339.1455,522,1342.7455,513,1346.3455,516.6,1342.7455" style="stroke: #000000; stroke-width: 0.9;"/><line style="stroke: #000000; stroke-width: 0.9;" x1="380.7" x2="518.4" y1="1342.7455" y2="1342.7455"/><text fill="#000000" font-family="sans-serif" font-size="11.7" lengthAdjust="spacingAndGlyphs" textLength="79.2" x="387" y="1339.32">send credential</text><polygon fill="#0000FF" points="1115.1,1365.1994,1124.1,1368.7994,1115.1,1372.3994,1118.7,1368.7994" style="stroke: #0000FF; stroke-width: 0.9;"/><line style="stroke: #0000FF; stroke-width: 0.9; stroke-dasharray: 2.0,2.0;" x1="523.8" x2="1120.5" y1="1368.7994" y2="1368.7994"/><text fill="#000000" font-family="sans-serif" font-size="11.7" lengthAdjust="spacingAndGlyphs" textLength="181.8" x="530.1" y="1365.3738">send GET_REVOC_REG_DEF req</text><polygon fill="#0000FF" points="533.7,1391.2532,524.7,1394.8532,533.7,1398.4532,530.1,1394.8532" style="stroke: #0000FF; stroke-width: 0.9;"/><line style="stroke: #0000FF; stroke-width: 0.9; stroke-dasharray: 2.0,2.0;" x1="528.3" x2="1125" y1="1394.8532" y2="1394.8532"/><text fill="#000000" font-family="sans-serif" font-size="11.7" lengthAdjust="spacingAndGlyphs" textLength="88.2" x="539.1" y="1391.4277">&lt;revoc_reg_def&gt;</text><polygon fill="#A80036" points="790.2,1417.3071,799.2,1420.9071,790.2,1424.5071,793.8,1420.9071" style="stroke: #A80036; stroke-width: 0.9;"/><line style="stroke: #A80036; stroke-width: 0.9;" x1="523.8" x2="795.6" y1="1420.9071" y2="1420.9071"/><text fill="#000000" font-family="sans-serif" font-size="11.7" font-weight="bold" lengthAdjust="spacingAndGlyphs" textLength="178.2" x="530.1" y="1417.4815">10.indy_prover_store_credential</text><line style="stroke: #008000; stroke-width: 0.9;" x1="801" x2="838.8" y1="1447.8148" y2="1447.8148"/><line style="stroke: #008000; stroke-width: 0.9;" x1="838.8" x2="838.8" y1="1447.8148" y2="1459.5148"/><line style="stroke: #008000; stroke-width: 0.9;" x1="801.9" x2="838.8" y1="1459.5148" y2="1459.5148"/><polygon fill="#008000" points="810.9,1455.9148,801.9,1459.5148,810.9,1463.1148,807.3,1459.5148" style="stroke: #008000; stroke-width: 0.9;"/><text fill="#000000" font-family="sans-serif" font-size="11.7" lengthAdjust="spacingAndGlyphs" textLength="91.8" x="807.3" y="1443.5354">get master secret</text><line style="stroke: #008000; stroke-width: 0.9;" x1="801" x2="838.8" y1="1485.5687" y2="1485.5687"/><line style="stroke: #008000; stroke-width: 0.9;" x1="838.8" x2="838.8" y1="1485.5687" y2="1497.2687"/><line style="stroke: #008000; stroke-width: 0.9;" x1="801.9" x2="838.8" y1="1497.2687" y2="1497.2687"/><polygon fill="#008000" points="810.9,1493.6687,801.9,1497.2687,810.9,1500.8687,807.3,1497.2687" style="stroke: #008000; stroke-width: 0.9;"/><text fill="#000000" font-family="sans-serif" font-size="11.7" lengthAdjust="spacingAndGlyphs" textLength="80.1" x="807.3" y="1481.2893">store credential</text><polygon fill="#A80036" points="533.7,1518.8687,524.7,1522.4687,533.7,1526.0687,530.1,1522.4687" style="stroke: #A80036; stroke-width: 0.9;"/><line style="stroke: #A80036; stroke-width: 0.9;" x1="528.3" x2="800.1" y1="1522.4687" y2="1522.4687"/><text fill="#000000" font-family="sans-serif" font-size="11.7" lengthAdjust="spacingAndGlyphs" textLength="52.2" x="539.1" y="1519.0431">&lt;cred_id&gt;</text><rect fill="#EEEEEE" filter="url(#fbwpq48)" height="2.7" style="stroke: #EEEEEE; stroke-width: 0.9;" width="1183.05" x="2.7" y="1551.0193"/><line style="stroke: #000000; stroke-width: 0.9;" x1="2.7" x2="1185.75" y1="1551.0193" y2="1551.0193"/><line style="stroke: #000000; stroke-width: 0.9;" x1="2.7" x2="1185.75" y1="1553.7193" y2="1553.7193"/><rect fill="#EEEEEE" filter="url(#fbwpq48)" height="24.7935" style="stroke: #000000; stroke-width: 1.8;" width="180.9" x="503.775" y="1539.5225"/><text fill="#000000" font-family="sans-serif" font-size="15.3" font-weight="bold" lengthAdjust="spacingAndGlyphs" textLength="168.3" x="509.175" y="1557.4737">Show Credentials on UI</text><polygon fill="#A80036" points="790.2,1587.716,799.2,1591.316,790.2,1594.916,793.8,1591.316" style="stroke: #A80036; stroke-width: 0.9;"/><line style="stroke: #A80036; stroke-width: 0.9;" x1="523.8" x2="795.6" y1="1591.316" y2="1591.316"/><text fill="#000000" font-family="sans-serif" font-size="11.7" font-weight="bold" lengthAdjust="spacingAndGlyphs" textLength="177.3" x="530.1" y="1587.8905">11. indy_prover_get_credentials</text><line style="stroke: #008000; stroke-width: 0.9;" x1="801" x2="838.8" y1="1618.2237" y2="1618.2237"/><line style="stroke: #008000; stroke-width: 0.9;" x1="838.8" x2="838.8" y1="1618.2237" y2="1629.9237"/><line style="stroke: #008000; stroke-width: 0.9;" x1="801.9" x2="838.8" y1="1629.9237" y2="1629.9237"/><polygon fill="#008000" points="810.9,1626.3237,801.9,1629.9237,810.9,1633.5237,807.3,1629.9237" style="stroke: #008000; stroke-width: 0.9;"/><text fill="#000000" font-family="sans-serif" font-size="11.7" lengthAdjust="spacingAndGlyphs" textLength="76.5" x="807.3" y="1613.9443">get credentials</text><polygon fill="#A80036" points="533.7,1651.5237,524.7,1655.1237,533.7,1658.7237,530.1,1655.1237" style="stroke: #A80036; stroke-width: 0.9;"/><line style="stroke: #A80036; stroke-width: 0.9;" x1="528.3" x2="800.1" y1="1655.1237" y2="1655.1237"/><text fill="#000000" font-family="sans-serif" font-size="11.7" lengthAdjust="spacingAndGlyphs" textLength="71.1" x="539.1" y="1651.6982">&lt;credentials&gt;</text><line style="stroke: #A80036; stroke-width: 0.9;" x1="523.8" x2="561.6" y1="1682.0314" y2="1682.0314"/><line style="stroke: #A80036; stroke-width: 0.9;" x1="561.6" x2="561.6" y1="1682.0314" y2="1693.7314"/><line style="stroke: #A80036; stroke-width: 0.9;" x1="524.7" x2="561.6" y1="1693.7314" y2="1693.7314"/><polygon fill="#A80036" points="533.7,1690.1314,524.7,1693.7314,533.7,1697.3314,530.1,1693.7314" style="stroke: #A80036; stroke-width: 0.9;"/><text fill="#000000" font-family="sans-serif" font-size="11.7" lengthAdjust="spacingAndGlyphs" textLength="58.5" x="530.1" y="1677.7521">show on UI</text><rect fill="#EEEEEE" filter="url(#fbwpq48)" height="2.7" style="stroke: #EEEEEE; stroke-width: 0.9;" width="1183.05" x="2.7" y="1721.4282"/><line style="stroke: #000000; stroke-width: 0.9;" x1="2.7" x2="1185.75" y1="1721.4282" y2="1721.4282"/><line style="stroke: #000000; stroke-width: 0.9;" x1="2.7" x2="1185.75" y1="1724.1282" y2="1724.1282"/><rect fill="#EEEEEE" filter="url(#fbwpq48)" height="24.7935" style="stroke: #000000; stroke-width: 1.8;" width="341.1" x="423.675" y="1709.9314"/><text fill="#000000" font-family="sans-serif" font-size="15.3" font-weight="bold" lengthAdjust="spacingAndGlyphs" textLength="328.5" x="429.075" y="1727.8827">Present Credential to 3d Party (proof request)</text><polygon fill="#000000" points="533.7,1758.125,524.7,1761.725,533.7,1765.325,530.1,1761.725" style="stroke: #000000; stroke-width: 0.9;"/><line style="stroke: #000000; stroke-width: 0.9;" x1="528.3" x2="921.6" y1="1761.725" y2="1761.725"/><text fill="#000000" font-family="sans-serif" font-size="11.7" lengthAdjust="spacingAndGlyphs" textLength="97.2" x="539.1" y="1758.2994">send proof request</text><polygon fill="#A80036" points="790.2,1806.6788,799.2,1810.2788,790.2,1813.8788,793.8,1810.2788" style="stroke: #A80036; stroke-width: 0.9;"/><line style="stroke: #A80036; stroke-width: 0.9;" x1="523.8" x2="795.6" y1="1810.2788" y2="1810.2788"/><text fill="#000000" font-family="sans-serif" font-size="11.7" font-weight="bold" lengthAdjust="spacingAndGlyphs" textLength="255.6" x="530.1" y="1806.8533">12.indy_prover_get_credentials_for_proof_req</text><polygon fill="#A80036" points="533.7,1832.7327,524.7,1836.3327,533.7,1839.9327,530.1,1836.3327" style="stroke: #A80036; stroke-width: 0.9;"/><line style="stroke: #A80036; stroke-width: 0.9;" x1="528.3" x2="800.1" y1="1836.3327" y2="1836.3327"/><text fill="#000000" font-family="sans-serif" font-size="11.7" lengthAdjust="spacingAndGlyphs" textLength="160.2" x="539.1" y="1832.9071">&lt;credentials for proof request&gt;</text><line style="stroke: #A80036; stroke-width: 0.9;" x1="523.8" x2="561.6" y1="1863.2404" y2="1863.2404"/><line style="stroke: #A80036; stroke-width: 0.9;" x1="561.6" x2="561.6" y1="1863.2404" y2="1874.9404"/><line style="stroke: #A80036; stroke-width: 0.9;" x1="524.7" x2="561.6" y1="1874.9404" y2="1874.9404"/><polygon fill="#A80036" points="533.7,1871.3404,524.7,1874.9404,533.7,1878.5404,530.1,1874.9404" style="stroke: #A80036; stroke-width: 0.9;"/><text fill="#000000" font-family="sans-serif" font-size="11.7" lengthAdjust="spacingAndGlyphs" textLength="58.5" x="530.1" y="1858.961">show on UI</text><line style="stroke: #A80036; stroke-width: 0.9;" x1="523.8" x2="561.6" y1="1900.9942" y2="1900.9942"/><line style="stroke: #A80036; stroke-width: 0.9;" x1="561.6" x2="561.6" y1="1900.9942" y2="1912.6942"/><line style="stroke: #A80036; stroke-width: 0.9;" x1="524.7" x2="561.6" y1="1912.6942" y2="1912.6942"/><polygon fill="#A80036" points="533.7,1909.0942,524.7,1912.6942,533.7,1916.2942,530.1,1912.6942" style="stroke: #A80036; stroke-width: 0.9;"/><text fill="#000000" font-family="sans-serif" font-size="11.7" lengthAdjust="spacingAndGlyphs" textLength="158.4" x="530.1" y="1896.7148">select credentials for the proof</text><polygon fill="#0000FF" points="1115.1,1956.7942,1124.1,1960.3942,1115.1,1963.9942,1118.7,1960.3942" style="stroke: #0000FF; stroke-width: 0.9;"/><line style="stroke: #0000FF; stroke-width: 0.9; stroke-dasharray: 2.0,2.0;" x1="523.8" x2="1120.5" y1="1960.3942" y2="1960.3942"/><text fill="#000000" font-family="sans-serif" font-size="11.7" lengthAdjust="spacingAndGlyphs" textLength="181.8" x="530.1" y="1956.9687">send GET_REVOC_REG_DEF req</text><polygon fill="#0000FF" points="533.7,1982.8481,524.7,1986.4481,533.7,1990.0481,530.1,1986.4481" style="stroke: #0000FF; stroke-width: 0.9;"/><line style="stroke: #0000FF; stroke-width: 0.9; stroke-dasharray: 2.0,2.0;" x1="528.3" x2="1125" y1="1986.4481" y2="1986.4481"/><text fill="#000000" font-family="sans-serif" font-size="11.7" lengthAdjust="spacingAndGlyphs" textLength="88.2" x="539.1" y="1983.0226">&lt;revoc_reg_def&gt;</text><polygon fill="#0000FF" points="1115.1,2008.902,1124.1,2012.502,1115.1,2016.102,1118.7,2012.502" style="stroke: #0000FF; stroke-width: 0.9;"/><line style="stroke: #0000FF; stroke-width: 0.9; stroke-dasharray: 2.0,2.0;" x1="523.8" x2="1120.5" y1="2012.502" y2="2012.502"/><text fill="#000000" font-family="sans-serif" font-size="11.7" lengthAdjust="spacingAndGlyphs" textLength="196.2" x="530.1" y="2009.0764">send GET_REVOC_REG_DELTA req</text><polygon fill="#0000FF" points="533.7,2034.9558,524.7,2038.5558,533.7,2042.1558,530.1,2038.5558" style="stroke: #0000FF; stroke-width: 0.9;"/><line style="stroke: #0000FF; stroke-width: 0.9; stroke-dasharray: 2.0,2.0;" x1="528.3" x2="1125" y1="2038.5558" y2="2038.5558"/><text fill="#000000" font-family="sans-serif" font-size="11.7" lengthAdjust="spacingAndGlyphs" textLength="97.2" x="539.1" y="2035.1303">&lt;revoc_reg_delta&gt;</text><polygon fill="#A80036" points="790.2,2083.5097,799.2,2087.1097,790.2,2090.7097,793.8,2087.1097" style="stroke: #A80036; stroke-width: 0.9;"/><line style="stroke: #A80036; stroke-width: 0.9;" x1="523.8" x2="795.6" y1="2087.1097" y2="2087.1097"/><text fill="#000000" font-family="sans-serif" font-size="11.7" font-weight="bold" lengthAdjust="spacingAndGlyphs" textLength="177.3" x="530.1" y="2083.6841">13.indy_create_revocation_state</text><polygon fill="#A80036" points="533.7,2109.5635,524.7,2113.1635,533.7,2116.7635,530.1,2113.1635" style="stroke: #A80036; stroke-width: 0.9;"/><line style="stroke: #A80036; stroke-width: 0.9;" x1="528.3" x2="800.1" y1="2113.1635" y2="2113.1635"/><text fill="#000000" font-family="sans-serif" font-size="11.7" lengthAdjust="spacingAndGlyphs" textLength="72.9" x="539.1" y="2109.738">&lt;revoc state&gt;</text><polygon fill="#0000FF" points="1115.1,2158.1174,1124.1,2161.7174,1115.1,2165.3174,1118.7,2161.7174" style="stroke: #0000FF; stroke-width: 0.9;"/><line style="stroke: #0000FF; stroke-width: 0.9; stroke-dasharray: 2.0,2.0;" x1="523.8" x2="1120.5" y1="2161.7174" y2="2161.7174"/><text fill="#000000" font-family="sans-serif" font-size="11.7" lengthAdjust="spacingAndGlyphs" textLength="129.6" x="530.1" y="2158.2918">send GET_SCHEMA req</text><polygon fill="#0000FF" points="533.7,2184.1712,524.7,2187.7712,533.7,2191.3712,530.1,2187.7712" style="stroke: #0000FF; stroke-width: 0.9;"/><line style="stroke: #0000FF; stroke-width: 0.9; stroke-dasharray: 2.0,2.0;" x1="528.3" x2="1125" y1="2187.7712" y2="2187.7712"/><text fill="#000000" font-family="sans-serif" font-size="11.7" lengthAdjust="spacingAndGlyphs" textLength="55.8" x="539.1" y="2184.3457">&lt;schema&gt;</text><polygon fill="#0000FF" points="1115.1,2210.2251,1124.1,2213.8251,1115.1,2217.4251,1118.7,2213.8251" style="stroke: #0000FF; stroke-width: 0.9;"/><line style="stroke: #0000FF; stroke-width: 0.9; stroke-dasharray: 2.0,2.0;" x1="523.8" x2="1120.5" y1="2213.8251" y2="2213.8251"/><text fill="#000000" font-family="sans-serif" font-size="11.7" lengthAdjust="spacingAndGlyphs" textLength="141.3" x="530.1" y="2210.3996">send GET_CRED_DEF req</text><polygon fill="#0000FF" points="533.7,2236.279,524.7,2239.879,533.7,2243.479,530.1,2239.879" style="stroke: #0000FF; stroke-width: 0.9;"/><line style="stroke: #0000FF; stroke-width: 0.9; stroke-dasharray: 2.0,2.0;" x1="528.3" x2="1125" y1="2239.879" y2="2239.879"/><text fill="#000000" font-family="sans-serif" font-size="11.7" lengthAdjust="spacingAndGlyphs" textLength="59.4" x="539.1" y="2236.4534">&lt;cred_def&gt;</text><polygon fill="#A80036" points="790.2,2284.8328,799.2,2288.4328,790.2,2292.0328,793.8,2288.4328" style="stroke: #A80036; stroke-width: 0.9;"/><line style="stroke: #A80036; stroke-width: 0.9;" x1="523.8" x2="795.6" y1="2288.4328" y2="2288.4328"/><text fill="#000000" font-family="sans-serif" font-size="11.7" font-weight="bold" lengthAdjust="spacingAndGlyphs" textLength="158.4" x="530.1" y="2285.0073">14.indy_prover_create_proof</text><line style="stroke: #008000; stroke-width: 0.9;" x1="801" x2="838.8" y1="2315.3405" y2="2315.3405"/><line style="stroke: #008000; stroke-width: 0.9;" x1="838.8" x2="838.8" y1="2315.3405" y2="2327.0405"/><line style="stroke: #008000; stroke-width: 0.9;" x1="801.9" x2="838.8" y1="2327.0405" y2="2327.0405"/><polygon fill="#008000" points="810.9,2323.4405,801.9,2327.0405,810.9,2330.6405,807.3,2327.0405" style="stroke: #008000; stroke-width: 0.9;"/><text fill="#000000" font-family="sans-serif" font-size="11.7" lengthAdjust="spacingAndGlyphs" textLength="70.2" x="807.3" y="2311.0611">get credential</text><polygon fill="#A80036" points="533.7,2348.6405,524.7,2352.2405,533.7,2355.8405,530.1,2352.2405" style="stroke: #A80036; stroke-width: 0.9;"/><line style="stroke: #A80036; stroke-width: 0.9;" x1="528.3" x2="800.1" y1="2352.2405" y2="2352.2405"/><text fill="#000000" font-family="sans-serif" font-size="11.7" lengthAdjust="spacingAndGlyphs" textLength="40.5" x="539.1" y="2348.815">&lt;proof&gt;</text><polygon fill="#000000" points="911.7,2397.1944,920.7,2400.7944,911.7,2404.3944,915.3,2400.7944" style="stroke: #000000; stroke-width: 0.9;"/><line style="stroke: #000000; stroke-width: 0.9;" x1="523.8" x2="917.1" y1="2400.7944" y2="2400.7944"/><text fill="#000000" font-family="sans-serif" font-size="11.7" lengthAdjust="spacingAndGlyphs" textLength="54.9" x="530.1" y="2397.3688">send proof</text><polygon fill="#0000FF" points="1115.1,2445.7482,1124.1,2449.3482,1115.1,2452.9482,1118.7,2449.3482" style="stroke: #0000FF; stroke-width: 0.9;"/><line style="stroke: #0000FF; stroke-width: 0.9; stroke-dasharray: 2.0,2.0;" x1="922.5" x2="1120.5" y1="2449.3482" y2="2449.3482"/><text fill="#000000" font-family="sans-serif" font-size="11.7" lengthAdjust="spacingAndGlyphs" textLength="129.6" x="928.8" y="2445.9227">send GET_SCHEMA req</text><polygon fill="#0000FF" points="932.4,2471.8021,923.4,2475.4021,932.4,2479.0021,928.8,2475.4021" style="stroke: #0000FF; stroke-width: 0.9;"/><line style="stroke: #0000FF; stroke-width: 0.9; stroke-dasharray: 2.0,2.0;" x1="927" x2="1125" y1="2475.4021" y2="2475.4021"/><text fill="#000000" font-family="sans-serif" font-size="11.7" lengthAdjust="spacingAndGlyphs" textLength="55.8" x="937.8" y="2471.9766">&lt;schema&gt;</text><polygon fill="#0000FF" points="1115.1,2497.856,1124.1,2501.456,1115.1,2505.056,1118.7,2501.456" style="stroke: #0000FF; stroke-width: 0.9;"/><line style="stroke: #0000FF; stroke-width: 0.9; stroke-dasharray: 2.0,2.0;" x1="922.5" x2="1120.5" y1="2501.456" y2="2501.456"/><text fill="#000000" font-family="sans-serif" font-size="11.7" lengthAdjust="spacingAndGlyphs" textLength="141.3" x="928.8" y="2498.0304">send GET_CRED_DEF req</text><polygon fill="#0000FF" points="932.4,2523.9098,923.4,2527.5098,932.4,2531.1098,928.8,2527.5098" style="stroke: #0000FF; stroke-width: 0.9;"/><line style="stroke: #0000FF; stroke-width: 0.9; stroke-dasharray: 2.0,2.0;" x1="927" x2="1125" y1="2527.5098" y2="2527.5098"/><text fill="#000000" font-family="sans-serif" font-size="11.7" lengthAdjust="spacingAndGlyphs" textLength="59.4" x="937.8" y="2524.0843">&lt;cred_def&gt;</text><polygon fill="#0000FF" points="1115.1,2549.9637,1124.1,2553.5637,1115.1,2557.1637,1118.7,2553.5637" style="stroke: #0000FF; stroke-width: 0.9;"/><line style="stroke: #0000FF; stroke-width: 0.9; stroke-dasharray: 2.0,2.0;" x1="922.5" x2="1120.5" y1="2553.5637" y2="2553.5637"/><text fill="#000000" font-family="sans-serif" font-size="11.7" lengthAdjust="spacingAndGlyphs" textLength="181.8" x="928.8" y="2550.1381">send GET_REVOC_REG_DEF req</text><polygon fill="#0000FF" points="932.4,2576.0175,923.4,2579.6175,932.4,2583.2175,928.8,2579.6175" style="stroke: #0000FF; stroke-width: 0.9;"/><line style="stroke: #0000FF; stroke-width: 0.9; stroke-dasharray: 2.0,2.0;" x1="927" x2="1125" y1="2579.6175" y2="2579.6175"/><text fill="#000000" font-family="sans-serif" font-size="11.7" lengthAdjust="spacingAndGlyphs" textLength="88.2" x="937.8" y="2576.192">&lt;revoc_reg_def&gt;</text><polygon fill="#0000FF" points="1115.1,2602.0714,1124.1,2605.6714,1115.1,2609.2714,1118.7,2605.6714" style="stroke: #0000FF; stroke-width: 0.9;"/><line style="stroke: #0000FF; stroke-width: 0.9; stroke-dasharray: 2.0,2.0;" x1="922.5" x2="1120.5" y1="2605.6714" y2="2605.6714"/><text fill="#000000" font-family="sans-serif" font-size="11.7" lengthAdjust="spacingAndGlyphs" textLength="152.1" x="928.8" y="2602.2458">send GET_REVOC_REG req</text><polygon fill="#0000FF" points="932.4,2628.1252,923.4,2631.7252,932.4,2635.3252,928.8,2631.7252" style="stroke: #0000FF; stroke-width: 0.9;"/><line style="stroke: #0000FF; stroke-width: 0.9; stroke-dasharray: 2.0,2.0;" x1="927" x2="1125" y1="2631.7252" y2="2631.7252"/><text fill="#000000" font-family="sans-serif" font-size="11.7" lengthAdjust="spacingAndGlyphs" textLength="65.7" x="937.8" y="2628.2997">&lt;revoc_reg&gt;</text><line style="stroke: #A80036; stroke-width: 0.9;" x1="922.5" x2="960.3" y1="2681.133" y2="2681.133"/><line style="stroke: #A80036; stroke-width: 0.9;" x1="960.3" x2="960.3" y1="2681.133" y2="2692.833"/><line style="stroke: #A80036; stroke-width: 0.9;" x1="923.4" x2="960.3" y1="2692.833" y2="2692.833"/><polygon fill="#A80036" points="932.4,2689.233,923.4,2692.833,932.4,2696.433,928.8,2692.833" style="stroke: #A80036; stroke-width: 0.9;"/><text fill="#000000" font-family="sans-serif" font-size="11.7" font-weight="bold" lengthAdjust="spacingAndGlyphs" textLength="162" x="928.8" y="2676.8536">14. indy_verifier_verify_proof</text><rect fill="#EEEEEE" filter="url(#fbwpq48)" height="2.7" style="stroke: #EEEEEE; stroke-width: 0.9;" width="1183.05" x="2.7" y="2720.5297"/><line style="stroke: #000000; stroke-width: 0.9;" x1="2.7" x2="1185.75" y1="2720.5297" y2="2720.5297"/><line style="stroke: #000000; stroke-width: 0.9;" x1="2.7" x2="1185.75" y1="2723.2297" y2="2723.2297"/><rect fill="#EEEEEE" filter="url(#fbwpq48)" height="24.7935" style="stroke: #000000; stroke-width: 1.8;" width="151.2" x="518.625" y="2709.033"/><text fill="#000000" font-family="sans-serif" font-size="15.3" font-weight="bold" lengthAdjust="spacingAndGlyphs" textLength="138.6" x="524.025" y="2726.9842">Revoke Credentials</text><polygon fill="#A80036" points="105.3,2757.2265,96.3,2760.8265,105.3,2764.4265,101.7,2760.8265" style="stroke: #A80036; stroke-width: 0.9;"/><line style="stroke: #A80036; stroke-width: 0.9;" x1="99.9" x2="379.8" y1="2760.8265" y2="2760.8265"/><text fill="#000000" font-family="sans-serif" font-size="11.7" font-weight="bold" lengthAdjust="spacingAndGlyphs" textLength="189" x="110.7" y="2757.4009">15. indy_issuer_revoke_credential</text><line style="stroke: #008000; stroke-width: 0.9;" x1="95.4" x2="133.2" y1="2787.7342" y2="2787.7342"/><line style="stroke: #008000; stroke-width: 0.9;" x1="133.2" x2="133.2" y1="2787.7342" y2="2799.4342"/><line style="stroke: #008000; stroke-width: 0.9;" x1="96.3" x2="133.2" y1="2799.4342" y2="2799.4342"/><polygon fill="#008000" points="105.3,2795.8342,96.3,2799.4342,105.3,2803.0342,101.7,2799.4342" style="stroke: #008000; stroke-width: 0.9;"/><text fill="#000000" font-family="sans-serif" font-size="11.7" lengthAdjust="spacingAndGlyphs" textLength="45" x="101.7" y="2783.4548">get keys</text><line style="stroke: #008000; stroke-width: 0.9;" x1="95.4" x2="133.2" y1="2825.488" y2="2825.488"/><line style="stroke: #008000; stroke-width: 0.9;" x1="133.2" x2="133.2" y1="2825.488" y2="2837.188"/><line style="stroke: #008000; stroke-width: 0.9;" x1="96.3" x2="133.2" y1="2837.188" y2="2837.188"/><polygon fill="#008000" points="105.3,2833.588,96.3,2837.188,105.3,2840.788,101.7,2837.188" style="stroke: #008000; stroke-width: 0.9;"/><text fill="#000000" font-family="sans-serif" font-size="11.7" lengthAdjust="spacingAndGlyphs" textLength="68.4" x="101.7" y="2821.2086">get revoc reg</text><polygon fill="#A80036" points="369.9,2858.788,378.9,2862.388,369.9,2865.988,373.5,2862.388" style="stroke: #A80036; stroke-width: 0.9;"/><line style="stroke: #A80036; stroke-width: 0.9;" x1="95.4" x2="375.3" y1="2862.388" y2="2862.388"/><text fill="#000000" font-family="sans-serif" font-size="11.7" lengthAdjust="spacingAndGlyphs" textLength="91.8" x="101.7" y="2858.9625">&lt;revoc reg delta&gt;</text><polygon fill="#0000FF" points="1115.1,2884.8419,1124.1,2888.4419,1115.1,2892.0419,1118.7,2888.4419" style="stroke: #0000FF; stroke-width: 0.9;"/><line style="stroke: #0000FF; stroke-width: 0.9;" x1="380.7" x2="1120.5" y1="2888.4419" y2="2888.4419"/><text fill="#000000" font-family="sans-serif" font-size="11.7" lengthAdjust="spacingAndGlyphs" textLength="167.4" x="387" y="2885.0164">send REVOC_REG_ENTRY txn</text></g></svg>