<?xml version="1.0" encoding="UTF-8" standalone="no"?><svg xmlns="http://www.w3.org/2000/svg" xmlns:xlink="http://www.w3.org/1999/xlink" contentScriptType="application/ecmascript" contentStyleType="text/css" height="625px" preserveAspectRatio="none" style="width:372px;height:625px;" version="1.1" viewBox="0 0 372 625" width="372px" zoomAndPan="magnify"><defs><filter height="300%" id="fg3qrbeqc7hy6" width="300%" x="-1" y="-1"><feGaussianBlur result="blurOut" stdDeviation="2.0"/><feColorMatrix in="blurOut" result="blurOut2" type="matrix" values="0 0 0 0 0 0 0 0 0 0 0 0 0 0 0 0 0 0 .4 0"/><feOffset dx="4.0" dy="4.0" in="blurOut2" result="blurOut3"/><feBlend in="SourceGraphic" in2="blurOut3" mode="normal"/></filter></defs><g><!--class WalletStorageType--><rect fill="#FEFECE" filter="url(#fg3qrbeqc7hy6)" height="89.5078" id="WalletStorageType" style="stroke: #A80036; stroke-width: 1.5;" width="355" x="6" y="525"/><ellipse cx="127.25" cy="541" fill="#B4A7E5" rx="11" ry="11" style="stroke: #A80036; stroke-width: 1.0;"/><path d="M128.2031,537.6406 L128.2031,544.2969 L129.9219,544.2969 Q130.5313,544.2969 130.7969,544.5313 Q131.0625,544.7656 131.0625,545.1563 Q131.0625,545.5313 130.7969,545.7656 Q130.5313,546 129.9219,546 L124.7813,546 Q124.1719,546 123.9063,545.7656 Q123.6406,545.5313 123.6406,545.1406 Q123.6406,544.7656 123.9063,544.5313 Q124.1719,544.2969 124.7813,544.2969 L126.5,544.2969 L126.5,537.6406 L124.7813,537.6406 Q124.1719,537.6406 123.9063,537.4063 Q123.6406,537.1719 123.6406,536.7813 Q123.6406,536.4063 123.9063,536.1719 Q124.1719,535.9375 124.7813,535.9375 L129.9219,535.9375 Q130.5313,535.9375 130.7969,536.1719 Q131.0625,536.4063 131.0625,536.7813 Q131.0625,537.1719 130.7969,537.4063 Q130.5313,537.6406 129.9219,537.6406 L128.2031,537.6406 Z "/><text fill="#000000" font-family="sans-serif" font-size="12" font-style="italic" lengthAdjust="spacingAndGlyphs" textLength="104" x="147.75" y="545.9102">WalletStorageType</text><line style="stroke: #A80036; stroke-width: 1.5;" x1="7" x2="360" y1="557" y2="557"/><line style="stroke: #A80036; stroke-width: 1.5;" x1="7" x2="360" y1="565" y2="565"/><ellipse cx="17" cy="577.418" fill="#84BE84" rx="3" ry="3" style="stroke: #038048; stroke-width: 1.0;"/><text fill="#000000" font-family="sans-serif" font-size="11" lengthAdjust="spacingAndGlyphs" textLength="207" x="26" y="580.4189">create_wallet_storage(name, config, cred)</text><ellipse cx="17" cy="591.2539" fill="#84BE84" rx="3" ry="3" style="stroke: #038048; stroke-width: 1.0;"/><text fill="#000000" font-family="sans-serif" font-size="11" lengthAdjust="spacingAndGlyphs" textLength="205" x="26" y="594.2549">delete_wallet_storage(name, config, cred)</text><ellipse cx="17" cy="605.0898" fill="#84BE84" rx="3" ry="3" style="stroke: #038048; stroke-width: 1.0;"/><text fill="#000000" font-family="sans-serif" font-size="11" lengthAdjust="spacingAndGlyphs" textLength="329" x="26" y="608.0908">open_wallet_storage(name, config, r_config, cred) -&gt; WalletStorage</text><!--class WalletStorage--><rect fill="#FEFECE" filter="url(#fg3qrbeqc7hy6)" height="131.0156" id="WalletStorage" style="stroke: #A80036; stroke-width: 1.5;" width="319" x="24" y="334"/><ellipse cx="140.75" cy="350" fill="#B4A7E5" rx="11" ry="11" style="stroke: #A80036; stroke-width: 1.0;"/><path d="M141.7031,346.6406 L141.7031,353.2969 L143.4219,353.2969 Q144.0313,353.2969 144.2969,353.5313 Q144.5625,353.7656 144.5625,354.1563 Q144.5625,354.5313 144.2969,354.7656 Q144.0313,355 143.4219,355 L138.2813,355 Q137.6719,355 137.4063,354.7656 Q137.1406,354.5313 137.1406,354.1406 Q137.1406,353.7656 137.4063,353.5313 Q137.6719,353.2969 138.2813,353.2969 L140,353.2969 L140,346.6406 L138.2813,346.6406 Q137.6719,346.6406 137.4063,346.4063 Q137.1406,346.1719 137.1406,345.7813 Q137.1406,345.4063 137.4063,345.1719 Q137.6719,344.9375 138.2813,344.9375 L143.4219,344.9375 Q144.0313,344.9375 144.2969,345.1719 Q144.5625,345.4063 144.5625,345.7813 Q144.5625,346.1719 144.2969,346.4063 Q144.0313,346.6406 143.4219,346.6406 L141.7031,346.6406 Z "/><text fill="#000000" font-family="sans-serif" font-size="12" font-style="italic" lengthAdjust="spacingAndGlyphs" textLength="77" x="161.25" y="354.9102">WalletStorage</text><line style="stroke: #A80036; stroke-width: 1.5;" x1="25" x2="342" y1="366" y2="366"/><line style="stroke: #A80036; stroke-width: 1.5;" x1="25" x2="342" y1="374" y2="374"/><ellipse cx="35" cy="386.418" fill="#84BE84" rx="3" ry="3" style="stroke: #038048; stroke-width: 1.0;"/><text fill="#000000" font-family="sans-serif" font-size="11" lengthAdjust="spacingAndGlyphs" textLength="200" x="44" y="389.4189">create_wallet_entity(type, id, value, tags)</text><ellipse cx="35" cy="400.2539" fill="#84BE84" rx="3" ry="3" style="stroke: #038048; stroke-width: 1.0;"/><text fill="#000000" font-family="sans-serif" font-size="11" lengthAdjust="spacingAndGlyphs" textLength="202" x="44" y="403.2549">update_wallet_entity(type, id, value, tags)</text><ellipse cx="35" cy="414.0898" fill="#84BE84" rx="3" ry="3" style="stroke: #038048; stroke-width: 1.0;"/><text fill="#000000" font-family="sans-serif" font-size="11" lengthAdjust="spacingAndGlyphs" textLength="139" x="44" y="417.0908">delete_wallet_entity(type, id)</text><ellipse cx="35" cy="427.9258" fill="#84BE84" rx="3" ry="3" style="stroke: #038048; stroke-width: 1.0;"/><text fill="#000000" font-family="sans-serif" font-size="11" lengthAdjust="spacingAndGlyphs" textLength="237" x="44" y="430.9268">get_wallet_entity(type, id, options) -&gt; WalletEntity</text><ellipse cx="35" cy="441.7617" fill="#84BE84" rx="3" ry="3" style="stroke: #038048; stroke-width: 1.0;"/><text fill="#000000" font-family="sans-serif" font-size="11" lengthAdjust="spacingAndGlyphs" textLength="293" x="44" y="444.7627">search_wallet_entities(type, query, options) -&gt; WalletSearch</text><ellipse cx="35" cy="455.5977" fill="#84BE84" rx="3" ry="3" style="stroke: #038048; stroke-width: 1.0;"/><text fill="#000000" font-family="sans-serif" font-size="11" lengthAdjust="spacingAndGlyphs" textLength="34" x="44" y="458.5986">close()</text><!--class WalletSearch--><rect fill="#FEFECE" filter="url(#fg3qrbeqc7hy6)" height="103.3438" id="WalletSearch" style="stroke: #A80036; stroke-width: 1.5;" width="193" x="162" y="171"/><ellipse cx="217.75" cy="187" fill="#B4A7E5" rx="11" ry="11" style="stroke: #A80036; stroke-width: 1.0;"/><path d="M218.7031,183.6406 L218.7031,190.2969 L220.4219,190.2969 Q221.0313,190.2969 221.2969,190.5313 Q221.5625,190.7656 221.5625,191.1563 Q221.5625,191.5313 221.2969,191.7656 Q221.0313,192 220.4219,192 L215.2813,192 Q214.6719,192 214.4063,191.7656 Q214.1406,191.5313 214.1406,191.1406 Q214.1406,190.7656 214.4063,190.5313 Q214.6719,190.2969 215.2813,190.2969 L217,190.2969 L217,183.6406 L215.2813,183.6406 Q214.6719,183.6406 214.4063,183.4063 Q214.1406,183.1719 214.1406,182.7813 Q214.1406,182.4063 214.4063,182.1719 Q214.6719,181.9375 215.2813,181.9375 L220.4219,181.9375 Q221.0313,181.9375 221.2969,182.1719 Q221.5625,182.4063 221.5625,182.7813 Q221.5625,183.1719 221.2969,183.4063 Q221.0313,183.6406 220.4219,183.6406 L218.7031,183.6406 Z "/><text fill="#000000" font-family="sans-serif" font-size="12" font-style="italic" lengthAdjust="spacingAndGlyphs" textLength="73" x="238.25" y="191.9102">WalletSearch</text><line style="stroke: #A80036; stroke-width: 1.5;" x1="163" x2="354" y1="203" y2="203"/><line style="stroke: #A80036; stroke-width: 1.5;" x1="163" x2="354" y1="211" y2="211"/><ellipse cx="173" cy="223.418" fill="#84BE84" rx="3" ry="3" style="stroke: #038048; stroke-width: 1.0;"/><text fill="#000000" font-family="sans-serif" font-size="11" lengthAdjust="spacingAndGlyphs" textLength="116" x="182" y="226.4189">get_total_count() -&gt; u32</text><ellipse cx="173" cy="237.2539" fill="#84BE84" rx="3" ry="3" style="stroke: #038048; stroke-width: 1.0;"/><text fill="#000000" font-family="sans-serif" font-size="11" lengthAdjust="spacingAndGlyphs" textLength="90" x="182" y="240.2549">get_count() -&gt; u32</text><ellipse cx="173" cy="251.0898" fill="#84BE84" rx="3" ry="3" style="stroke: #038048; stroke-width: 1.0;"/><text fill="#000000" font-family="sans-serif" font-size="11" lengthAdjust="spacingAndGlyphs" textLength="167" x="182" y="254.0908">next_wallet_entity() -&gt; WalletEntity</text><ellipse cx="173" cy="264.9258" fill="#84BE84" rx="3" ry="3" style="stroke: #038048; stroke-width: 1.0;"/><text fill="#000000" font-family="sans-serif" font-size="11" lengthAdjust="spacingAndGlyphs" textLength="28" x="182" y="267.9268">free()</text><!--class WalletEntity--><rect fill="#FEFECE" filter="url(#fg3qrbeqc7hy6)" height="103.3438" id="WalletEntity" style="stroke: #A80036; stroke-width: 1.5;" width="110" x="128.5" y="8"/><ellipse cx="149.8" cy="24" fill="#B4A7E5" rx="11" ry="11" style="stroke: #A80036; stroke-width: 1.0;"/><path d="M150.7531,20.6406 L150.7531,27.2969 L152.4719,27.2969 Q153.0813,27.2969 153.3469,27.5313 Q153.6125,27.7656 153.6125,28.1563 Q153.6125,28.5313 153.3469,28.7656 Q153.0813,29 152.4719,29 L147.3313,29 Q146.7219,29 146.4563,28.7656 Q146.1906,28.5313 146.1906,28.1406 Q146.1906,27.7656 146.4563,27.5313 Q146.7219,27.2969 147.3313,27.2969 L149.05,27.2969 L149.05,20.6406 L147.3313,20.6406 Q146.7219,20.6406 146.4563,20.4063 Q146.1906,20.1719 146.1906,19.7813 Q146.1906,19.4063 146.4563,19.1719 Q146.7219,18.9375 147.3313,18.9375 L152.4719,18.9375 Q153.0813,18.9375 153.3469,19.1719 Q153.6125,19.4063 153.6125,19.7813 Q153.6125,20.1719 153.3469,20.4063 Q153.0813,20.6406 152.4719,20.6406 L150.7531,20.6406 Z "/><text fill="#000000" font-family="sans-serif" font-size="12" font-style="italic" lengthAdjust="spacingAndGlyphs" textLength="64" x="165.2" y="28.9102">WalletEntity</text><line style="stroke: #A80036; stroke-width: 1.5;" x1="129.5" x2="237.5" y1="40" y2="40"/><line style="stroke: #A80036; stroke-width: 1.5;" x1="129.5" x2="237.5" y1="48" y2="48"/><ellipse cx="139.5" cy="60.418" fill="#84BE84" rx="3" ry="3" style="stroke: #038048; stroke-width: 1.0;"/><text fill="#000000" font-family="sans-serif" font-size="11" lengthAdjust="spacingAndGlyphs" textLength="66" x="148.5" y="63.4189">get_id() -&gt; str</text><ellipse cx="139.5" cy="74.2539" fill="#84BE84" rx="3" ry="3" style="stroke: #038048; stroke-width: 1.0;"/><text fill="#000000" font-family="sans-serif" font-size="11" lengthAdjust="spacingAndGlyphs" textLength="84" x="148.5" y="77.2549">get_value() -&gt; str</text><ellipse cx="139.5" cy="88.0898" fill="#84BE84" rx="3" ry="3" style="stroke: #038048; stroke-width: 1.0;"/><text fill="#000000" font-family="sans-serif" font-size="11" lengthAdjust="spacingAndGlyphs" textLength="79" x="148.5" y="91.0908">get_tags() -&gt; str</text><ellipse cx="139.5" cy="101.9258" fill="#84BE84" rx="3" ry="3" style="stroke: #038048; stroke-width: 1.0;"/><text fill="#000000" font-family="sans-serif" font-size="11" lengthAdjust="spacingAndGlyphs" textLength="28" x="148.5" y="104.9268">free()</text><!--link WalletStorage to WalletStorageType--><path d="M183.5,465.165 C183.5,480.442 183.5,496.628 183.5,511.561 " fill="none" id="WalletStorage-WalletStorageType" style="stroke: #A80036; stroke-width: 1.0;"/><polygon fill="#A80036" points="183.5,524.8593,187.5,518.8593,183.5,512.8593,179.5,518.8593,183.5,524.8593" style="stroke: #A80036; stroke-width: 1.0;"/><!--link WalletSearch to WalletStorage--><path d="M236.807,274.117 C230.429,288.999 223.305,305.623 216.392,321.752 " fill="none" id="WalletSearch-WalletStorage" style="stroke: #A80036; stroke-width: 1.0;"/><polygon fill="#A80036" points="211.163,333.952,217.2027,330.0122,215.8889,322.9218,209.8492,326.8616,211.163,333.952" style="stroke: #A80036; stroke-width: 1.0;"/><!--link WalletEntity to WalletStorage--><path d="M161.53,111.252 C154.637,129.701 147.935,150.948 144.5,171 C136.771,216.121 137.578,228.749 144.5,274 C146.868,289.48 150.802,305.68 155.283,321.082 " fill="none" id="WalletEntity-WalletStorage" style="stroke: #A80036; stroke-width: 1.0;"/><polygon fill="#A80036" points="159.153,333.798,161.2323,326.8932,155.6583,322.3182,153.579,329.223,159.153,333.798" style="stroke: #A80036; stroke-width: 1.0;"/><!--link WalletEntity to WalletSearch--><path d="M207.23,111.441 C214.275,126.564 222.073,143.303 229.417,159.068 " fill="none" id="WalletEntity-WalletSearch" style="stroke: #A80036; stroke-width: 1.0;"/><polygon fill="#A80036" points="234.924,170.89,236.0168,163.7622,229.8575,160.012,228.7648,167.1398,234.924,170.89" style="stroke: #A80036; stroke-width: 1.0;"/><!--
@startuml stotage-interface

interface WalletStorageType {
    +create_wallet_storage(name, config, cred)
    +delete_wallet_storage(name, config, cred)
    +open_wallet_storage(name, config, r_config, cred) -> WalletStorage
}

interface WalletStorage {
    +create_wallet_entity(type, id, value, tags)
    +update_wallet_entity(type, id, value, tags)
    +delete_wallet_entity(type, id)
    +get_wallet_entity(type, id, options) -> WalletEntity
    +search_wallet_entities(type, query, options) -> WalletSearch
    +close()
}
WalletStorage - -* WalletStorageType

interface WalletSearch {
    +get_total_count() -> u32
    +get_count() -> u32
    +next_wallet_entity() -> WalletEntity
    +free()
}
WalletSearch - -* WalletStorage

interface WalletEntity {
    +get_id() -> str
    +get_value() -> str
    +get_tags() -> str
    +free()
}
WalletEntity - -* WalletStorage
WalletEntity - -* WalletSearch

@enduml

PlantUML version 1.2017.20(Mon Dec 11 09:57:05 MST 2017)
(GPL source distribution)
Java Runtime: Java(TM) SE Runtime Environment
JVM: Java HotSpot(TM) 64-Bit Server VM
Java Version: 1.8.0_151-b12
Operating System: Windows 10
OS Version: 10.0
Default Encoding: Cp1252
Language: en
Country: US
--></g></svg>