<?xml version="1.0" encoding="UTF-8" standalone="no"?><svg xmlns="http://www.w3.org/2000/svg" xmlns:xlink="http://www.w3.org/1999/xlink" contentScriptType="application/ecmascript" contentStyleType="text/css" height="778px" preserveAspectRatio="none" style="width:745px;height:778px;" version="1.1" viewBox="0 0 745 778" width="745px" zoomAndPan="magnify"><defs><filter height="300%" id="fpcmrafjqb444" width="300%" x="-1" y="-1"><feGaussianBlur result="blurOut" stdDeviation="2.0"/><feColorMatrix in="blurOut" result="blurOut2" type="matrix" values="0 0 0 0 0 0 0 0 0 0 0 0 0 0 0 0 0 0 .4 0"/><feOffset dx="4.0" dy="4.0" in="blurOut2" result="blurOut3"/><feBlend in="SourceGraphic" in2="blurOut3" mode="normal"/></filter></defs><g><!--cluster Indy SDK--><polygon fill="#FFFFFF" filter="url(#fpcmrafjqb444)" points="22,70,90,70,97,93.6094,723,93.6094,723,686,22,686,22,70" style="stroke: #000000; stroke-width: 1.5;"/><line style="stroke: #000000; stroke-width: 1.5;" x1="22" x2="97" y1="93.6094" y2="93.6094"/><text fill="#000000" font-family="sans-serif" font-size="14" font-weight="bold" lengthAdjust="spacingAndGlyphs" textLength="62" x="26" y="86.5332">Indy SDK</text><!--entity i_wallet_api--><ellipse cx="473" cy="160" fill="#FEFECE" filter="url(#fpcmrafjqb444)" rx="8" ry="8" style="stroke: #A80036; stroke-width: 2.0;"/><text fill="#000000" font-family="sans-serif" font-size="14" lengthAdjust="spacingAndGlyphs" textLength="118" x="414" y="191.5332">Generic Wallet API</text><polygon fill="#FBFB77" filter="url(#fpcmrafjqb444)" points="575.5,122.5,575.5,197.9063,706.5,197.9063,706.5,132.5,696.5,122.5,575.5,122.5" style="stroke: #A80036; stroke-width: 1.0;"/><polygon fill="#FBFB77" points="575.5,122.5,575.5,156,482.007,160,575.5,164,575.5,197.9063,706.5,197.9063,706.5,132.5,696.5,122.5,575.5,122.5" style="stroke: #A80036; stroke-width: 1.0;"/><line style="stroke: #A80036; stroke-width: 1.0;" x1="696.5" x2="696.5" y1="122.5" y2="132.5"/><line style="stroke: #A80036; stroke-width: 1.0;" x1="706.5" x2="696.5" y1="132.5" y2="132.5"/><text fill="#000000" font-family="sans-serif" font-size="13" lengthAdjust="spacingAndGlyphs" textLength="107" x="581.5" y="140.9951">An API that allows</text><text fill="#000000" font-family="sans-serif" font-size="13" lengthAdjust="spacingAndGlyphs" textLength="110" x="581.5" y="157.3467">to store application</text><text fill="#000000" font-family="sans-serif" font-size="13" lengthAdjust="spacingAndGlyphs" textLength="73" x="581.5" y="173.6982">specific data</text><text fill="#000000" font-family="sans-serif" font-size="13" lengthAdjust="spacingAndGlyphs" textLength="91" x="581.5" y="190.0498">in a secure way</text><!--entity i_secrets_api--><ellipse cx="305" cy="160" fill="#FEFECE" filter="url(#fpcmrafjqb444)" rx="8" ry="8" style="stroke: #A80036; stroke-width: 2.0;"/><text fill="#000000" font-family="sans-serif" font-size="14" lengthAdjust="spacingAndGlyphs" textLength="116" x="247" y="191.5332">Secret Entities API</text><polygon fill="#FBFB77" filter="url(#fpcmrafjqb444)" points="38.5,106,38.5,214.1094,203.5,214.1094,203.5,116,193.5,106,38.5,106" style="stroke: #A80036; stroke-width: 1.0;"/><polygon fill="#FBFB77" points="38.5,106,38.5,214.1094,203.5,214.1094,203.5,116,193.5,106,126.132,106,285.842,160,118.132,106,38.5,106" style="stroke: #A80036; stroke-width: 1.0;"/><line style="stroke: #A80036; stroke-width: 1.0;" x1="193.5" x2="193.5" y1="106" y2="116"/><line style="stroke: #A80036; stroke-width: 1.0;" x1="203.5" x2="193.5" y1="116" y2="116"/><text fill="#000000" font-family="sans-serif" font-size="13" lengthAdjust="spacingAndGlyphs" textLength="107" x="44.5" y="124.4951">An API that allows</text><text fill="#000000" font-family="sans-serif" font-size="13" lengthAdjust="spacingAndGlyphs" textLength="107" x="44.5" y="140.8467">creation of secrets</text><text fill="#000000" font-family="sans-serif" font-size="13" lengthAdjust="spacingAndGlyphs" textLength="140" x="44.5" y="157.1982">and wallet-style access.</text><text fill="#000000" font-family="sans-serif" font-size="13" lengthAdjust="spacingAndGlyphs" textLength="140" x="44.5" y="173.5498">Existing API for creation</text><text fill="#000000" font-family="sans-serif" font-size="13" lengthAdjust="spacingAndGlyphs" textLength="107" x="44.5" y="189.9014">of DIDs, CredDefs,</text><text fill="#000000" font-family="sans-serif" font-size="13" lengthAdjust="spacingAndGlyphs" textLength="144" x="44.5" y="206.2529">MasterSecrets and etc...</text><!--entity indy_api--><rect fill="#FEFECE" filter="url(#fpcmrafjqb444)" height="37.6094" style="stroke: #A80036; stroke-width: 1.5;" width="81" x="294.5" y="274"/><rect fill="#FEFECE" height="5" style="stroke: #A80036; stroke-width: 1.5;" width="10" x="289.5" y="279"/><rect fill="#FEFECE" height="5" style="stroke: #A80036; stroke-width: 1.5;" width="10" x="289.5" y="301.6094"/><text fill="#000000" font-family="sans-serif" font-size="14" lengthAdjust="spacingAndGlyphs" textLength="61" x="304.5" y="298.5332">API Layer</text><!--entity i_wallet_service--><ellipse cx="335" cy="409.5" fill="#FEFECE" filter="url(#fpcmrafjqb444)" rx="8" ry="8" style="stroke: #A80036; stroke-width: 2.0;"/><text fill="#000000" font-family="sans-serif" font-size="14" lengthAdjust="spacingAndGlyphs" textLength="149" x="260.5" y="441.0332">Wallet Service Interface</text><polygon fill="#FBFB77" filter="url(#fpcmrafjqb444)" points="452,372,452,447.4063,676,447.4063,676,382,666,372,452,372" style="stroke: #A80036; stroke-width: 1.0;"/><polygon fill="#FBFB77" points="452,372,452,405.5,344.079,409.5,452,413.5,452,447.4063,676,447.4063,676,382,666,372,452,372" style="stroke: #A80036; stroke-width: 1.0;"/><line style="stroke: #A80036; stroke-width: 1.0;" x1="666" x2="666" y1="372" y2="382"/><line style="stroke: #A80036; stroke-width: 1.0;" x1="676" x2="666" y1="382" y2="382"/><text fill="#000000" font-family="sans-serif" font-size="13" lengthAdjust="spacingAndGlyphs" textLength="170" x="458" y="390.4951">Generic key storage interface</text><text fill="#000000" font-family="sans-serif" font-size="13" lengthAdjust="spacingAndGlyphs" textLength="158" x="458" y="406.8467">with a support of filtering by</text><text fill="#000000" font-family="sans-serif" font-size="13" lengthAdjust="spacingAndGlyphs" textLength="203" x="458" y="423.1982">tags. Consumes unecrypted values</text><text fill="#000000" font-family="sans-serif" font-size="13" lengthAdjust="spacingAndGlyphs" textLength="71" x="458" y="439.5498">and queries.</text><!--entity wallet_service--><rect fill="#FEFECE" filter="url(#fpcmrafjqb444)" height="37.6094" style="stroke: #A80036; stroke-width: 1.5;" width="110" x="280" y="509.5"/><rect fill="#FEFECE" height="5" style="stroke: #A80036; stroke-width: 1.5;" width="10" x="275" y="514.5"/><rect fill="#FEFECE" height="5" style="stroke: #A80036; stroke-width: 1.5;" width="10" x="275" y="537.1094"/><text fill="#000000" font-family="sans-serif" font-size="14" lengthAdjust="spacingAndGlyphs" textLength="90" x="290" y="534.0332">Wallet Service</text><polygon fill="#FBFB77" filter="url(#fpcmrafjqb444)" points="425.5,507,425.5,549.7031,636.5,549.7031,636.5,517,626.5,507,425.5,507" style="stroke: #A80036; stroke-width: 1.0;"/><polygon fill="#FBFB77" points="425.5,507,425.5,524.5,390.125,528.5,425.5,532.5,425.5,549.7031,636.5,549.7031,636.5,517,626.5,507,425.5,507" style="stroke: #A80036; stroke-width: 1.0;"/><line style="stroke: #A80036; stroke-width: 1.0;" x1="626.5" x2="626.5" y1="507" y2="517"/><line style="stroke: #A80036; stroke-width: 1.0;" x1="636.5" x2="626.5" y1="517" y2="517"/><text fill="#000000" font-family="sans-serif" font-size="13" lengthAdjust="spacingAndGlyphs" textLength="190" x="431.5" y="525.4951">All values and queries encryption</text><text fill="#000000" font-family="sans-serif" font-size="13" lengthAdjust="spacingAndGlyphs" textLength="104" x="431.5" y="541.8467">is performed here.</text><!--entity i_storage_api--><ellipse cx="335" cy="640" fill="#FEFECE" filter="url(#fpcmrafjqb444)" rx="8" ry="8" style="stroke: #A80036; stroke-width: 2.0;"/><text fill="#000000" font-family="sans-serif" font-size="14" lengthAdjust="spacingAndGlyphs" textLength="109" x="280.5" y="671.5332">Storage Interface</text><!--entity application--><rect fill="#FEFECE" filter="url(#fpcmrafjqb444)" height="37.6094" style="stroke: #A80036; stroke-width: 1.5;" width="89" x="344.5" y="8"/><rect fill="#FEFECE" height="5" style="stroke: #A80036; stroke-width: 1.5;" width="10" x="339.5" y="13"/><rect fill="#FEFECE" height="5" style="stroke: #A80036; stroke-width: 1.5;" width="10" x="339.5" y="35.6094"/><text fill="#000000" font-family="sans-serif" font-size="14" lengthAdjust="spacingAndGlyphs" textLength="69" x="354.5" y="32.5332">Application</text><!--entity default_storage--><rect fill="#FEFECE" filter="url(#fpcmrafjqb444)" height="37.6094" style="stroke: #A80036; stroke-width: 1.5;" width="119" x="193.5" y="730"/><rect fill="#FEFECE" height="5" style="stroke: #A80036; stroke-width: 1.5;" width="10" x="188.5" y="735"/><rect fill="#FEFECE" height="5" style="stroke: #A80036; stroke-width: 1.5;" width="10" x="188.5" y="757.6094"/><text fill="#000000" font-family="sans-serif" font-size="14" lengthAdjust="spacingAndGlyphs" textLength="99" x="203.5" y="754.5332">Default Storage</text><!--entity enterprise_storage--><rect fill="#FEFECE" filter="url(#fpcmrafjqb444)" height="37.6094" style="stroke: #A80036; stroke-width: 1.5;" width="139" x="347.5" y="730"/><rect fill="#FEFECE" height="5" style="stroke: #A80036; stroke-width: 1.5;" width="10" x="342.5" y="735"/><rect fill="#FEFECE" height="5" style="stroke: #A80036; stroke-width: 1.5;" width="10" x="342.5" y="757.6094"/><text fill="#000000" font-family="sans-serif" font-size="14" lengthAdjust="spacingAndGlyphs" textLength="119" x="357.5" y="754.5332">Enterprise Storage</text><!--link application to i_wallet_api--><path d="M400.68,46.215 C418.007,73.238 450.078,123.252 464.989,146.507 " fill="none" id="application-i_wallet_api" style="stroke: #A80036; stroke-width: 1.0; stroke-dasharray: 7.0,7.0;"/><polygon fill="#A80036" points="467.734,150.787,466.2448,141.0514,465.0358,146.5775,459.5096,145.3685,467.734,150.787" style="stroke: #A80036; stroke-width: 1.0;"/><!--link application to i_secrets_api--><path d="M377.32,46.215 C359.993,73.238 327.922,123.252 313.011,146.507 " fill="none" id="application-i_secrets_api" style="stroke: #A80036; stroke-width: 1.0; stroke-dasharray: 7.0,7.0;"/><polygon fill="#A80036" points="310.266,150.787,318.4904,145.3685,312.9642,146.5775,311.7552,141.0514,310.266,150.787" style="stroke: #A80036; stroke-width: 1.0;"/><!--link i_wallet_api to indy_api--><path d="M464.367,169.195 C442.535,189.92 384.697,244.824 354.295,273.684 " fill="none" id="i_wallet_api-indy_api" style="stroke: #A80036; stroke-width: 1.0;"/><!--link i_secrets_api to indy_api--><path d="M306.877,169.195 C311.623,189.92 324.196,244.824 330.805,273.684 " fill="none" id="i_secrets_api-indy_api" style="stroke: #A80036; stroke-width: 1.0;"/><!--link indy_api to i_wallet_service--><path d="M335,312.143 C335,335.297 335,374.799 335,395.292 " fill="none" id="indy_api-i_wallet_service" style="stroke: #A80036; stroke-width: 1.0; stroke-dasharray: 7.0,7.0;"/><polygon fill="#A80036" points="335,400.306,339,391.306,335,395.306,331,391.306,335,400.306" style="stroke: #A80036; stroke-width: 1.0;"/><!--link i_wallet_service to wallet_service--><path d="M335,418.542 C335,437.128 335,483.445 335,509.307 " fill="none" id="i_wallet_service-wallet_service" style="stroke: #A80036; stroke-width: 1.0;"/><!--link wallet_service to i_storage_api--><path d="M335,547.582 C335,569.569 335,606.159 335,625.715 " fill="none" id="wallet_service-i_storage_api" style="stroke: #A80036; stroke-width: 1.0; stroke-dasharray: 7.0,7.0;"/><polygon fill="#A80036" points="335,630.753,339,621.753,335,625.753,331,621.753,335,630.753" style="stroke: #A80036; stroke-width: 1.0;"/><!--link i_storage_api to default_storage--><path d="M328.837,649.042 C315.801,666.053 285.149,706.0498 267.057,729.6574 " fill="none" id="i_storage_api-default_storage" style="stroke: #A80036; stroke-width: 1.0;"/><!--link i_storage_api to enterprise_storage--><path d="M341.163,649.042 C354.199,666.053 384.851,706.0498 402.943,729.6574 " fill="none" id="i_storage_api-enterprise_storage" style="stroke: #A80036; stroke-width: 1.0;"/><!--
@startuml wallet-components

[Application] as application

package "Indy SDK" {
    () "Generic Wallet API" as i_wallet_api
    application ..> i_wallet_api

    note right of i_wallet_api
    An API that allows
    to store application
    specific data
    in a secure way
    end note
   
    () "Secret Entities API" as i_secrets_api
    application  ..> i_secrets_api

    note left of i_secrets_api
    An API that allows
    creation of secrets
    and wallet-style access.
    Existing API for creation
    of DIDs, CredDefs,
    MasterSecrets and etc...
    end note
   
    [API Layer] as indy_api
    i_wallet_api - - indy_api
    i_secrets_api - - indy_api

    () "Wallet Service Interface" as i_wallet_service
    indy_api ..> i_wallet_service

    note right of i_wallet_service
    Generic key storage interface
    with a support of filtering by
    tags. Consumes unecrypted values
    and queries.
    end note
    
    [Wallet Service] as wallet_service
    i_wallet_service - - wallet_service

    note right of wallet_service
    All values and queries encryption
    is performed here.
    end note

    () "Storage Interface" as i_storage_api
    wallet_service ..> i_storage_api
}

[Default Storage] as default_storage
i_storage_api - - default_storage 

[Enterprise Storage] as enterprise_storage
i_storage_api - - enterprise_storage 

@enduml

PlantUML version 1.2017.20(Mon Dec 11 09:57:05 MST 2017)
(GPL source distribution)
Java Runtime: Java(TM) SE Runtime Environment
JVM: Java HotSpot(TM) 64-Bit Server VM
Java Version: 1.8.0_151-b12
Operating System: Windows 10
OS Version: 10.0
Default Encoding: Cp1252
Language: en
Country: US
--></g></svg>